<?xml version="1.0" encoding="utf-8"?>
<!-- Generator: Adobe Illustrator 23.1.0, SVG Export Plug-In . SVG Version: 6.00 Build 0)  -->
<svg version="1.1" id="Layer_1" xmlns="http://www.w3.org/2000/svg" xmlns:xlink="http://www.w3.org/1999/xlink" x="0px" y="0px"
	 viewBox="0 0 500 500" style="enable-background:new 0 0 500 500;" xml:space="preserve">
<style type="text/css">
	.st0{fill-rule:evenodd;clip-rule:evenodd;fill:#FFFFFF;}
	.st1{fill:#BFE1FF;}
	.st2{fill-rule:evenodd;clip-rule:evenodd;fill:#BFE1FF;}
	.st3{fill-rule:evenodd;clip-rule:evenodd;fill:#59B2FF;}
	.st4{fill-rule:evenodd;clip-rule:evenodd;fill:#FF75CA;}
	.st5{fill-rule:evenodd;clip-rule:evenodd;fill:#12006C;}
	.st6{fill-rule:evenodd;clip-rule:evenodd;fill:#2C81FE;}
	.st7{fill:#FFFFFF;}
	.st8{fill:#2C81FE;}
	.st9{fill-rule:evenodd;clip-rule:evenodd;fill:#E33BA3;}
	.st10{opacity:0.25;}
	.st11{fill:#59B2FF;}
	.st12{fill:#FF75CA;}
	.st13{fill:#E33BA3;}
</style>
<g>
	<g>
		<rect x="0.5" y="0.5" class="st0" width="499" height="499"/>
	</g>
	<g>
		<g>
			<path class="st1" d="M254.22,426.27c-100.29,0-181.87-81.59-181.87-181.88c0-100.29,81.59-181.87,181.87-181.87
				c100.29,0,181.87,81.59,181.87,181.87C436.1,344.68,354.51,426.27,254.22,426.27z M254.22,64.3
				c-99.3,0-180.09,80.79-180.09,180.09c0,99.3,80.79,180.09,180.09,180.09c99.3,0,180.09-80.79,180.09-180.09
				C434.32,145.09,353.52,64.3,254.22,64.3z"/>
		</g>
		<g>
			<circle class="st2" cx="250" cy="250" r="180.98"/>
		</g>
		<g>
			<g>
				<g>
					<g>
						<g>
							<path class="st3" d="M136.11,443.48H69.94c-1.12,0-2.04,0.92-2.04,2.04l0,0c0,1.13,0.92,2.04,2.04,2.04h66.17
								c1.12,0,2.04-0.92,2.04-2.04l0,0C138.15,444.4,137.23,443.48,136.11,443.48z"/>
						</g>
						<g>
							<path class="st3" d="M61.25,443.48H39.06c-1.13,0-2.04,0.92-2.04,2.04l0,0c0,1.13,0.92,2.04,2.04,2.04h22.18
								c1.12,0,2.04-0.92,2.04-2.04l0,0C63.29,444.4,62.37,443.48,61.25,443.48z"/>
						</g>
					</g>
					<g>
						<g>
							<path class="st2" d="M49.33,432.95h-3.32c-1.12,0-2.04,0.92-2.04,2.04l0,0c0,1.13,0.92,2.04,2.04,2.04h3.32
								c1.13,0,2.04-0.92,2.04-2.04l0,0C51.38,433.87,50.46,432.95,49.33,432.95z"/>
						</g>
						<g>
							<path class="st2" d="M61.68,432.95h-3.32c-1.12,0-2.04,0.92-2.04,2.04l0,0c0,1.13,0.92,2.04,2.04,2.04h3.32
								c1.13,0,2.04-0.92,2.04-2.04l0,0C63.72,433.87,62.81,432.95,61.68,432.95z"/>
						</g>
						<g>
							<path class="st2" d="M81.43,432.95H70.71c-1.12,0-2.04,0.92-2.04,2.04l0,0c0,1.13,0.92,2.04,2.04,2.04h10.73
								c1.13,0,2.04-0.92,2.04-2.04l0,0C83.48,433.87,82.56,432.95,81.43,432.95z"/>
						</g>
						<g>
							<path class="st2" d="M108.59,432.95H90.83c-1.13,0-2.04,0.92-2.04,2.04l0,0c0,1.13,0.92,2.04,2.04,2.04h17.76
								c1.12,0,2.04-0.92,2.04-2.04l0,0C110.63,433.87,109.71,432.95,108.59,432.95z"/>
						</g>
					</g>
					<g>
						<g>
							<path class="st2" d="M68.04,454.01h-3.32c-1.12,0-2.04,0.92-2.04,2.04l0,0c0,1.13,0.92,2.04,2.04,2.04h3.32
								c1.12,0,2.04-0.92,2.04-2.04l0,0C70.08,454.93,69.16,454.01,68.04,454.01z"/>
						</g>
						<g>
							<path class="st2" d="M80.38,454.01h-3.32c-1.12,0-2.04,0.92-2.04,2.04l0,0c0,1.13,0.92,2.04,2.04,2.04h3.32
								c1.12,0,2.04-0.92,2.04-2.04l0,0C82.43,454.93,81.51,454.01,80.38,454.01z"/>
						</g>
						<g>
							<path class="st2" d="M100.14,454.01H89.41c-1.12,0-2.04,0.92-2.04,2.04l0,0c0,1.13,0.92,2.04,2.04,2.04h10.72
								c1.12,0,2.04-0.92,2.04-2.04l0,0C102.18,454.93,101.26,454.01,100.14,454.01z"/>
						</g>
						<g>
							<path class="st2" d="M127.29,454.01h-17.76c-1.13,0-2.04,0.92-2.04,2.04l0,0c0,1.13,0.92,2.04,2.04,2.04h17.76
								c1.12,0,2.04-0.92,2.04-2.04l0,0C129.34,454.93,128.42,454.01,127.29,454.01z"/>
						</g>
					</g>
				</g>
				<g>
					<g>
						<g>
							<path class="st3" d="M452.45,140.99V74.82c0-1.13-0.92-2.04-2.04-2.04l0,0c-1.12,0-2.04,0.92-2.04,2.04v66.17
								c0,1.12,0.92,2.04,2.04,2.04l0,0C451.53,143.03,452.45,142.11,452.45,140.99z"/>
						</g>
						<g>
							<path class="st3" d="M452.45,66.13V43.94c0-1.12-0.92-2.04-2.04-2.04l0,0c-1.12,0-2.04,0.92-2.04,2.04v22.18
								c0,1.12,0.92,2.04,2.04,2.04l0,0C451.53,68.17,452.45,67.25,452.45,66.13z"/>
						</g>
					</g>
					<g>
						<g>
							<path class="st2" d="M462.98,54.21v-3.32c0-1.12-0.92-2.04-2.04-2.04l0,0c-1.12,0-2.04,0.92-2.04,2.04v3.32
								c0,1.13,0.92,2.04,2.04,2.04l0,0C462.06,56.25,462.98,55.34,462.98,54.21z"/>
						</g>
						<g>
							<path class="st2" d="M462.98,66.56v-3.32c0-1.12-0.92-2.04-2.04-2.04l0,0c-1.12,0-2.04,0.92-2.04,2.04v3.32
								c0,1.13,0.92,2.04,2.04,2.04l0,0C462.06,68.6,462.98,67.68,462.98,66.56z"/>
						</g>
						<g>
							<path class="st2" d="M462.98,86.31V75.59c0-1.12-0.92-2.04-2.04-2.04l0,0c-1.12,0-2.04,0.92-2.04,2.04v10.72
								c0,1.13,0.92,2.04,2.04,2.04l0,0C462.06,88.36,462.98,87.44,462.98,86.31z"/>
						</g>
						<g>
							<path class="st2" d="M462.98,113.47V95.71c0-1.12-0.92-2.04-2.04-2.04l0,0c-1.12,0-2.04,0.92-2.04,2.04v17.76
								c0,1.12,0.92,2.04,2.04,2.04l0,0C462.06,115.51,462.98,114.59,462.98,113.47z"/>
						</g>
					</g>
					<g>
						<g>
							<path class="st2" d="M441.92,72.91V69.6c0-1.12-0.92-2.04-2.04-2.04l0,0c-1.12,0-2.04,0.92-2.04,2.04v3.32
								c0,1.12,0.92,2.04,2.04,2.04l0,0C441,74.96,441.92,74.04,441.92,72.91z"/>
						</g>
						<g>
							<path class="st2" d="M441.92,85.26v-3.32c0-1.13-0.92-2.04-2.04-2.04l0,0c-1.12,0-2.04,0.92-2.04,2.04v3.32
								c0,1.13,0.92,2.04,2.04,2.04l0,0C441,87.31,441.92,86.39,441.92,85.26z"/>
						</g>
						<g>
							<path class="st2" d="M441.92,105.02V94.29c0-1.12-0.92-2.04-2.04-2.04l0,0c-1.12,0-2.04,0.92-2.04,2.04v10.72
								c0,1.12,0.92,2.04,2.04,2.04l0,0C441,107.06,441.92,106.14,441.92,105.02z"/>
						</g>
						<g>
							<path class="st2" d="M441.92,132.17v-17.76c0-1.12-0.92-2.04-2.04-2.04l0,0c-1.12,0-2.04,0.92-2.04,2.04v17.76
								c0,1.12,0.92,2.04,2.04,2.04l0,0C441,134.21,441.92,133.29,441.92,132.17z"/>
						</g>
					</g>
				</g>
			</g>
			<g>
				<g>
					<g>
						<path class="st2" d="M173.26,59.24v-3.32c0-1.12-0.92-2.04-2.04-2.04l0,0c-1.12,0-2.04,0.92-2.04,2.04v3.32
							c0,1.13,0.92,2.04,2.04,2.04l0,0C172.34,61.28,173.26,60.37,173.26,59.24z"/>
					</g>
					<g>
						<path class="st4" d="M159.35,59.24v-3.32c0-1.12-0.92-2.04-2.04-2.04l0,0c-1.12,0-2.04,0.92-2.04,2.04v3.32
							c0,1.13,0.92,2.04,2.04,2.04l0,0C158.43,61.28,159.35,60.37,159.35,59.24z"/>
					</g>
					<g>
						<path class="st2" d="M145.44,59.24v-3.32c0-1.12-0.92-2.04-2.04-2.04l0,0c-1.12,0-2.04,0.92-2.04,2.04v3.32
							c0,1.13,0.92,2.04,2.04,2.04l0,0C144.52,61.28,145.44,60.37,145.44,59.24z"/>
					</g>
					<g>
						<path class="st2" d="M131.53,59.24v-3.32c0-1.12-0.92-2.04-2.04-2.04l0,0c-1.12,0-2.04,0.92-2.04,2.04v3.32
							c0,1.13,0.92,2.04,2.04,2.04l0,0C130.61,61.28,131.53,60.37,131.53,59.24z"/>
					</g>
					<g>
						<path class="st2" d="M117.62,59.24v-3.32c0-1.12-0.92-2.04-2.05-2.04l0,0c-1.12,0-2.04,0.92-2.04,2.04v3.32
							c0,1.13,0.92,2.04,2.04,2.04l0,0C116.7,61.28,117.62,60.37,117.62,59.24z"/>
					</g>
				</g>
				<g>
					<g>
						<path class="st2" d="M434.88,373.28h-3.32c-1.12,0-2.04,0.92-2.04,2.04l0,0c0,1.13,0.92,2.04,2.04,2.04h3.32
							c1.13,0,2.04-0.92,2.04-2.04l0,0C436.92,374.2,436,373.28,434.88,373.28z"/>
					</g>
					<g>
						<path class="st4" d="M434.88,387.19h-3.32c-1.12,0-2.04,0.92-2.04,2.04l0,0c0,1.13,0.92,2.04,2.04,2.04h3.32
							c1.13,0,2.04-0.92,2.04-2.04l0,0C436.92,388.11,436,387.19,434.88,387.19z"/>
					</g>
					<g>
						<path class="st2" d="M434.88,401.1h-3.32c-1.12,0-2.04,0.92-2.04,2.04l0,0c0,1.13,0.92,2.04,2.04,2.04h3.32
							c1.13,0,2.04-0.92,2.04-2.04l0,0C436.92,402.02,436,401.1,434.88,401.1z"/>
					</g>
					<g>
						<path class="st2" d="M434.88,415.01h-3.32c-1.12,0-2.04,0.92-2.04,2.04l0,0c0,1.13,0.92,2.04,2.04,2.04h3.32
							c1.13,0,2.04-0.92,2.04-2.04l0,0C436.92,415.93,436,415.01,434.88,415.01z"/>
					</g>
					<g>
						<path class="st2" d="M434.88,428.92h-3.32c-1.12,0-2.04,0.92-2.04,2.04l0,0c0,1.13,0.92,2.04,2.04,2.04h3.32
							c1.13,0,2.04-0.92,2.04-2.04l0,0C436.92,429.84,436,428.92,434.88,428.92z"/>
					</g>
				</g>
			</g>
		</g>
	</g>
	<g>
		<g>
			<path class="st0" d="M341.74,309.89c1.07,0,2.09,0.19,3.03,0.54c0.43-0.47,1.04-0.76,1.73-0.76c0.32,0,0.63,0.06,0.9,0.18
				c0.15-2.01,1.83-3.59,3.88-3.59c0.89,0,1.71,0.3,2.36,0.8c0.14-0.2,0.32-0.37,0.51-0.51c-0.38-0.67-0.59-1.43-0.59-2.25
				c0-1.27,0.51-2.41,1.34-3.25c0.83-0.83,1.98-1.34,3.25-1.34h0.02c0.7-0.37,1.49-0.58,2.34-0.58c0.51,0,1.01,0.08,1.48,0.22
				c0.21-0.46,0.57-0.83,1.02-1.06c-0.12-0.57-0.19-1.16-0.19-1.77c0-2.3,0.93-4.38,2.44-5.89c1.51-1.51,3.59-2.44,5.89-2.44
				c0.73,0,1.44,0.09,2.12,0.27c4.93,0.07,8.89,4.09,8.89,9.03c0,0.07,0,0.14,0,0.21c0.44-0.11,0.89-0.17,1.36-0.17
				c0.93,0,1.81,0.23,2.59,0.64c1.32-1.8,3.44-2.96,5.84-2.96c3.99,0,7.23,3.24,7.23,7.23c0,0.79-0.13,1.54-0.36,2.25
				c0.07,0,0.15-0.01,0.22-0.01c1.97,0,3.56,1.59,3.56,3.56c0,0.23-0.02,0.46-0.07,0.68c0.03,0,0.05,0,0.08,0
				c1.11,0,2.02,0.88,2.05,1.99c0.31-0.06,0.63-0.09,0.95-0.09c1.28,0,2.48,0.45,3.35,1.27c2.31,2.19-0.21,2.76-2.65,2.76h-3.17
				h-2.49H349.6h-3.99h-6.55c-2.54,0-6.16,0.41-3.64-2.24C337.01,310.93,339.25,309.89,341.74,309.89L341.74,309.89z M363.68,298.07
				c0.13-0.02,0.26-0.03,0.39-0.03l0.07,0c-0.01-0.18-0.02-0.36-0.02-0.55c0-3.97,2.56-7.34,6.12-8.55c-1.74,0.21-3.3,1-4.48,2.18
				c-1.38,1.38-2.24,3.29-2.24,5.4C363.52,297.06,363.58,297.57,363.68,298.07L363.68,298.07z M354.77,306.22
				c0.24-0.08,0.48-0.12,0.75-0.12c0.13,0,0.25,0.01,0.38,0.03c-0.26-0.61-0.4-1.27-0.4-1.98c0-1.4,0.57-2.67,1.49-3.58
				c-0.6,0.19-1.14,0.52-1.58,0.96c-0.71,0.7-1.14,1.68-1.14,2.75C354.27,305,354.45,305.65,354.77,306.22z"/>
		</g>
		<g>
			<path class="st0" d="M297.51,127.97c1.06,0,2.09,0.19,3.03,0.54c0.43-0.47,1.04-0.77,1.73-0.77c0.32,0,0.63,0.06,0.9,0.18
				c0.15-2.01,1.83-3.59,3.88-3.59c0.89,0,1.71,0.3,2.37,0.8c0.14-0.2,0.31-0.37,0.51-0.51c-0.37-0.66-0.59-1.43-0.59-2.24
				c0-1.27,0.51-2.42,1.34-3.25c0.83-0.83,1.98-1.34,3.25-1.34h0.01c0.7-0.37,1.49-0.58,2.34-0.58c0.52,0,1.02,0.08,1.48,0.22
				c0.21-0.46,0.57-0.83,1.02-1.06c-0.12-0.57-0.19-1.16-0.19-1.77c0-2.3,0.93-4.38,2.44-5.89c1.51-1.51,3.59-2.44,5.89-2.44
				c0.73,0,1.44,0.09,2.12,0.27c4.92,0.07,8.89,4.09,8.89,9.03c0,0.07,0,0.14,0,0.21c0.44-0.11,0.89-0.17,1.36-0.17
				c0.93,0,1.81,0.23,2.59,0.64c1.32-1.8,3.44-2.96,5.84-2.96c4,0,7.23,3.24,7.23,7.23c0,0.78-0.13,1.54-0.36,2.25
				c0.07,0,0.14-0.01,0.22-0.01c1.97,0,3.56,1.59,3.56,3.56c0,0.23-0.02,0.46-0.06,0.68c0.02,0,0.05,0,0.07,0
				c1.11,0,2.02,0.88,2.05,1.99c0.31-0.06,0.63-0.09,0.95-0.09c1.28,0,2.49,0.45,3.35,1.27c2.31,2.19-0.21,2.76-2.65,2.76h-3.17
				h-2.49h-51.06h-3.98h-6.55c-2.54,0-6.16,0.42-3.64-2.24C292.78,129.01,295.02,127.97,297.51,127.97L297.51,127.97z
				 M319.45,116.16c0.12-0.02,0.25-0.03,0.39-0.03l0.07,0c-0.01-0.18-0.02-0.36-0.02-0.55c0-3.97,2.56-7.34,6.12-8.55
				c-1.74,0.21-3.3,1-4.48,2.18c-1.38,1.38-2.24,3.29-2.24,5.4C319.29,115.14,319.35,115.66,319.45,116.16L319.45,116.16z
				 M310.54,124.31c0.23-0.08,0.48-0.12,0.75-0.12c0.13,0,0.25,0.01,0.37,0.03c-0.26-0.61-0.4-1.28-0.4-1.97
				c0-1.4,0.57-2.67,1.49-3.58c-0.6,0.19-1.14,0.52-1.58,0.96c-0.71,0.71-1.14,1.68-1.14,2.76
				C310.04,123.08,310.22,123.74,310.54,124.31z"/>
		</g>
	</g>
	<g>
		<g>
			<path class="st5" d="M231.56,256.74c0,0-14.56,2.02-23.99,15.6c-9.43,13.58-40.55,57.15-40.55,57.15l65.82,1.13L231.56,256.74z"
				/>
		</g>
		<g>
			<path class="st3" d="M269.82,221.26c0,0-0.78,3.82-1.45,7.1c-0.67,3.29-0.57,13.39-0.57,13.39c-0.51,2.74-1.02,9.49-5,9.35
				c-6.77-0.24,4.19,23.4,13.25,25.95c10.48,2.94,32.47-9.17,44.51-16.33c1.51-0.9,0.03-5.08,1.29-5.66c0,0-5.79-2.2-6.34-7.56
				c-0.55-5.36,1.5-24.8,1.5-24.8L269.82,221.26z"/>
		</g>
		<g>
			<path class="st6" d="M269.82,221.26c0,0-0.78,3.82-1.45,7.1c-0.67,3.29-0.57,13.39-0.57,13.39c-0.22,1.18-0.44,3.09-0.93,4.87
				c4.3,3.75,9.03,7.67,11.52,9.08c3.15,1.78,7.09,2.61,10.98,2.6c3.89,0.01,7.83-0.82,10.98-2.6c3.22-1.82,10.16-7.82,15.09-12.23
				c0.19-7.65,1.57-20.78,1.57-20.78L269.82,221.26z"/>
		</g>
		<g>
			<path class="st0" d="M321.87,255.05l37.84,12.96c0,0-32.01,48.28-16.32,89.68l1.78,33.82l-7.23,16.7
				c-26.04,14.5-56.02,22.78-87.94,22.78c-12.6,0-24.9-1.29-36.77-3.74l1.37-14.81l-4.12-52.34c-7.16-31.58-1.76-50.55,21.09-103.35
				l31.25-5.65C264.31,270.52,294.93,272.85,321.87,255.05z"/>
		</g>
		<g>
			<path class="st5" d="M321.87,255.05l37.84,12.96c0,0-7.78,11.74-13.78,28.59c-7.07,2.31-11.1,5.5-11.1,5.5
				c4.3-14.51-1.21-23.33-10.76-27.84c-4.46-2.11-9.92-4.77-10.06-5.04c-0.11-0.2-7.68-1.83-16.1-3.58
				C305.64,263.8,313.91,260.3,321.87,255.05L321.87,255.05z M219.62,285.48c2.68-6.89,2.05-11.27,5.69-19.76
				c0.8-1.88,5.4-7.01,6.26-8.97l31.25-5.65c0.37,4.76,2.49,8.49,5.87,11.16c-8.12,1.56-21.89,4.34-30.79,6.87
				C225.06,272.76,219.96,284.64,219.62,285.48z"/>
		</g>
		<g>
			<path class="st5" d="M321.87,255.05l8.27,2.83c-30.33,30.06-76.21,21.82-74.32-5.52l6.99-1.26
				C264.31,270.52,294.93,272.85,321.87,255.05z"/>
		</g>
		<g>
			<path class="st3" d="M334.07,193.31c0,0,4.87-3.85,7.55-3.08c2.69,0.77,4.95,7.63,3.71,12.27c-1.24,4.65-9.41,20.08-17.28,12.21
				C320.19,206.85,334.07,193.31,334.07,193.31z"/>
		</g>
		<g>
			<path class="st6" d="M330.08,197.71c-0.37,0.27-0.56,0.8-0.43,1.2c0.12,0.35,0.47,0.47,0.81,0.3h0c0,0-0.21,14.96,2.22,13.06
				c2.43-1.89,4.95-3.68,6.48-7.21c1.52-3.53-0.94-7.47,0.34-8.22c1.23-0.72,2.1,0.92,2.18,1.07l0,0.01l0,0v0
				c0.67,1.41,0.82,2.95,0.82,2.96c0.05,0.44,0.4,0.67,0.79,0.5c0.39-0.17,0.67-0.67,0.63-1.11c0-0.02-0.55-5.81-4.39-6.32
				C335.88,193.46,330.1,197.7,330.08,197.71z"/>
		</g>
		<g>
			<path class="st3" d="M250.93,186.3c0,0-2.97-4.19-5.29-4.21c-2.31-0.01-5.71,4.91-5.81,8.89c-0.1,3.98,2.79,18.15,10.88,13.74
				C258.81,200.3,250.93,186.3,250.93,186.3z"/>
		</g>
		<g>
			<path class="st6" d="M252.34,190.57c0.23,0.3,0.26,0.77,0.06,1.05c-0.18,0.25-0.48,0.27-0.71,0.05l0,0c0,0-3.32,11.94-4.81,9.86
				c-1.49-2.07-3.08-4.08-3.47-7.24c-0.39-3.16,2.49-5.71,1.64-6.62c-0.8-0.86-1.88,0.24-1.98,0.34l0,0l0,0l0,0
				c-0.86,0.97-1.33,2.15-1.34,2.16c-0.14,0.34-0.48,0.44-0.75,0.21c-0.27-0.23-0.38-0.69-0.24-1.03c0-0.01,1.79-4.49,4.96-4
				C248.72,185.84,252.33,190.56,252.34,190.57z"/>
		</g>
		<g>
			<path class="st3" d="M298.65,118.4c-56.58-5.19-53.29,42.5-52.36,80.77c1.45,59.57,72.33,67.18,86.39,9.27
				C341.71,171.25,355.04,125.34,298.65,118.4z"/>
		</g>
		<g>
			<path class="st6" d="M246.1,170.28c-0.19,4.57-0.21,9.22-0.15,13.85c0.59,0.3,1.24,0.59,1.94,0.85c11.7,4.36,19.56-9.8,19.56-9.8
				l2.16-5.77C269.6,169.4,254.37,170.04,246.1,170.28L246.1,170.28z M336.88,190.84c0.76-3.42,1.46-6.85,2.06-10.26
				c-3.53-5.55-9.57-11.25-9.57-11.25l-8.46-3.33c0,0-4.39,24.68,13.65,24.95C335.42,190.96,336.19,190.92,336.88,190.84z"/>
		</g>
		<g>
			<path class="st5" d="M333.64,204.49c1.24-5.04,2.6-10.66,3.71-15.83c7.5-34.73,7.77-60.68-39.11-66.44
				c-47.04-4.31-52.28,21.1-52.32,56.63c0,5.3,0.13,11.07,0.27,16.26l0,0c0,0,6.13-4.99,6.12-16.13c0,0,11.68,1.34,8.92-18.34
				c-2.77-19.68,22.06-18.43,34.73-17.07c12.67,1.36,37.2,5.41,30.32,24.05c-6.88,18.64,4.82,19.81,4.82,19.81
				C328.71,198.32,333.64,204.5,333.64,204.49L333.64,204.49z"/>
		</g>
		<g>
			<path class="st5" d="M320.9,165.71c0,0-3.66,2.26-6.38,8.65c-2.72,6.39-6.76,12.13-14.91,11.26c-8.15-0.88-10.55-9.34-10.55-9.34
				s-10.33,13.82-21.6-1.1c0,0-6.01,7.16-16.86,5.59c-36.46-5.28,0.03-79.77,54.15-70.8c20.82,3.45,31.44,15.56,33.2,23.04
				c-0.24-13.9,12.11-10.56,7.24,8.72C373.59,155.87,323.03,220.37,320.9,165.71z"/>
		</g>
		<g>
			<path class="st6" d="M256.59,124.82c-1.49,8.44-0.68,27.14,37.81,21.65l0.91-0.13c0.66-0.1,1.02-0.16,0.97,0.06l0,0v0.01
				c-0.02,0.07-0.09,0.12-0.17,0.1h0c-0.21,0.07-0.6,0.16-1.22,0.3l-0.48,0.11c-2.75,0.62-8.11,1.71-14.02,2.33
				c-3.81,0.4-7.84,0.61-11.54,0.36c-4.53-0.3-8.09-1.3-10.88-2.56c-2.8-1.26-4.83-2.79-6.32-4.16c-0.29-0.27-0.51-0.47-0.73-0.67v0
				v0c-2.5-2.32-3.69-3.43-6.68-3.06C247.53,134.07,251.69,129.15,256.59,124.82L256.59,124.82z M299.96,145.61
				c0.04-0.01,13.26-4.21,20.29-0.53c0.07,0.04,0.1,0.12,0.06,0.19c-0.03,0.06-0.11,0.09-0.18,0.06l0,0c-0.01,0-2.87-1.15-4.99,0.38
				c-1.82,1.31-3.28,0.92-5.21,0.41c-0.45-0.12-0.93-0.25-1.43-0.36c-1.37-0.3-2.84-0.46-4.33-0.44c-1.38,0.02-2.77,0.19-4.12,0.55
				l-0.01,0l0,0h-0.01c-0.07,0.02-0.15-0.02-0.17-0.1C299.85,145.71,299.89,145.63,299.96,145.61L299.96,145.61z"/>
		</g>
		<g>
			<g>
				<path class="st6" d="M281.17,195.68c-0.02,0.09-0.06,0.18-0.11,0.26l-0.28,0.46l0,0.01v0c-1.41,2.33-5.93,9.8-5.94,10.63
					c0.03,0.6,2.19,2.43,2.66,2.79c1.09,0.83,3.76-0.15,4.72-0.5c4.15-1.51-2.66,3.59-4.31,3.09c-1.32-0.4-2.15-1.04-3.12-1.97
					c-0.82-0.78-1.94-2.22-2-3.35c-0.06-1.17,4.56-9.05,6.15-11.6c1.5-2.52,1.54-4.19,1.24-5.17c-0.21-0.67-0.18-1.66,0.68-0.39
					C281.58,190.98,282.44,193,281.17,195.68z"/>
			</g>
			<g>
				<path class="st5" d="M296.72,180.84c0.07,0.71,0.28,1.05,0.43,1.21c0.05-0.96,0.71-1.64,1.75-2.11
					c6.79-2.58,17.6-0.47,22.56,3.23l0,0c0.04,0.03,0.06,0.09,0.05,0.15c-0.02,0.07-0.09,0.1-0.15,0.08
					c-3.63-1.39-7.3-1.76-10.57-1.61c-5.25,0.24-9.47,1.79-10.93,2.58c-0.51,0.28-1.13,0.56-1.75,0.57
					c-0.64,0.01-1.27-0.27-1.8-1.12c-0.17-0.28-0.3-0.56-0.38-0.82c-0.21-0.63-0.2-1.18-0.12-1.6c0.09-0.44,0.27-0.74,0.39-0.82
					c0.02-0.01,0.03-0.02,0.05-0.02l0,0h0l0,0c0.36-0.11,0.46,0.28,0.46,0.28l0,0L296.72,180.84z"/>
			</g>
			<g>
				<path class="st5" d="M274.15,178.31c-0.21,0.64-0.46,0.92-0.62,1.03c0.17-0.91-0.22-1.69-0.97-2.35
					c-4.99-3.91-14.32-4.35-19.2-2.02l0,0c-0.04,0.02-0.07,0.07-0.07,0.13c0,0.07,0.05,0.11,0.11,0.1c3.28-0.48,6.37-0.01,9.02,0.86
					c4.25,1.39,7.37,3.78,8.38,4.83c0.36,0.37,0.8,0.78,1.31,0.92c0.52,0.15,1.1,0.04,1.72-0.64c0.2-0.23,0.37-0.45,0.5-0.68
					c0.3-0.54,0.42-1.06,0.45-1.47c0.03-0.42-0.06-0.74-0.14-0.85c-0.01-0.01-0.02-0.02-0.03-0.03l0,0v0h0
					c-0.27-0.19-0.44,0.15-0.44,0.15l0,0L274.15,178.31z"/>
			</g>
			<g>
				<path class="st5" d="M297.58,193.67c2.84-3.65,5.77-5.35,8.47-5.73c1.86-0.26,3.6,0.11,5.14,0.91c1.53,0.8,2.86,2.02,3.89,3.49
					c1.88,2.67,2.75,6.13,2.04,9.2c-0.02,0.09-0.11,0.15-0.21,0.13c-0.09-0.02-0.14-0.1-0.14-0.18c0.18-2.19-0.61-4.54-2.05-6.48
					c-1.09-1.47-2.56-2.72-4.26-3.49c-1.69-0.77-3.63-1.07-5.65-0.66c-2.35,0.47-4.84,1.9-7.24,4.66c-0.58,0.66-1.08,1.39-1.48,2.15
					h0h0c-0.39,0.74-0.68,1.52-0.85,2.29c-0.02,0.09-0.11,0.15-0.21,0.13c-0.09-0.02-0.15-0.1-0.14-0.18
					c0.12-1.07,0.42-2.15,0.86-3.19C296.24,195.63,296.86,194.59,297.58,193.67z"/>
			</g>
			<g>
				<path class="st5" d="M299.52,192.28c0.45-0.5,0.91-0.96,1.36-1.38c1.67-0.85,3.7-1.19,5.81-0.84c4.75,0.79,8.05,4.81,7.37,8.98
					c-1.12,6.94-10.84,7.16-15.24,3.23c-0.79-0.86-1.37-1.85-1.71-2.92C296.63,196.99,297.72,194.3,299.52,192.28z"/>
			</g>
			<g>
				<g>
					<path class="st1" d="M317.03,205.06c-0.06,0-0.13-0.01-0.19-0.04c-0.72-0.33-1.05-0.78-1.09-0.83c-0.14-0.2-0.1-0.48,0.1-0.62
						c0.2-0.14,0.48-0.1,0.62,0.1c0.01,0.01,0.25,0.32,0.74,0.54c0.22,0.1,0.32,0.37,0.22,0.59
						C317.36,204.96,317.2,205.06,317.03,205.06z"/>
				</g>
				<g>
					<path class="st1" d="M314.71,206.25c-0.12,0-0.23-0.04-0.32-0.13c-0.46-0.46-0.59-0.91-0.6-0.96
						c-0.06-0.24,0.08-0.48,0.32-0.54c0.24-0.06,0.48,0.08,0.54,0.32c0,0.02,0.09,0.28,0.37,0.56c0.17,0.17,0.17,0.46,0,0.63
						C314.94,206.21,314.83,206.25,314.71,206.25z"/>
				</g>
			</g>
			<g>
				<path class="st0" d="M303.1,193.62c0.81,0.05,1.42,0.77,1.37,1.6c-0.06,0.83-0.76,1.45-1.58,1.4s-1.43-0.77-1.37-1.59
					C301.58,194.19,302.28,193.56,303.1,193.62z"/>
			</g>
			<g>
				<g>
					<path class="st5" d="M266.1,182.11c2.24,1.16,4.29,3.6,5.68,7.79c0.35,1.06,0.58,2.19,0.66,3.32c0.08,1.08,0.02,2.16-0.2,3.17
						c-0.02,0.08-0.09,0.14-0.18,0.13c-0.09-0.01-0.15-0.09-0.14-0.18c0.08-0.76,0.06-1.55-0.06-2.35
						c-0.12-0.82-0.34-1.63-0.65-2.41c-1.28-3.24-3.02-5.29-4.92-6.44c-1.64-0.99-3.42-1.3-5.13-1.11
						c-1.71,0.19-3.36,0.87-4.75,1.89c-1.84,1.33-3.22,3.23-3.72,5.28c-0.02,0.08-0.09,0.13-0.17,0.12
						c-0.09-0.01-0.15-0.09-0.14-0.18c0.29-3.01,2.09-5.9,4.52-7.76c1.33-1.02,2.86-1.74,4.43-2
						C262.93,181.13,264.56,181.32,266.1,182.11z"/>
				</g>
				<g>
					<path class="st5" d="M269.09,187.37c-0.24-0.6-0.5-1.15-0.78-1.67c-1.2-1.28-2.87-2.21-4.81-2.53
						c-4.37-0.72-8.45,1.94-9.11,5.95c-1.09,6.66,7.32,9.81,12.32,7.56c0.94-0.54,1.75-1.27,2.36-2.15
						C270.21,192.53,270.06,189.76,269.09,187.37z"/>
				</g>
				<g>
					<g>
						<path class="st1" d="M251.52,194.41c-0.22,0-0.41-0.17-0.44-0.39c-0.03-0.25,0.15-0.46,0.39-0.49
							c0.49-0.06,0.78-0.26,0.79-0.26c0.2-0.15,0.48-0.1,0.62,0.09c0.14,0.2,0.11,0.47-0.09,0.62c-0.05,0.04-0.48,0.35-1.22,0.44
							C251.56,194.41,251.54,194.41,251.52,194.41z"/>
					</g>
					<g>
						<path class="st1" d="M253.19,196.2c-0.16,0-0.32-0.09-0.4-0.24c-0.12-0.22-0.03-0.49,0.19-0.6c0.33-0.17,0.48-0.39,0.48-0.39
							c0.13-0.2,0.41-0.26,0.61-0.13c0.21,0.13,0.27,0.4,0.14,0.61c-0.02,0.04-0.27,0.42-0.82,0.71
							C253.33,196.19,253.26,196.2,253.19,196.2z"/>
					</g>
				</g>
				<g>
					<path class="st0" d="M260.09,187.26c0.77,0.05,1.36,0.74,1.3,1.53c-0.06,0.79-0.73,1.39-1.5,1.34
						c-0.77-0.05-1.36-0.74-1.3-1.53C258.65,187.81,259.32,187.21,260.09,187.26z"/>
				</g>
			</g>
			<g>
				<g>
					<path class="st6" d="M289.41,221.53c0.52-0.13,0.84-0.67,0.72-1.2c-0.12-0.53-0.65-0.86-1.17-0.73c-0.01,0-2.86,1.17-6.46,0.92
						c-1.27-0.08-1.33,1.39-0.06,1.47C286.34,222.27,289.41,221.53,289.41,221.53z"/>
				</g>
				<g>
					<path class="st6" d="M292.31,215.8c0.47-0.26,0.69-0.9,0.49-1.43c-0.21-0.53-0.76-0.76-1.24-0.5
						c-0.02,0.01-7.33,4.05-17.11,2.27c-1.21-0.22-1.33,1.13-0.12,1.35C283.29,219.9,292.28,215.81,292.31,215.8z"/>
				</g>
				<g>
					<path class="st6" d="M292.06,212.07c-0.23-0.35-0.82-0.44-1.3-0.22c-0.49,0.23-0.7,0.69-0.47,1.04c0,0,1.7,1.78,2.18,4.48
						c0.17,0.95,1.61,0.61,1.43-0.34C293.38,214.12,292.07,212.08,292.06,212.07z"/>
				</g>
			</g>
		</g>
		<g>
			<path class="st5" d="M336.05,397.67l29.22-8.14c9.76-8.08,18.66-17.16,26.55-27.09c-3.78-19.49-5.99-53.28-9.78-71.04
				c-3.79-17.76-22.34-23.38-22.34-23.38c-26.22,0.98-30.69,50.98-20.5,69.75l4.02,43.11L336.05,397.67z"/>
		</g>
		<g>
			<g>
				<path class="st7" d="M260.51,206.27C260.51,206.27,260.51,206.27,260.51,206.27c-0.57,0-1.14-0.03-1.72-0.08
					c-4.83-0.45-9.19-2.76-12.29-6.5c-3.09-3.74-4.55-8.45-4.09-13.28c0.93-9.95,9.64-17.34,19.78-16.38
					c9.97,0.94,17.32,9.81,16.38,19.78C277.68,199.19,269.92,206.27,260.51,206.27z M260.47,171.19c-8.77,0-15.99,6.59-16.82,15.33
					c-0.42,4.5,0.93,8.89,3.81,12.37c2.88,3.48,6.95,5.63,11.44,6.05c9.45,0.88,17.55-5.99,18.42-15.25
					c0.87-9.28-5.97-17.55-15.25-18.42C261.53,171.22,261,171.19,260.47,171.19z"/>
			</g>
			<g>
				<path class="st7" d="M306.83,215.9C306.83,215.9,306.84,215.9,306.83,215.9c-0.68,0-1.37-0.03-2.05-0.1
					c-5.75-0.54-10.95-3.29-14.63-7.74c-3.68-4.45-5.42-10.06-4.87-15.81c1.05-11.17,10.29-19.6,21.5-19.6
					c0.68,0,1.37,0.03,2.05,0.1c11.87,1.12,20.62,11.68,19.5,23.55C327.29,207.47,318.04,215.9,306.83,215.9z M306.78,173.9
					c-10.56,0-19.27,7.94-20.26,18.47c-0.51,5.42,1.12,10.71,4.59,14.9c3.47,4.19,8.37,6.78,13.79,7.29
					c0.64,0.06,1.29,0.09,1.93,0.09c10.56,0,19.27-7.94,20.26-18.47c1.05-11.19-7.2-21.14-18.38-22.19
					C308.07,173.93,307.43,173.9,306.78,173.9z"/>
			</g>
			<g>
				<path class="st7" d="M287.42,186.56c-0.08,0-0.17-0.02-0.25-0.05c-1.44-0.64-2.97-1.04-4.56-1.19c-1.58-0.15-3.17-0.04-4.7,0.32
					c-0.34,0.08-0.67-0.13-0.75-0.46c-0.08-0.33,0.13-0.67,0.46-0.75c1.67-0.39,3.38-0.51,5.11-0.35c1.72,0.16,3.38,0.6,4.95,1.29
					c0.31,0.14,0.45,0.51,0.31,0.82C287.88,186.43,287.65,186.56,287.42,186.56z"/>
			</g>
			<g>
				<path class="st7" d="M291.87,202.39c-0.16,0-0.32-0.09-0.4-0.24c-1.5-2.92-2.13-6.2-1.82-9.48c0.21-2.2,0.82-4.3,1.81-6.24
					c0.11-0.22,0.38-0.31,0.6-0.19c0.22,0.11,0.3,0.38,0.19,0.6c-0.94,1.84-1.52,3.83-1.72,5.92c-0.29,3.12,0.3,6.22,1.73,8.99
					c0.11,0.22,0.03,0.49-0.19,0.6C292.01,202.37,291.94,202.39,291.87,202.39z M292.85,185.38c-0.08,0-0.17-0.02-0.25-0.08
					c-0.21-0.14-0.26-0.41-0.12-0.62c0.33-0.5,0.7-0.99,1.1-1.46c0.16-0.19,0.44-0.21,0.63-0.06c0.19,0.16,0.21,0.44,0.06,0.63
					c-0.38,0.45-0.73,0.92-1.04,1.39C293.13,185.31,292.99,185.38,292.85,185.38z"/>
			</g>
			<g>
				<path class="st7" d="M246.77,191.45c-0.2,0-0.39-0.14-0.43-0.35c-0.08-0.38-0.15-0.76-0.2-1.14c-0.03-0.24,0.14-0.47,0.39-0.5
					c0.24-0.03,0.47,0.14,0.5,0.39c0.05,0.36,0.11,0.72,0.18,1.07c0.05,0.24-0.1,0.48-0.34,0.53
					C246.83,191.45,246.8,191.45,246.77,191.45z M246.47,188.69c-0.24,0-0.44-0.2-0.44-0.44c-0.01-0.5,0.02-1,0.06-1.5
					c0.34-3.67,2.05-7.04,4.82-9.48c0.18-0.16,0.46-0.15,0.63,0.04c0.16,0.19,0.14,0.47-0.04,0.63c-2.59,2.29-4.19,5.45-4.52,8.89
					c-0.04,0.47-0.06,0.94-0.06,1.41C246.91,188.49,246.72,188.69,246.47,188.69C246.47,188.69,246.47,188.69,246.47,188.69z"/>
			</g>
		</g>
		<g>
			<path class="st3" d="M162.35,243.91c0,0,1.8,7.07,1.09,13.43c-3.97,35.83-17.35,44.12-21.4,73.57
				c-1.69,12.34,7.11,29.54,12.25,35.64c5.14,6.1,19.16,2.24,27.86-17.69c8.71-19.93-1.43-70.28,7.2-96.22L162.35,243.91z"/>
		</g>
		<g>
			<path class="st6" d="M162.35,243.91c0,0,1.8,7.07,1.09,13.43c-0.09,0.82-0.19,1.61-0.29,2.4c4.76,3.52,12.37,6,20.64-3.64
				c1.36-1.59,2.16-3.06,2.52-4.44L162.35,243.91z"/>
		</g>
		<g>
			<g>
				<path class="st3" d="M137.25,217.25c-2.07,2.32-6.75,7.57-8.27,9.34c-4.04,4.7,1.05,7.91,6.66,4.04c-0.2,0.91-1.3,5.9-1.84,8.26
					c-1.42,6.24,5.88,5.63,7.85-2.89l1.02-4.37l3.79-3.66l8.13,2.38c0.92,11.88,9.74,15.54,9.74,15.54
					c0.01,0.21,0.02,0.42,0.04,0.63c1.34,17.12,32.99,17.9,28.61-11.97c-2.81-19.13-9.69-35.56-12.8-56.03
					c-2.12-14.02-11.91-6.35-11.52,2.01c0.36,7.77,3.2,28.79,3.2,28.79c0.18,1.35-2.33,1.64-3.52,0.46
					c-1.19-1.19-6.35-7.54-9.19-10.42c-2.83-2.88-8.13,0.05-8.13,0.05l-7.45,4.07c0,0-7.32,4.2-10.63,6.07
					C126.69,213.08,130.16,218.26,137.25,217.25z"/>
			</g>
			<g>
				<path class="st8" d="M164.35,246.33c-0.01,0-0.02,0-0.03,0c-0.25-0.02-0.43-0.23-0.41-0.47c0-0.06,0.44-5.57,5.73-7.11
					c-1.04-3.2-1.22-6.43-0.48-9.45c0.83-3.42,2.84-6.31,5.36-7.73c1.95-1.1,3.56-1.38,4.81-0.83c1.41,0.62,1.77,2.06,1.79,2.12
					c0.19,7.88,6.24,14.73,6.3,14.8c0.16,0.18,0.15,0.47-0.04,0.63c-0.18,0.16-0.46,0.15-0.63-0.03c-0.26-0.29-6.32-7.16-6.51-15.27
					l0,0c-0.01,0-0.3-1.01-1.27-1.43c-0.96-0.41-2.34-0.14-4,0.79c-2.31,1.3-4.15,3.98-4.93,7.16c-1.1,4.5-0.04,9.53,2.98,14.14
					c0.13,0.21,0.08,0.48-0.13,0.62c-0.2,0.13-0.48,0.08-0.62-0.13c-0.97-1.48-1.75-3.01-2.32-4.55c-4.73,1.34-5.12,6.12-5.14,6.33
					C164.77,246.15,164.57,246.33,164.35,246.33z M135.65,231.07c-0.12,0-0.24-0.05-0.33-0.14c-0.17-0.18-0.15-0.46,0.03-0.63
					c0.02-0.02,1.91-1.75,3.7-3.73c1.79-1.97,6.59-6.82,6.77-7l2.97-3.19c0.17-0.18,0.45-0.19,0.63-0.02
					c0.18,0.17,0.19,0.45,0.02,0.63l-2.5,2.69l10.61,3.53c0.98-1.31,2.25-2.75,3.88-4.28l-8.16-8.86
					c-1.67,0.92-9.69,5.34-11.49,6.32c-2.07,1.13-4.4,1.31-4.5,1.31c-0.24,0.01-0.46-0.17-0.48-0.41c-0.02-0.25,0.17-0.46,0.41-0.48
					c0.02,0,2.24-0.17,4.13-1.21c2.01-1.1,11.79-6.49,11.79-6.49c0.18-0.1,0.4-0.06,0.54,0.09l8.4,9.12
					c2.43-2.18,5.6-4.53,9.74-6.92c0.22-0.12,0.49-0.05,0.61,0.16c0.12,0.21,0.05,0.49-0.16,0.61
					c-16.25,9.37-17.23,18.12-17.24,18.21c-0.02,0.25-0.23,0.43-0.48,0.4c-0.25-0.02-0.42-0.24-0.4-0.48
					c0.02-0.19,0.29-2.67,2.85-6.34l-10.74-3.57c-0.93,0.94-4.96,5.03-6.56,6.78c-1.82,2-3.74,3.77-3.76,3.78
					C135.86,231.03,135.76,231.07,135.65,231.07z M146.46,228.41c-0.11,0-0.22-0.04-0.31-0.13c-0.18-0.17-0.18-0.45-0.01-0.63
					l1.6-1.65c0.17-0.18,0.45-0.18,0.63-0.01c0.18,0.17,0.18,0.45,0.01,0.63l-1.59,1.65C146.7,228.37,146.58,228.41,146.46,228.41z"
					/>
			</g>
		</g>
		<g>
			<path class="st3" d="M381.79,374.02c-3.35-2.06-7.58-3.48-12.66-3.78c-16.66-0.98-47.7,30.07-68.45,31.61l2.21,21.26
				C333.39,413.81,360.48,396.66,381.79,374.02z"/>
		</g>
		<g>
			<path class="st4" d="M115.31,317.8h174.65c1.87,0,3.7,1.53,4.08,3.4l19.55,98.28c-19.06,7.16-39.65,11.18-61.15,11.47v0.01
				H137.82c-1.87,0-3.7-1.53-4.08-3.4L112.58,321.2C112.21,319.33,113.44,317.8,115.31,317.8z"/>
		</g>
		<g>
			<path class="st5" d="M289.27,321.2l19.2,96.53l0.67,3.36c1.49-0.51,2.97-1.05,4.44-1.6l-19.55-98.28
				c-0.37-1.87-2.21-3.4-4.08-3.4h-4.76C287.06,317.8,288.9,319.33,289.27,321.2z"/>
		</g>
		<g>
			<g>
				<g>
					<path class="st9" d="M115.31,317.8h15.75l102.58,113.17h-23.68L113.18,324.2l-0.6-3C112.21,319.33,113.44,317.8,115.31,317.8z"
						/>
				</g>
				<g>
					<path class="st9" d="M147.2,317.8h49.5l97.62,107.7c-13.43,3.38-27.45,5.26-41.88,5.45v0.01h-2.66L147.2,317.8z"/>
				</g>
			</g>
			<g>
				<path class="st4" d="M206.18,348.17c13.02,0,25.51,11.74,27.89,26.22c2.38,14.48-6.24,26.22-19.26,26.22
					c-13.02,0-25.51-11.74-27.89-26.22C184.53,359.9,193.16,348.17,206.18,348.17z"/>
			</g>
			<g>
				<g>
					<path class="st0" d="M219.86,392.43L195,384.17c-1.39-0.46-2.15-1.97-1.69-3.36c0.07-0.22,0.17-0.43,0.29-0.61h0l16.26-25.07
						c0.8-1.24,2.45-1.59,3.69-0.78c0.58,0.38,0.97,0.95,1.13,1.57l8.71,33.37c0.37,1.42-0.49,2.88-1.91,3.25
						C220.92,392.66,220.36,392.62,219.86,392.43z"/>
				</g>
				<g>
					<path class="st0" d="M226.86,387.71l-26.03,2.88c-0.85,0.1-1.66-0.16-2.28-0.66c-0.62-0.5-1.05-1.23-1.15-2.08
						c-0.01-0.13-0.02-0.26-0.02-0.4v0v-0.01v0c0-0.12,0.01-0.23,0.02-0.33c0-0.02,0-0.04,0-0.05l4.29-29.57
						c0.12-0.85,0.58-1.57,1.22-2.05l0,0c0.64-0.47,1.46-0.71,2.31-0.58c0.39,0.06,0.76,0.19,1.09,0.37
						c0.34,0.19,0.64,0.45,0.88,0.74l0.01,0.01l21.83,26.63c0.02,0.02,0.04,0.04,0.05,0.06c0.53,0.66,0.74,1.47,0.66,2.25
						c-0.08,0.79-0.46,1.55-1.12,2.09c-0.01,0.01-0.03,0.02-0.04,0.03c-0.25,0.2-0.52,0.35-0.8,0.46
						C227.48,387.62,227.17,387.69,226.86,387.71L226.86,387.71z M200.73,389.71l26.03-2.88l0.02,0c0.23-0.01,0.45-0.06,0.67-0.15
						c0.2-0.08,0.39-0.19,0.57-0.33l0.02-0.02c0.48-0.39,0.75-0.93,0.81-1.49c0.06-0.56-0.1-1.15-0.49-1.63l-21.85-26.66l-0.01-0.01
						c-0.17-0.21-0.38-0.39-0.63-0.53c-0.23-0.13-0.49-0.22-0.77-0.26c-0.61-0.09-1.19,0.08-1.65,0.42h0l0,0
						c-0.46,0.34-0.78,0.85-0.87,1.46l-4.29,29.53l0,0.05c-0.02,0.09-0.02,0.19-0.03,0.27v0.01v0c0,0.09,0,0.18,0.02,0.29
						c0.07,0.61,0.38,1.13,0.82,1.48C199.55,389.59,200.13,389.78,200.73,389.71z"/>
				</g>
			</g>
		</g>
		<g>
			<path class="st7" d="M126.36,390.88c-0.21,0-0.39-0.15-0.44-0.36l-13.77-69.24c-0.21-1.05,0.02-2.04,0.63-2.79
				c0.6-0.73,1.5-1.14,2.53-1.14h87.45c0.25,0,0.44,0.2,0.44,0.45s-0.2,0.45-0.44,0.45h-87.45c-0.76,0-1.41,0.29-1.84,0.81
				c-0.45,0.54-0.6,1.27-0.45,2.05l13.77,69.24c0.05,0.24-0.11,0.48-0.35,0.53C126.41,390.88,126.38,390.88,126.36,390.88z
				 M283.67,248.17c-0.02,0-0.04,0-0.06,0c-18.26-2.47-37.02-18.58-37.76-48.99l-0.02-0.73c-0.01-0.25,0.19-0.45,0.43-0.46
				c0.26-0.03,0.45,0.19,0.45,0.43l0.02,0.73c0.73,29.89,19.1,45.71,36.99,48.13c0.24,0.03,0.42,0.26,0.38,0.5
				C284.08,248.01,283.89,248.17,283.67,248.17z M245.25,179.74c-0.06,0-0.12-0.01-0.18-0.04c-8.76-3.79-11.77-13.59-8.06-26.21
				c6.5-22.07,33.67-49.64,67.79-43.98c9.13,1.51,17.26,4.88,23.5,9.75c0.19,0.15,0.23,0.43,0.08,0.63
				c-0.15,0.19-0.43,0.23-0.63,0.08c-6.13-4.77-14.11-8.08-23.1-9.57c-33.61-5.58-60.39,21.59-66.79,43.35
				c-3.58,12.14-0.75,21.54,7.56,25.14c0.23,0.1,0.33,0.36,0.23,0.59C245.58,179.64,245.42,179.74,245.25,179.74z"/>
		</g>
	</g>
	<g class="st10">
		<path class="st0" d="M59.76,124.74h151.15c4.05,0,7.36,3.31,7.36,7.36v106.09c0,4.05-3.31,7.36-7.36,7.36H59.76
			c-4.05,0-7.37-3.31-7.37-7.36V132.1C52.4,128.06,55.71,124.74,59.76,124.74z"/>
	</g>
	<g>
		<path class="st1" d="M69.28,246.45h-9.51c-4.55,0-8.26-3.7-8.26-8.25V132.1c0-4.55,3.7-8.25,8.26-8.25h57.8
			c0.49,0,0.89,0.4,0.89,0.89c0,0.49-0.4,0.89-0.89,0.89h-57.8c-3.57,0-6.47,2.9-6.47,6.47v106.09c0,3.57,2.9,6.47,6.47,6.47h9.51
			c0.49,0,0.89,0.4,0.89,0.89C70.17,246.05,69.77,246.45,69.28,246.45z"/>
	</g>
	<g>
		<g>
			<path class="st0" d="M170.9,181.9c2.23,0,4.06-1.82,4.06-4.06c0-2.23-1.82-4.05-4.06-4.05c-2.23,0-4.06,1.82-4.06,4.05
				C166.84,180.08,168.66,181.9,170.9,181.9z"/>
		</g>
		<g>
			<path class="st7" d="M170.9,193.26c-8.5,0-15.41-6.91-15.41-15.41c0-8.5,6.92-15.41,15.41-15.41c8.5,0,15.41,6.91,15.41,15.41
				C186.31,186.34,179.39,193.26,170.9,193.26z M170.9,164.21c-7.52,0-13.63,6.12-13.63,13.63c0,7.52,6.11,13.63,13.63,13.63
				c7.52,0,13.63-6.11,13.63-13.63C184.53,170.33,178.41,164.21,170.9,164.21z"/>
		</g>
		<g>
			<path class="st11" d="M167.14,192.77c-0.08,0-0.15-0.01-0.23-0.03c-8.21-2.2-13.1-10.67-10.9-18.88
				c0.13-0.48,0.61-0.76,1.09-0.63c0.48,0.13,0.76,0.62,0.63,1.09c-1.95,7.26,2.38,14.75,9.64,16.7c0.48,0.13,0.76,0.62,0.63,1.09
				C167.89,192.5,167.53,192.77,167.14,192.77z M184.92,182.5c-0.08,0-0.15-0.01-0.23-0.03c-0.48-0.13-0.76-0.62-0.63-1.09
				c1.94-7.26-2.38-14.75-9.64-16.7c-0.47-0.13-0.76-0.62-0.63-1.09c0.13-0.48,0.61-0.76,1.09-0.63c8.21,2.2,13.1,10.67,10.9,18.88
				C185.68,182.23,185.32,182.5,184.92,182.5z"/>
		</g>
		<g>
			<path class="st7" d="M170.9,198.81c-11.56,0-20.97-9.41-20.97-20.97c0-11.56,9.41-20.97,20.97-20.97
				c11.56,0,20.97,9.41,20.97,20.97C191.87,189.41,182.46,198.81,170.9,198.81z M170.9,158.66c-10.58,0-19.19,8.61-19.19,19.19
				c0,10.58,8.61,19.19,19.19,19.19c10.58,0,19.19-8.61,19.19-19.19C190.08,167.27,181.48,158.66,170.9,158.66z"/>
		</g>
		<g>
			<path class="st12" d="M167.62,198.55c-0.05,0-0.1,0-0.15-0.01c-0.67-0.11-1.34-0.26-2-0.43c-0.48-0.13-0.76-0.62-0.63-1.09
				c0.13-0.48,0.61-0.76,1.09-0.63c0.6,0.16,1.22,0.29,1.83,0.4c0.48,0.08,0.81,0.54,0.73,1.03
				C168.42,198.24,168.04,198.55,167.62,198.55z M185.61,192.41c-0.22,0-0.43-0.08-0.61-0.24c-0.36-0.33-0.38-0.9-0.04-1.26
				c2.12-2.28,3.66-5.08,4.47-8.1c0.13-0.48,0.61-0.76,1.09-0.63c0.47,0.13,0.76,0.62,0.63,1.09c-0.88,3.3-2.58,6.36-4.89,8.85
				C186.09,192.31,185.85,192.41,185.61,192.41z M151.5,173.54c-0.08,0-0.16-0.01-0.23-0.03c-0.48-0.13-0.76-0.62-0.63-1.09
				c1.77-6.59,6.65-11.92,13.06-14.27c0.46-0.17,0.97,0.07,1.14,0.53c0.17,0.46-0.07,0.97-0.53,1.14
				c-5.87,2.15-10.34,7.03-11.96,13.06C152.25,173.28,151.89,173.54,151.5,173.54z M176.09,159.34c-0.08,0-0.15-0.01-0.23-0.03
				c-2.25-0.6-4.56-0.79-6.86-0.56c-0.49,0.05-0.93-0.31-0.97-0.8c-0.05-0.49,0.31-0.93,0.8-0.97c2.51-0.25,5.04-0.04,7.5,0.62
				c0.47,0.13,0.76,0.62,0.63,1.09C176.85,159.08,176.49,159.34,176.09,159.34z"/>
		</g>
	</g>
	<g>
		<path class="st7" d="M210.92,246.45H69.28c-0.49,0-0.89-0.4-0.89-0.89c0-0.49,0.4-0.89,0.89-0.89h141.64
			c3.57,0,6.47-2.9,6.47-6.47V132.1c0-3.57-2.9-6.47-6.47-6.47h-93.36c-0.49,0-0.89-0.4-0.89-0.89c0-0.49,0.4-0.89,0.89-0.89h93.36
			c4.55,0,8.25,3.7,8.25,8.25v106.09C219.17,242.75,215.47,246.45,210.92,246.45z"/>
	</g>
	<g>
		<g>
			<g>
				<polygon class="st0" points="80.85,211.12 97.33,204.6 80.85,198.09 64.37,204.6 				"/>
				<path class="st11" d="M80.85,212.01c-0.11,0-0.22-0.02-0.33-0.06l-16.48-6.52c-0.34-0.13-0.56-0.46-0.56-0.83
					c0-0.37,0.22-0.69,0.56-0.83l16.48-6.52c0.21-0.08,0.44-0.08,0.66,0l16.48,6.52c0.34,0.14,0.56,0.46,0.56,0.83
					c0,0.37-0.22,0.7-0.56,0.83l-16.48,6.52C81.08,211.99,80.96,212.01,80.85,212.01z M66.79,204.6l14.06,5.56l14.06-5.56
					l-14.06-5.56L66.79,204.6z"/>
			</g>
			<g>
				<polygon class="st3" points="64.37,204.6 80.85,198.09 80.85,175.88 64.37,182.39 				"/>
				<path class="st11" d="M64.37,205.49c-0.18,0-0.35-0.05-0.5-0.15c-0.24-0.17-0.39-0.44-0.39-0.74v-22.21
					c0-0.37,0.22-0.69,0.56-0.83l16.48-6.52c0.28-0.11,0.58-0.07,0.83,0.09c0.25,0.17,0.39,0.44,0.39,0.74v22.21
					c0,0.37-0.22,0.69-0.56,0.83l-16.48,6.52C64.59,205.47,64.48,205.49,64.37,205.49z M65.26,183v20.29l14.7-5.81v-20.29L65.26,183
					z"/>
			</g>
			<g>
				<polygon class="st2" points="97.33,204.6 80.85,198.09 80.85,175.88 97.33,182.39 				"/>
				<path class="st11" d="M97.33,205.49c-0.11,0-0.22-0.02-0.33-0.06l-16.48-6.52c-0.34-0.13-0.56-0.46-0.56-0.83v-22.21
					c0-0.29,0.15-0.57,0.39-0.74c0.24-0.17,0.55-0.2,0.83-0.09l16.48,6.52c0.34,0.13,0.56,0.46,0.56,0.83v22.21
					c0,0.3-0.15,0.57-0.39,0.74C97.69,205.44,97.51,205.49,97.33,205.49z M81.74,197.48l14.7,5.81V183l-14.7-5.81V197.48z"/>
			</g>
		</g>
		<g>
			<g>
				<polygon class="st2" points="117.95,177.63 134.43,171.12 117.95,164.6 101.47,171.12 				"/>
				<path class="st11" d="M117.95,178.52c-0.11,0-0.22-0.02-0.33-0.06l-16.48-6.52c-0.34-0.13-0.56-0.46-0.56-0.83
					c0-0.37,0.22-0.69,0.56-0.83l16.48-6.52c0.21-0.08,0.45-0.08,0.65,0l16.48,6.52c0.34,0.13,0.56,0.46,0.56,0.83
					c0,0.37-0.22,0.69-0.56,0.83l-16.48,6.52C118.17,178.5,118.06,178.52,117.95,178.52z M103.89,171.12l14.06,5.56l14.06-5.56
					l-14.06-5.56L103.89,171.12z"/>
			</g>
			<g>
				<polygon class="st0" points="101.47,171.12 117.95,164.6 117.95,142.39 101.47,148.91 				"/>
				<path class="st11" d="M101.47,172.01c-0.18,0-0.35-0.05-0.5-0.15c-0.24-0.17-0.39-0.44-0.39-0.74v-22.21
					c0-0.37,0.22-0.69,0.56-0.83l16.48-6.52c0.28-0.11,0.58-0.07,0.83,0.09c0.24,0.17,0.39,0.44,0.39,0.74v22.21
					c0,0.37-0.22,0.7-0.56,0.83l-16.48,6.52C101.69,171.99,101.58,172.01,101.47,172.01z M102.36,149.52v20.29l14.7-5.81V143.7
					L102.36,149.52z"/>
			</g>
			<g>
				<polygon class="st3" points="134.43,171.12 117.95,164.6 117.95,142.39 134.43,148.91 				"/>
				<path class="st11" d="M134.43,172.01c-0.11,0-0.22-0.02-0.33-0.06l-16.48-6.52c-0.34-0.13-0.56-0.46-0.56-0.83v-22.21
					c0-0.29,0.15-0.57,0.39-0.74c0.25-0.17,0.55-0.2,0.83-0.09l16.48,6.52c0.34,0.13,0.56,0.46,0.56,0.83v22.21
					c0,0.3-0.14,0.57-0.39,0.74C134.78,171.96,134.6,172.01,134.43,172.01z M118.84,163.99l14.7,5.81v-20.29l-14.7-5.81V163.99z"/>
			</g>
		</g>
		<g>
			<path class="st11" d="M112.53,220.88H86.27c-3.45,0-6.09-2.59-6.15-6.03l-0.16-10.23c-0.01-0.49,0.38-0.9,0.88-0.9
				c0.01,0,0.01,0,0.01,0c0.49,0,0.88,0.39,0.89,0.88l0.16,10.23c0.04,2.48,1.88,4.28,4.37,4.28h26.26c2.5,0,4.53-2.03,4.53-4.53
				v-43.45c0-0.49,0.4-0.89,0.89-0.89c0.49,0,0.89,0.4,0.89,0.89v43.45C118.84,218.05,116.01,220.88,112.53,220.88z M80.94,178.2
				C80.94,178.2,80.94,178.2,80.94,178.2c-0.5,0-0.89-0.4-0.89-0.89l0.07-13.75c0.02-3.62,2.78-6.57,6.15-6.57h15.2
				c0.49,0,0.89,0.4,0.89,0.89s-0.4,0.89-0.89,0.89h-15.2c-2.35,0-4.35,2.2-4.37,4.79l-0.07,13.75
				C81.83,177.8,81.43,178.2,80.94,178.2z"/>
		</g>
		<g>
			<path class="st3" d="M80.85,206.74c1.18,0,2.13-0.96,2.13-2.13c0-1.18-0.96-2.13-2.13-2.13c-1.18,0-2.13,0.96-2.13,2.13
				C78.72,205.78,79.68,206.74,80.85,206.74z"/>
			<path class="st11" d="M80.85,207.63c-1.67,0-3.03-1.36-3.03-3.03c0-1.67,1.36-3.02,3.03-3.02c1.67,0,3.03,1.36,3.03,3.02
				C83.88,206.27,82.52,207.63,80.85,207.63z M80.85,203.36c-0.69,0-1.25,0.56-1.25,1.24c0,0.69,0.56,1.24,1.25,1.24
				c0.68,0,1.24-0.56,1.24-1.24C82.1,203.92,81.54,203.36,80.85,203.36z"/>
		</g>
		<g>
			<path class="st3" d="M117.95,173.25c1.18,0,2.13-0.96,2.13-2.14c0-1.17-0.96-2.13-2.13-2.13c-1.18,0-2.13,0.96-2.13,2.13
				C115.81,172.29,116.77,173.25,117.95,173.25z"/>
			<path class="st11" d="M117.95,174.14c-1.67,0-3.03-1.36-3.03-3.03c0-1.67,1.36-3.03,3.03-3.03c1.67,0,3.03,1.36,3.03,3.03
				C120.97,172.79,119.62,174.14,117.95,174.14z M117.95,169.87c-0.69,0-1.24,0.56-1.24,1.24c0,0.69,0.56,1.25,1.24,1.25
				c0.68,0,1.24-0.56,1.24-1.25C119.19,170.43,118.63,169.87,117.95,169.87z"/>
		</g>
	</g>
	<g>
		<path class="st11" d="M145.5,157C145.5,157,145.5,157,145.5,157c-0.5,0-0.89-0.4-0.89-0.9l0.07-13.75
			c0.02-3.62,2.77-6.57,6.15-6.57h15.2c0.49,0,0.89,0.4,0.89,0.89s-0.4,0.89-0.89,0.89h-15.2c-2.35,0-4.35,2.19-4.36,4.79
			l-0.07,13.75C146.39,156.61,145.99,157,145.5,157z"/>
	</g>
	<g>
		<path class="st11" d="M203.67,238.84c-0.49,0-0.89-0.4-0.89-0.89c0-0.49,0.4-0.89,0.89-0.89c2.36,0,4.36-2.19,4.37-4.79
			l0.07-81.28c0-0.49,0.4-0.89,0.89-0.89l0,0c0.49,0,0.89,0.4,0.89,0.89l-0.07,81.28C209.82,235.89,207.06,238.84,203.67,238.84z"/>
	</g>
	<g>
		<path class="st3" d="M145.5,157.68c0.86,0,1.57-0.7,1.57-1.57c0-0.86-0.71-1.57-1.57-1.57c-0.86,0-1.57,0.7-1.57,1.57
			C143.93,156.98,144.64,157.68,145.5,157.68z"/>
		<path class="st11" d="M145.5,158.57c-1.35,0-2.46-1.1-2.46-2.46c0-1.36,1.1-2.46,2.46-2.46s2.46,1.1,2.46,2.46
			C147.96,157.47,146.85,158.57,145.5,158.57z M145.5,155.44c-0.37,0-0.67,0.3-0.67,0.68c0,0.37,0.3,0.68,0.67,0.68
			c0.37,0,0.68-0.3,0.68-0.68C146.18,155.74,145.87,155.44,145.5,155.44z"/>
	</g>
	<g>
		<path class="st3" d="M166.02,138.24c0.86,0,1.57-0.7,1.57-1.57c0-0.86-0.71-1.57-1.57-1.57c-0.86,0-1.57,0.7-1.57,1.57
			C164.46,137.54,165.16,138.24,166.02,138.24z"/>
		<path class="st11" d="M166.02,139.14c-1.36,0-2.46-1.1-2.46-2.46c0-1.35,1.1-2.46,2.46-2.46c1.36,0,2.46,1.1,2.46,2.46
			C168.48,138.03,167.38,139.14,166.02,139.14z M166.02,136c-0.37,0-0.67,0.3-0.67,0.68c0,0.37,0.3,0.68,0.67,0.68
			c0.37,0,0.68-0.3,0.68-0.68C166.7,136.31,166.4,136,166.02,136z"/>
	</g>
	<g>
		<path class="st3" d="M209,152.56c0.86,0,1.57-0.7,1.57-1.57c0-0.86-0.7-1.57-1.57-1.57c-0.86,0-1.57,0.7-1.57,1.57
			C207.44,151.85,208.14,152.56,209,152.56z"/>
		<path class="st11" d="M209,153.45c-1.35,0-2.46-1.1-2.46-2.46c0-1.35,1.1-2.46,2.46-2.46c1.36,0,2.46,1.1,2.46,2.46
			C211.46,152.35,210.36,153.45,209,153.45z M209,150.31c-0.37,0-0.68,0.3-0.68,0.68c0,0.37,0.3,0.68,0.68,0.68
			c0.37,0,0.68-0.3,0.68-0.68C209.68,150.62,209.38,150.31,209,150.31z"/>
	</g>
	<g>
		<path class="st3" d="M203.67,239.51c0.86,0,1.57-0.7,1.57-1.57c0-0.86-0.71-1.57-1.57-1.57c-0.86,0-1.57,0.7-1.57,1.57
			C202.11,238.81,202.81,239.51,203.67,239.51z"/>
		<path class="st11" d="M203.67,240.4c-1.35,0-2.46-1.1-2.46-2.46c0-1.36,1.1-2.46,2.46-2.46c1.35,0,2.46,1.1,2.46,2.46
			C206.13,239.3,205.03,240.4,203.67,240.4z M203.67,237.27c-0.37,0-0.68,0.3-0.68,0.68c0,0.37,0.3,0.67,0.68,0.67
			c0.37,0,0.68-0.3,0.68-0.67C204.35,237.57,204.05,237.27,203.67,237.27z"/>
	</g>
	<g>
		<path class="st4" d="M403.37,250.6c21.85,0,39.67-17.82,39.67-39.67s-17.82-39.67-39.67-39.67c-21.85,0-39.67,17.82-39.67,39.67
			S381.52,250.6,403.37,250.6z"/>
		<path class="st7" d="M403.37,251.49c-22.37,0-40.56-18.2-40.56-40.56c0-22.37,18.19-40.56,40.56-40.56
			c22.37,0,40.56,18.2,40.56,40.56C443.94,233.3,425.74,251.49,403.37,251.49z M403.37,172.15c-21.38,0-38.78,17.4-38.78,38.78
			c0,21.38,17.4,38.78,38.78,38.78c21.38,0,38.78-17.4,38.78-38.78C442.15,189.55,424.76,172.15,403.37,172.15z"/>
	</g>
	<g>
		<g>
			<path class="st13" d="M403.37,244.5c-8.61,0-17.17-3.34-23.69-9.87c-6.33-6.33-9.82-14.75-9.82-23.7c0-8.95,3.49-17.37,9.82-23.7
				c0.17-0.17,0.46-0.17,0.63,0c0.18,0.17,0.18,0.46,0,0.63c-6.16,6.16-9.55,14.35-9.55,23.07c0,8.71,3.39,16.91,9.55,23.07
				c11.37,11.37,29.07,12.81,42.1,3.43c0.2-0.14,0.48-0.1,0.62,0.1c0.14,0.2,0.1,0.48-0.1,0.62
				C417.01,242.41,410.17,244.5,403.37,244.5z M426.76,234.76c-0.12,0-0.23-0.04-0.32-0.13c-0.17-0.17-0.17-0.46,0-0.63
				c6.16-6.16,9.56-14.36,9.56-23.07c0-8.71-3.39-16.91-9.56-23.07c-11.37-11.36-29.07-12.81-42.1-3.44c-0.2,0.14-0.48,0.1-0.62-0.1
				c-0.14-0.2-0.1-0.48,0.1-0.62c13.38-9.63,31.57-8.15,43.25,3.53c6.33,6.33,9.82,14.75,9.82,23.7c0,8.95-3.49,17.37-9.82,23.7
				C426.98,234.72,426.87,234.76,426.76,234.76z"/>
		</g>
		<g>
			<path class="st9" d="M428.09,235.65c-0.74,0.73-1.93,0.73-2.67,0c-0.74-0.74-0.74-1.93,0-2.67c0.74-0.74,1.93-0.74,2.67,0
				C428.82,233.72,428.82,234.91,428.09,235.65z"/>
		</g>
		<g>
			<path class="st9" d="M381.32,188.88c-0.73,0.74-1.93,0.74-2.66,0c-0.73-0.74-0.73-1.93,0-2.66c0.74-0.74,1.93-0.74,2.66,0
				C382.06,186.95,382.06,188.15,381.32,188.88z"/>
		</g>
	</g>
	<g class="st10">
		<path class="st0" d="M96.4,272.57h70.97c1.1,0,2,0.9,2,2v28.82c0,1.1-0.9,2-2,2H96.4c-1.1,0-2-0.9-2-2v-28.82
			C94.4,273.47,95.3,272.57,96.4,272.57z"/>
	</g>
	<g>
		<path class="st7" d="M167.37,306.28H96.4c-1.59,0-2.89-1.3-2.89-2.89v-28.82c0-1.59,1.3-2.89,2.89-2.89h70.97
			c1.59,0,2.89,1.3,2.89,2.89v28.82C170.26,304.98,168.96,306.28,167.37,306.28z M96.4,273.46c-0.61,0-1.11,0.5-1.11,1.11v28.82
			c0,0.61,0.5,1.11,1.11,1.11h70.97c0.61,0,1.11-0.5,1.11-1.11v-28.82c0-0.61-0.5-1.11-1.11-1.11H96.4z"/>
	</g>
	<g>
		<g>
			<path class="st11" d="M100.72,294C100.72,294,100.72,294,100.72,294c-0.5,0-0.89-0.4-0.89-0.9l0.05-10.58
				c0.01-2.9,2.23-5.25,4.93-5.25h11.69c0.49,0,0.89,0.4,0.89,0.89c0,0.49-0.4,0.89-0.89,0.89h-11.69c-1.7,0-3.14,1.59-3.15,3.48
				l-0.05,10.58C101.61,293.6,101.21,294,100.72,294z"/>
		</g>
		<g>
			<path class="st11" d="M158.95,300.69h-11.69c-0.49,0-0.89-0.4-0.89-0.89s0.4-0.89,0.89-0.89h11.69c1.7,0,3.14-1.59,3.15-3.48
				l0.06-10.58c0-0.49,0.4-0.89,0.89-0.89c0,0,0,0,0,0c0.49,0,0.89,0.4,0.89,0.9l-0.06,10.58
				C163.87,298.33,161.66,300.69,158.95,300.69z"/>
		</g>
	</g>
	<g>
		<g>
			<path class="st7" d="M131.88,295.52c-0.25,0-0.45-0.2-0.45-0.45v-2.97c0-0.25,0.2-0.45,0.45-0.45s0.45,0.2,0.45,0.45v2.97
				C132.33,295.32,132.13,295.52,131.88,295.52z M115.12,295.14c-0.25,0-0.45-0.2-0.45-0.45v-11.43c0-0.25,0.2-0.45,0.45-0.45
				s0.45,0.2,0.45,0.45v11.43C115.57,294.94,115.37,295.14,115.12,295.14z M136.98,293.75c-0.25,0-0.45-0.2-0.45-0.45v-4.24
				c0-0.25,0.2-0.45,0.45-0.45c0.25,0,0.45,0.2,0.45,0.45v4.24C137.43,293.55,137.23,293.75,136.98,293.75z M126.79,293.75
				c-0.25,0-0.45-0.2-0.45-0.45v-1.48c0-0.25,0.2-0.45,0.45-0.45s0.45,0.2,0.45,0.45v1.48
				C127.23,293.55,127.03,293.75,126.79,293.75z M120.22,291.57c-0.25,0-0.45-0.2-0.45-0.45v-4.29c0-0.25,0.2-0.45,0.45-0.45
				c0.25,0,0.45,0.2,0.45,0.45v4.29C120.67,291.37,120.47,291.57,120.22,291.57z M131.88,290.59c-0.25,0-0.45-0.2-0.45-0.45v-7.26
				c0-0.25,0.2-0.45,0.45-0.45s0.45,0.2,0.45,0.45v7.26C132.33,290.39,132.13,290.59,131.88,290.59z M126.79,290.3
				c-0.25,0-0.45-0.2-0.45-0.45v-5.19c0-0.25,0.2-0.45,0.45-0.45s0.45,0.2,0.45,0.45v5.19C127.23,290.1,127.03,290.3,126.79,290.3z
				 M136.98,287.54c-0.25,0-0.45-0.2-0.45-0.45v-2.44c0-0.25,0.2-0.45,0.45-0.45c0.25,0,0.45,0.2,0.45,0.45v2.44
				C137.43,287.34,137.23,287.54,136.98,287.54z"/>
		</g>
		<g>
			<path class="st7" d="M151.2,295.7c0,0-0.01,0-0.01,0h-0.21c-1.33,0-4.4,0.02-9.9-6.31c0,0,0,0,0,0c-5.13-5.9-7.81-5.89-8.95-5.88
				l-0.23,0l-0.23,0c-1.14,0.01-3.82-0.02-8.95,5.88c0,0,0,0,0,0c-5.5,6.33-8.58,6.3-9.9,6.31h-0.21c-0.35,0.04-0.63-0.26-0.64-0.61
				c-0.01-0.35,0.26-0.63,0.61-0.64l0.25,0c1.16,0.02,3.83,0.01,8.95-5.88v0c5.5-6.33,8.58-6.32,9.9-6.31l0.21,0c0,0,0.01,0,0.02,0
				l0,0l0,0c0.01,0,0.01,0,0.02,0l0.21,0c1.33,0,4.4-0.01,9.9,6.31v0c5.13,5.9,7.79,5.88,8.95,5.88l0.25,0
				c0.35,0.01,0.62,0.29,0.61,0.64C151.81,295.43,151.53,295.7,151.2,295.7z"/>
		</g>
		<g>
			<path class="st7" d="M131.88,295.7L131.88,295.7L131.88,295.7c0,0-0.01,0-0.02,0h-0.21c-1.31,0-4.4,0.02-9.9-6.31v0
				c-5.13-5.9-7.82-5.89-8.95-5.88l-0.25,0c-0.34-0.01-0.62-0.29-0.61-0.64c0.01-0.34,0.29-0.66,0.64-0.61l0.21,0
				c1.35,0.01,4.4-0.01,9.9,6.31c0,0,0,0,0,0c5.12,5.9,7.79,5.88,8.95,5.88l0.23,0l0.23,0c1.18,0.01,3.83,0.01,8.95-5.88
				c0,0,0,0,0,0c5.5-6.33,8.59-6.32,9.9-6.31l0.21,0c0.37-0.04,0.63,0.26,0.64,0.61c0.01,0.34-0.26,0.63-0.61,0.64l-0.25,0
				c-1.13,0.01-3.83-0.02-8.95,5.88v0c-5.5,6.33-8.59,6.3-9.9,6.31h-0.21C131.9,295.7,131.89,295.7,131.88,295.7z"/>
		</g>
	</g>
	<g>
		<g>
			<g>
				<polygon class="st0" points="187.82,102.77 183.46,102.77 185.64,106.29 				"/>
				<path class="st7" d="M185.64,106.73c-0.15,0-0.3-0.08-0.38-0.21l-2.18-3.51c-0.09-0.14-0.09-0.31-0.01-0.45
					c0.08-0.14,0.23-0.23,0.39-0.23h4.35c0.16,0,0.31,0.09,0.39,0.23c0.08,0.14,0.08,0.31-0.01,0.45l-2.18,3.51
					C185.94,106.65,185.79,106.73,185.64,106.73z M184.26,103.22l1.38,2.22l1.38-2.22H184.26z"/>
			</g>
			<g>
				<path class="st11" d="M189.82,101.01c0,0-0.01,0-0.02,0h-4.35c-0.16,0-0.31-0.09-0.39-0.23c-0.08-0.14-0.08-0.31,0.01-0.45
					l2.18-3.51c0.16-0.26,0.59-0.26,0.76,0l2.12,3.41c0.09,0.08,0.15,0.2,0.15,0.33C190.26,100.81,190.06,101.01,189.82,101.01z
					 M186.24,100.12H189l-1.38-2.22L186.24,100.12z"/>
			</g>
		</g>
		<g>
			<g>
				<polygon class="st0" points="406.98,283.09 402.63,283.09 404.81,286.6 				"/>
				<path class="st7" d="M404.81,287.04c-0.15,0-0.3-0.08-0.38-0.21l-2.18-3.51c-0.09-0.14-0.09-0.31-0.01-0.45
					c0.08-0.14,0.23-0.23,0.39-0.23h4.35c0.16,0,0.31,0.09,0.39,0.23c0.08,0.14,0.08,0.31-0.01,0.45l-2.18,3.51
					C405.11,286.96,404.96,287.04,404.81,287.04z M403.43,283.53l1.38,2.22l1.38-2.22H403.43z"/>
			</g>
			<g>
				<path class="st11" d="M408.98,281.32c-0.01,0-0.02,0-0.02,0h-4.35c-0.16,0-0.31-0.09-0.39-0.23c-0.08-0.14-0.07-0.31,0.01-0.45
					l2.18-3.51c0.16-0.26,0.59-0.26,0.76,0l2.12,3.41c0.09,0.08,0.15,0.2,0.15,0.33C409.43,281.13,409.23,281.32,408.98,281.32z
					 M405.41,280.43h2.75l-1.38-2.22L405.41,280.43z"/>
			</g>
		</g>
		<g>
			<g>
				<polygon class="st0" points="235.35,236.31 231,236.31 233.17,239.82 				"/>
				<path class="st7" d="M233.17,240.27c-0.15,0-0.3-0.08-0.38-0.21l-2.18-3.51c-0.09-0.14-0.09-0.31-0.01-0.45
					c0.08-0.14,0.23-0.23,0.39-0.23h4.35c0.16,0,0.31,0.09,0.39,0.23c0.08,0.14,0.07,0.31-0.01,0.45l-2.18,3.51
					C233.47,240.19,233.33,240.27,233.17,240.27z M231.79,236.76l1.38,2.22l1.38-2.22H231.79z"/>
			</g>
			<g>
				<path class="st11" d="M237.35,234.55c-0.01,0-0.02,0-0.02,0h-4.35c-0.16,0-0.31-0.09-0.39-0.23c-0.08-0.14-0.07-0.31,0.01-0.45
					l2.18-3.51c0.16-0.26,0.59-0.26,0.76,0l2.12,3.41c0.09,0.08,0.15,0.2,0.15,0.33C237.79,234.35,237.59,234.55,237.35,234.55z
					 M233.77,233.66h2.75l-1.38-2.22L233.77,233.66z"/>
			</g>
		</g>
	</g>
	<g>
		<g>
			<path class="st0" d="M386.44,212.88c-1.05,1.18-3.44,3.86-4.21,4.76c-2.06,2.4,0.53,4.03,3.4,2.06c-0.1,0.46-0.67,3.01-0.94,4.22
				c-0.73,3.18,3,2.87,4-1.48l0.52-2.23l1.93-1.86l4.15,1.21c0.47,6.06,4.97,7.93,4.97,7.93c0,0.11,0.01,0.22,0.02,0.33
				c0.68,8.73,16.82,9.13,14.59-6.11c-1.43-9.76-4.94-18.13-6.53-28.57c-1.08-7.15-6.07-3.24-5.87,1.02
				c0.19,3.96,1.63,14.68,1.63,14.68c0.09,0.69-1.19,0.84-1.79,0.23c-0.61-0.6-3.24-3.84-4.68-5.31c-1.45-1.47-4.15,0.02-4.15,0.02
				l-3.8,2.07c0,0-3.74,2.14-5.42,3.09C381.05,210.75,382.82,213.4,386.44,212.88z"/>
			<path class="st8" d="M407.25,234.32c-3.44,0-7.09-2.22-7.43-6.47c0-0.02,0-0.05,0-0.07c-0.99-0.5-4.43-2.62-4.96-7.87l-3.61-1.05
				l-1.65,1.59l-0.49,2.1c-0.6,2.59-2.17,3.95-3.42,3.95c-0.47,0-0.89-0.19-1.17-0.55c-0.27-0.34-0.54-0.99-0.28-2.12
				c0.18-0.82,0.5-2.25,0.72-3.23c-1.61,0.75-3.29,0.45-3.78-0.63c-0.2-0.44-0.38-1.36,0.7-2.61c0.63-0.73,2.32-2.64,3.5-3.96
				c-1.66-0.04-2.91-0.77-3.2-1.87c-0.13-0.5-0.22-1.8,1.83-2.96c1.69-0.95,5.42-3.09,5.42-3.09l3.81-2.08
				c0.05-0.03,1.33-0.73,2.66-0.73c0.83,0,1.51,0.26,2.02,0.78c0.87,0.88,2.15,2.38,3.18,3.59c0.68,0.8,1.27,1.49,1.5,1.72
				c0.15,0.15,0.41,0.25,0.67,0.25c0.23,0,0.35-0.08,0.37-0.1c-0.02-0.11-1.45-10.79-1.64-14.73c-0.07-1.6,0.53-3.28,1.59-4.39
				c0.65-0.68,1.41-1.06,2.13-1.06c0.89,0,2.47,0.56,3.04,4.33c0.79,5.23,2.08,9.99,3.34,14.59c1.27,4.69,2.47,9.11,3.19,13.98
				c0.79,5.35-0.7,8.38-2.09,9.98C411.73,233.33,409.56,234.32,407.25,234.32z M391.14,217.9c0.04,0,0.08,0.01,0.13,0.02l4.15,1.21
				c0.18,0.05,0.31,0.21,0.32,0.39c0.44,5.7,4.53,7.48,4.7,7.55c0.16,0.07,0.27,0.22,0.27,0.4c0,0.1,0.01,0.2,0.02,0.3
				c0.29,3.71,3.51,5.65,6.54,5.65c2.08,0,3.96-0.85,5.28-2.38c1.26-1.46,2.62-4.26,1.88-9.27c-0.71-4.82-1.9-9.22-3.17-13.88
				c-1.26-4.63-2.56-9.41-3.35-14.69c-0.35-2.27-1.13-3.58-2.16-3.58c-0.48,0-1.01,0.28-1.49,0.78c-0.88,0.92-1.41,2.38-1.34,3.73
				c0.18,3.9,1.61,14.54,1.63,14.64c0.04,0.26-0.04,0.52-0.21,0.71c-0.48,0.55-1.74,0.49-2.34-0.11c-0.26-0.26-0.83-0.93-1.55-1.77
				c-1.02-1.19-2.29-2.68-3.14-3.54c-0.33-0.34-0.8-0.51-1.38-0.51c-1.1,0-2.22,0.61-2.24,0.62l-3.8,2.07l0,0
				c0,0-3.73,2.14-5.42,3.09c-1.05,0.59-1.58,1.32-1.41,1.96c0.16,0.6,0.99,1.21,2.49,1.21l0,0c0.26,0,0.54-0.02,0.83-0.06
				c0.18-0.03,0.37,0.06,0.45,0.23c0.09,0.17,0.06,0.37-0.06,0.51c-1.05,1.18-3.44,3.86-4.21,4.75c-0.55,0.64-0.75,1.24-0.56,1.66
				c0.34,0.75,1.99,0.69,3.37-0.26c0.15-0.1,0.35-0.11,0.5,0c0.15,0.1,0.23,0.29,0.19,0.47c-0.13,0.59-0.67,3.04-0.94,4.22
				c-0.14,0.61-0.1,1.11,0.11,1.37c0.11,0.14,0.27,0.21,0.47,0.21c0.7,0,2-0.88,2.55-3.26l0.52-2.23c0.02-0.08,0.06-0.16,0.12-0.22
				l1.93-1.86C390.91,217.94,391.02,217.9,391.14,217.9z"/>
		</g>
		<g>
			<path class="st8" d="M400.25,227.93c-0.01,0-0.02,0-0.03,0c-0.25-0.02-0.43-0.23-0.42-0.47c0.07-1.02,0.77-3.02,2.87-3.75
				c-0.48-1.6-0.55-3.21-0.19-4.73c0.44-1.8,1.5-3.33,2.84-4.08c1.06-0.59,1.95-0.74,2.65-0.43c0.82,0.36,1.03,1.2,1.04,1.23
				c0.1,3.99,3.13,7.42,3.16,7.45c0.16,0.18,0.15,0.46-0.04,0.63c-0.18,0.16-0.46,0.15-0.63-0.03c-0.13-0.15-3.28-3.71-3.37-7.92
				l0,0c-0.01,0-0.14-0.38-0.52-0.54c-0.42-0.18-1.06-0.04-1.84,0.4c-1.13,0.63-2.03,1.95-2.41,3.51c-0.54,2.24-0.02,4.74,1.49,7.04
				c0.14,0.21,0.08,0.48-0.13,0.62c-0.2,0.13-0.48,0.08-0.62-0.13c-0.46-0.71-0.84-1.44-1.13-2.17c-2.09,0.72-2.27,2.95-2.27,2.97
				C400.68,227.75,400.49,227.93,400.25,227.93z M385.62,220.15c-0.12,0-0.24-0.05-0.33-0.14c-0.17-0.18-0.15-0.46,0.03-0.63
				c0.01-0.01,0.97-0.89,1.87-1.89c0.92-1.01,3.3-3.41,3.46-3.57l1.51-1.63c0.17-0.18,0.45-0.19,0.63-0.02
				c0.18,0.17,0.19,0.45,0.02,0.63l-1.04,1.12l4.95,1.65c0.46-0.6,1.03-1.25,1.75-1.93l-3.9-4.24c-1.1,0.61-4.84,2.67-5.71,3.14
				c-1.1,0.6-2.33,0.69-2.39,0.7c-0.24,0-0.46-0.17-0.47-0.41s0.17-0.46,0.41-0.48c0.01,0,1.1-0.09,2.02-0.59
				c1.02-0.56,6.01-3.31,6.01-3.31c0.18-0.1,0.4-0.06,0.54,0.09l4.14,4.5c0.66-0.58,1.42-1.18,2.29-1.8
				c0.2-0.14,0.48-0.09,0.62,0.11c0.14,0.2,0.09,0.48-0.11,0.62c-5.77,4.05-6.2,7.51-6.2,7.54c-0.03,0.25-0.24,0.42-0.49,0.4
				c-0.24-0.02-0.42-0.24-0.4-0.48c0.01-0.09,0.14-1.29,1.34-3.1l-5.08-1.69c-0.61,0.62-2.48,2.51-3.24,3.36
				c-0.94,1.03-1.89,1.91-1.93,1.94C385.84,220.11,385.73,220.15,385.62,220.15z M391.14,218.79c-0.11,0-0.22-0.04-0.31-0.13
				c-0.18-0.17-0.18-0.45-0.01-0.63l0.81-0.84c0.17-0.18,0.46-0.18,0.63-0.01c0.18,0.17,0.18,0.45,0.01,0.63l-0.82,0.84
				C391.37,218.75,391.25,218.79,391.14,218.79z"/>
		</g>
	</g>
	<g>
		<path class="st6" d="M405.89,203.74c4.88,0,8.87-3.98,8.87-8.87c0-4.88-3.98-8.86-8.87-8.86c-4.88,0-8.86,3.98-8.86,8.86
			C397.03,199.76,401.01,203.74,405.89,203.74z"/>
		<path class="st7" d="M405.89,204.19c-5.13,0-9.31-4.18-9.31-9.31c0-5.13,4.18-9.31,9.31-9.31c5.13,0,9.31,4.18,9.31,9.31
			C415.2,200.01,411.03,204.19,405.89,204.19z M405.89,186.46c-4.64,0-8.42,3.78-8.42,8.42c0,4.64,3.78,8.42,8.42,8.42
			c4.64,0,8.42-3.78,8.42-8.42C414.31,190.24,410.54,186.46,405.89,186.46z"/>
	</g>
	<g>
		<path class="st0" d="M404.35,196.6l3.43-6.85c0.09-0.18,0.31-0.25,0.49-0.16l2.45,1.49c0.18,0.09,0.25,0.31,0.17,0.49l-5.34,8.45
			c-0.05,0.1-0.13,0.16-0.23,0.19c-0.1,0.03-0.2,0.01-0.29-0.05l-3.99-2.76c-0.17-0.11-0.21-0.34-0.1-0.5l0.65-1.68
			c0.11-0.16,0.34-0.21,0.5-0.1L404.35,196.6z"/>
	</g>
</g>
</svg>
