<?xml version="1.0" encoding="utf-8"?>
<!-- Generator: Adobe Illustrator 27.5.0, SVG Export Plug-In . SVG Version: 6.00 Build 0)  -->
<svg version="1.1" xmlns="http://www.w3.org/2000/svg" xmlns:xlink="http://www.w3.org/1999/xlink" x="0px" y="0px"
	 viewBox="0 0 750 500" style="enable-background:new 0 0 750 500;" xml:space="preserve">
<g id="Background_complete">
	<g>
		<g>
			<g>
				<g>
					<g>
						<g>
							<path style="fill:#E0E0E0;" d="M673.734,339.783H492.988c-3.232,0-5.862-2.63-5.862-5.862V70.647
								c0-3.232,2.63-5.862,5.862-5.862h180.746c3.232,0,5.862,2.629,5.862,5.862v263.273
								C679.596,337.153,676.966,339.783,673.734,339.783z M492.988,65.035c-3.095,0-5.612,2.518-5.612,5.612v263.273
								c0,3.095,2.518,5.612,5.612,5.612h180.746c3.095,0,5.612-2.518,5.612-5.612V70.647c0-3.094-2.518-5.612-5.612-5.612H492.988z
								"/>
						</g>
					</g>
					<g>
						<g>
							<path style="fill:#E0E0E0;" d="M465.306,339.783H284.56c-3.232,0-5.862-2.63-5.862-5.862V70.647
								c0-3.232,2.629-5.862,5.862-5.862h180.747c3.232,0,5.862,2.629,5.862,5.862v263.273
								C471.168,337.153,468.538,339.783,465.306,339.783z M284.56,65.035c-3.094,0-5.612,2.518-5.612,5.612v263.273
								c0,3.095,2.518,5.612,5.612,5.612h180.747c3.095,0,5.612-2.518,5.612-5.612V70.647c0-3.094-2.518-5.612-5.612-5.612H284.56z"
								/>
						</g>
					</g>
				</g>
				<g>
					<g>
						<g>
							<path style="fill:#E0E0E0;" d="M257.012,339.783H76.266c-3.232,0-5.862-2.63-5.862-5.862V70.647
								c0-3.232,2.629-5.862,5.862-5.862h180.746c3.232,0,5.862,2.629,5.862,5.862v263.273
								C262.875,337.153,260.245,339.783,257.012,339.783z M76.266,65.035c-3.094,0-5.612,2.518-5.612,5.612v263.273
								c0,3.095,2.518,5.612,5.612,5.612h180.746c3.095,0,5.612-2.518,5.612-5.612V70.647c0-3.094-2.518-5.612-5.612-5.612H76.266z"
								/>
						</g>
					</g>
				</g>
			</g>
			<g>
				<g>
					<rect y="400.852" style="fill:#E0E0E0;" width="750" height="0.12"/>
				</g>
			</g>
		</g>
		<g>
			<rect x="653.626" y="430.228" style="fill:#EBEBEB;" width="55.729" height="0.421"/>
			<rect x="495.044" y="434.794" style="fill:#EBEBEB;" width="14.627" height="0.421"/>
			<rect x="40.645" y="417.431" style="fill:#EBEBEB;" width="72.674" height="0.421"/>
			<rect x="128.299" y="417.431" style="fill:#EBEBEB;" width="10.656" height="0.421"/>
			<rect x="173.586" y="424.535" style="fill:#EBEBEB;" width="157.613" height="0.421"/>
		</g>
	</g>
	<g>
		<g>
			<path style="fill:#E0E0E0;" d="M472.426,183.492c-2.519-1.903-6.195-2.119-8.92-0.523c-3.617-7.308-13.695-10.534-20.883-6.683
				c-1.875-7.875-9.634-13.928-17.729-13.831c-8.095,0.097-15.706,6.336-17.391,14.254c-0.268,1.258-0.445,2.637-1.345,3.556
				c-1.462,1.493-3.903,0.992-5.987,0.83c-6.556-0.511-13.152,4.091-14.935,10.42l90.28-0.329
				C476.307,188.129,474.946,185.396,472.426,183.492z"/>
		</g>
	</g>
	<g>
		<g>
			<path style="fill:#E0E0E0;" d="M253.83,61.897c-2.519-1.903-6.195-2.119-8.92-0.523c-3.617-7.308-13.695-10.534-20.883-6.683
				c-1.875-7.875-9.634-13.928-17.729-13.831c-8.095,0.097-15.706,6.336-17.391,14.254c-0.268,1.258-0.445,2.637-1.345,3.556
				c-1.462,1.493-3.903,0.992-5.987,0.83c-6.556-0.511-13.152,4.091-14.935,10.42l90.28-0.329
				C257.71,66.534,256.349,63.8,253.83,61.897z"/>
		</g>
	</g>
	<g>
		<g>
			<path style="fill:#F0F0F0;" d="M356.803,157.001c-1.699-1.283-4.177-1.429-6.014-0.353c-2.438-4.927-9.233-7.102-14.079-4.506
				c-1.264-5.309-6.495-9.39-11.953-9.325c-5.458,0.066-10.589,4.271-11.725,9.61c-0.181,0.848-0.3,1.778-0.907,2.398
				c-0.986,1.007-2.631,0.669-4.036,0.559c-4.42-0.345-8.867,2.758-10.069,7.025l60.864-0.222
				C359.419,160.127,358.501,158.284,356.803,157.001z"/>
		</g>
	</g>
	<g>
		<g>
			<path style="fill:#F0F0F0;" d="M108.552,107.505c-1.699-1.283-4.177-1.429-6.014-0.353c-2.438-4.927-9.233-7.102-14.079-4.506
				c-1.264-5.309-6.495-9.39-11.952-9.325c-5.457,0.066-10.589,4.271-11.725,9.61c-0.181,0.848-0.3,1.778-0.907,2.398
				c-0.986,1.007-2.631,0.669-4.036,0.559c-4.42-0.345-8.867,2.758-10.069,7.025l60.865-0.221
				C111.168,110.631,110.251,108.788,108.552,107.505z"/>
		</g>
	</g>
	<g>
		<g>
			<path style="fill:#F0F0F0;" d="M105.639,266.802c-1.699-1.283-4.177-1.429-6.014-0.353c-2.438-4.927-9.233-7.102-14.079-4.506
				c-1.264-5.309-6.495-9.39-11.952-9.325c-5.457,0.066-10.589,4.271-11.725,9.61c-0.181,0.848-0.3,1.778-0.907,2.398
				c-0.986,1.007-2.631,0.669-4.036,0.559c-4.42-0.345-8.867,2.758-10.069,7.025l60.864-0.221
				C108.255,269.928,107.337,268.086,105.639,266.802z"/>
		</g>
	</g>
	<g>
		<g>
			<path style="fill:#F0F0F0;" d="M307.221,224.951c-1.699-1.283-4.177-1.429-6.014-0.353c-2.438-4.927-9.233-7.102-14.079-4.506
				c-1.264-5.309-6.495-9.39-11.953-9.325c-5.457,0.066-10.589,4.271-11.725,9.61c-0.181,0.848-0.3,1.778-0.907,2.398
				c-0.986,1.007-2.632,0.669-4.036,0.559c-4.42-0.345-8.867,2.758-10.069,7.025l60.864-0.222
				C309.837,228.077,308.92,226.235,307.221,224.951z"/>
		</g>
	</g>
	<g>
		<g>
			<path style="fill:#F0F0F0;" d="M509.83,61.311c-2.293-1.732-5.638-1.928-8.117-0.476c-3.291-6.65-12.462-9.585-19.003-6.081
				c-1.706-7.166-8.767-12.674-16.133-12.586c-7.366,0.089-14.293,5.765-15.826,12.971c-0.244,1.145-0.405,2.4-1.224,3.236
				c-1.33,1.359-3.552,0.903-5.448,0.755c-5.966-0.465-11.968,3.723-13.591,9.482l82.153-0.299
				C513.36,65.531,512.122,63.043,509.83,61.311z"/>
		</g>
	</g>
	<g>
		<g>
			<path style="fill:#F0F0F0;" d="M702.089,142.674c-2.293-1.732-5.638-1.928-8.117-0.476c-3.291-6.65-12.462-9.586-19.003-6.081
				c-1.706-7.166-8.767-12.675-16.133-12.586c-7.366,0.089-14.293,5.765-15.826,12.971c-0.244,1.145-0.405,2.4-1.224,3.236
				c-1.33,1.359-3.552,0.903-5.448,0.755c-5.966-0.465-11.968,3.723-13.591,9.482l82.153-0.299
				C705.62,146.894,704.381,144.406,702.089,142.674z"/>
		</g>
	</g>
	<g>
		<g>
			<path style="fill:#F0F0F0;" d="M717.694,243.984c-2.293-1.732-5.638-1.928-8.117-0.476c-3.291-6.65-12.462-9.585-19.003-6.081
				c-1.706-7.166-8.767-12.674-16.133-12.586c-7.366,0.089-14.292,5.765-15.826,12.971c-0.244,1.145-0.405,2.4-1.224,3.236
				c-1.33,1.359-3.552,0.903-5.448,0.755c-5.966-0.465-11.968,3.723-13.591,9.482l82.153-0.299
				C721.225,248.204,719.986,245.717,717.694,243.984z"/>
		</g>
	</g>
</g>
<g id="Background_simple" style="display:none;">
	<g style="display:inline;">
		<path style="fill:#407BFF;" d="M432.317,399.311c17.447-3.543,34.271-11.086,49.192-22.919
			c17.586-13.946,35.555-35.671,30.248-64.088c-9.798-52.461-56.802-53.417-47.417-88.691c10.63-39.956,3.501-86.824-44.2-99.857
			c-90.601-24.755-200.124,120.09-169.363,199.682C269.927,372.989,339.678,418.124,432.317,399.311z"/>
		<path style="opacity:0.9;fill:#FFFFFF;" d="M432.317,399.311c17.447-3.543,34.271-11.086,49.192-22.919
			c17.586-13.946,35.555-35.671,30.248-64.088c-9.798-52.461-56.802-53.417-47.417-88.691c10.63-39.956,3.501-86.824-44.2-99.857
			c-90.601-24.755-200.124,120.09-169.363,199.682C269.927,372.989,339.678,418.124,432.317,399.311z"/>
	</g>
</g>
<g id="Shadow">
	<g>
		<g>
			<path style="fill:#F5F5F5;" d="M632.855,448.394c0,3.387-115.445,6.132-257.855,6.132s-257.855-2.745-257.855-6.132
				c0-3.387,115.445-6.132,257.855-6.132S632.855,445.007,632.855,448.394z"/>
		</g>
	</g>
</g>
<g id="Trees">
	<g id="freepik--tree-1--inject-2_00000126292921710606847490000012011860747401263024_">
		<path style="fill:#407BFF;" d="M255.42,195.199c-1.889-1.14-4.077-1.689-6.281-1.574c-1.353-1.643-0.262-4.114,1.049-5.784
			c1.311-1.67,2.913-3.575,2.416-5.646c-0.773-3.106-5.135-3.23-8.283-2.623c-1.16-1.877-1.132-4.21-1.698-6.378
			c-0.566-2.167-2.416-4.445-4.473-4.141c-2.057,0.304-3.327,2.581-5.356,3.065c-2.361,0.552-4.404-1.532-6.254-3.092
			c-0.227-0.195-0.467-0.375-0.718-0.538c0.387-6.474,6.543-5.439,11.789-6.322c4.1-0.676-6.764-11.044,1.519-14.385
			c1.605-0.441,3.012-1.414,3.99-2.761c0.858-2.096,0.098-4.506-1.809-5.729c-1.885-1.138-4.068-1.686-6.267-1.574
			c-1.353-1.643-0.262-4.114,1.049-5.784c1.311-1.67,2.899-3.575,2.416-5.646c-0.787-3.106-5.135-3.23-8.283-2.623
			c-1.16-1.877-1.132-4.21-1.698-6.378c-0.566-2.167-2.402-4.445-4.473-4.141c-2.071,0.304-3.327,2.581-5.356,3.065
			c-2.361,0.552-4.404-1.532-6.253-3.092c-1.85-1.56-5.08-2.54-6.35-0.483c-0.759,1.215-0.304,2.927-1.104,4.141
			c-1.367,2.071-4.638,0.801-6.654-0.69c-2.016-1.491-5.273-2.844-6.654-0.773c-0.36,0.678-0.624,1.403-0.787,2.153
			c-0.196,0.534-0.471,1.037-0.814,1.491c-0.4-1.436-0.525-2.996-0.897-4.445c-0.566-2.153-2.402-4.445-4.473-4.141
			c-2.071,0.304-3.327,2.595-5.356,3.065c-2.361,0.566-4.404-1.532-6.253-3.092c-1.85-1.56-5.08-2.54-6.35-0.469
			c-0.759,1.215-0.304,2.927-1.104,4.141c-0.166,0.274-0.393,0.505-0.663,0.676c-0.704-0.138-1.394-0.138-2.084-0.138
			c-1.353-1.629-0.262-4.086,1.049-5.77c1.312-1.684,2.913-3.589,2.416-5.646c-0.773-3.12-5.135-3.23-8.283-2.623
			c-1.16-1.891-1.132-4.224-1.698-6.378c-0.566-2.154-2.402-4.459-4.473-4.141c-2.071,0.318-3.327,2.595-5.356,3.078
			c-2.361,0.552-4.404-1.518-6.254-3.092c-1.85-1.574-5.08-2.54-6.35-0.483c-0.759,1.201-0.304,2.927-1.104,4.141
			c-1.367,2.057-4.611,0.787-6.64-0.704c-2.029-1.491-5.287-2.844-6.668-0.773c-0.362,0.682-0.627,1.412-0.787,2.167
			c-0.953,2.761-3.948,4.141-6.267,5.908s-4.155,5.287-2.195,7.441c0.966,1.077,2.678,1.477,3.161,2.858
			c0.594,1.629-1.132,3.216-2.512,4.39c-1.809,2.008-2.342,4.86-1.38,7.385c-0.688,0.626-1.502,1.097-2.388,1.38
			c-2.361,0.552-4.404-1.532-6.254-3.092c-1.85-1.56-5.08-2.54-6.35-0.483c-0.759,1.201-0.304,2.927-1.104,4.141
			c-1.367,2.071-4.611,0.801-6.64-0.69c-2.029-1.491-5.287-2.844-6.668-0.773c-0.36,0.678-0.624,1.403-0.787,2.153
			c-0.953,2.761-3.948,4.141-6.267,5.908c-2.319,1.767-4.155,5.287-2.195,7.454c0.925,1.077,2.526,1.518,3.078,2.761
			c-1.629-0.649-3.506-0.483-4.266,0.732c-0.759,1.215-0.304,2.927-1.104,4.141c-1.367,2.071-4.611,0.801-6.64-0.69
			c-2.029-1.491-5.287-2.844-6.667-0.773c-0.362,0.682-0.627,1.412-0.787,2.167c-0.953,2.761-3.948,4.114-6.267,5.895
			c-2.319,1.781-4.155,5.301-2.195,7.454c0.966,1.063,2.678,1.477,3.161,2.858c0.608,1.629-1.118,3.216-2.499,4.39
			c-2.292,1.933-2.706,7.744,0.318,9.346c1.27,0.663,3.161,1.008,3.438,2.264c0.276,1.256-0.994,2.223-1.836,3.189
			c-0.195,0.25-0.37,0.516-0.523,0.794c-1.596,2.899-0.54,6.542,2.359,8.138c0.731,0.331,1.615,0.621,1.891,1.38
			c0.104,0.567,0.042,1.152-0.179,1.684c-0.29,1.055-0.388,2.154-0.29,3.244c0,0.375,0.143,0.736,0.4,1.008
			c0.277,0.198,0.613,0.296,0.952,0.276c4.362,0.193,6.461-1.353,9.125,2.443c0.233,0.382,0.543,0.712,0.911,0.966
			c0.373,0.186,0.784,0.285,1.201,0.29c2.572,0.213,4.363-1.125,6.564-1.737c-0.184,0.918-0.04,1.825,0.622,2.557
			c0.804,0.891,2.22,1.256,2.63,2.381c0.497,1.461-0.95,2.688-2.089,3.652c-1.899,1.622-2.25,6.471,0.263,7.786
			c1.066,0.555,2.615,0.73,2.922,1.899c0.307,1.169-0.818,1.855-1.461,2.659c-1.691,2.18-1.294,5.319,0.886,7.01
			c0.204,0.158,0.421,0.301,0.647,0.426c0.599,0.292,1.344,0.526,1.563,1.169c0.108,0.49,0.057,1.002-0.146,1.461
			c-0.244,0.874-0.323,1.785-0.234,2.688c-0.006,0.313,0.109,0.617,0.321,0.847c0.234,0.166,0.517,0.249,0.804,0.234
			c3.623,0.161,5.376-1.125,7.596,2.031c0.194,0.318,0.453,0.592,0.76,0.803c0.313,0.156,0.658,0.241,1.008,0.248
			c2.498,0.205,4.12-1.344,6.413-1.636c3.155-0.409,3.827,1.227,6.617,2.542c4.382,2.06,6.53,0.789,7.304-2.206
			c0.079-0.31,0.135-0.625,0.192-0.939c0.332,1.224,1.043,2.356,2.123,3.194c0.247,0.192,0.509,0.364,0.783,0.516
			c0.725,0.354,1.627,0.636,1.892,1.414c0.131,0.593,0.069,1.212-0.177,1.768c-0.296,1.057-0.391,2.161-0.283,3.253
			c-0.008,0.379,0.131,0.747,0.389,1.025c0.283,0.201,0.626,0.301,0.972,0.283c4.385,0.194,6.506-1.361,9.194,2.458
			c0.235,0.385,0.548,0.716,0.919,0.972c0.379,0.189,0.796,0.291,1.22,0.301c3.023,0.248,4.986-1.627,7.761-1.98
			c3.819-0.495,4.632,1.485,8.009,3.076c5.304,2.493,7.903,0.955,8.84-2.67c0.263-1.025,0.423-2.073,0.477-3.129
			c0.389-6.524,6.612-5.498,11.898-6.382c0.253-0.042,0.449-0.122,0.597-0.234c0.007,0.019,0.019,0.034,0.025,0.053
			c0.131,0.593,0.069,1.213-0.177,1.768c-0.296,1.057-0.392,2.16-0.283,3.253c-0.008,0.379,0.132,0.747,0.389,1.025
			c0.283,0.201,0.626,0.301,0.972,0.283c4.385,0.194,6.506-1.361,9.193,2.457c0.235,0.385,0.548,0.716,0.919,0.972
			c0.38,0.189,0.796,0.291,1.22,0.3c3.023,0.247,4.986-1.626,7.762-1.98c3.819-0.495,4.632,1.485,8.009,3.076
			c5.304,2.493,7.903,0.955,8.84-2.67c0.263-1.025,0.423-2.073,0.477-3.129c0.389-6.524,6.612-5.498,11.899-6.382
			c3.71-0.618-4.697-9.066-0.471-13.241c0.56,0.393,1.117,0.958,1.702,1.791c0.233,0.382,0.543,0.712,0.911,0.966
			c0.373,0.186,0.784,0.285,1.201,0.29c2.995,0.249,4.928-1.615,7.689-1.974c3.824-0.483,4.611,1.477,7.965,3.051
			c5.26,2.485,7.813,0.953,8.807-2.637c0.261-1.017,0.419-2.057,0.469-3.106c0.386-6.474,6.557-5.439,11.803-6.322
			c4.1-0.676-6.778-11.044,1.505-14.384c1.605-0.441,3.012-1.414,3.989-2.761C257.868,198.702,257.174,196.434,255.42,195.199z
			 M111.452,195.737c0.107,0.396,0.09,0.782-0.011,1.156c-0.216-0.384-0.382-0.787-0.511-1.205
			C111.104,195.704,111.276,195.731,111.452,195.737z"/>
		<path style="opacity:0.5;fill:#FFFFFF;" d="M255.42,195.199c-1.889-1.14-4.077-1.689-6.281-1.574
			c-1.353-1.643-0.262-4.114,1.049-5.784c1.311-1.67,2.913-3.575,2.416-5.646c-0.773-3.106-5.135-3.23-8.283-2.623
			c-1.16-1.877-1.132-4.21-1.698-6.378c-0.566-2.167-2.416-4.445-4.473-4.141c-2.057,0.304-3.327,2.581-5.356,3.065
			c-2.361,0.552-4.404-1.532-6.254-3.092c-0.227-0.195-0.467-0.375-0.718-0.538c0.387-6.474,6.543-5.439,11.789-6.322
			c4.1-0.676-6.764-11.044,1.519-14.385c1.605-0.441,3.012-1.414,3.99-2.761c0.858-2.096,0.098-4.506-1.809-5.729
			c-1.885-1.138-4.068-1.686-6.267-1.574c-1.353-1.643-0.262-4.114,1.049-5.784c1.311-1.67,2.899-3.575,2.416-5.646
			c-0.787-3.106-5.135-3.23-8.283-2.623c-1.16-1.877-1.132-4.21-1.698-6.378c-0.566-2.167-2.402-4.445-4.473-4.141
			c-2.071,0.304-3.327,2.581-5.356,3.065c-2.361,0.552-4.404-1.532-6.253-3.092c-1.85-1.56-5.08-2.54-6.35-0.483
			c-0.759,1.215-0.304,2.927-1.104,4.141c-1.367,2.071-4.638,0.801-6.654-0.69c-2.016-1.491-5.273-2.844-6.654-0.773
			c-0.36,0.678-0.624,1.403-0.787,2.153c-0.196,0.534-0.471,1.037-0.814,1.491c-0.4-1.436-0.525-2.996-0.897-4.445
			c-0.566-2.153-2.402-4.445-4.473-4.141c-2.071,0.304-3.327,2.595-5.356,3.065c-2.361,0.566-4.404-1.532-6.253-3.092
			c-1.85-1.56-5.08-2.54-6.35-0.469c-0.759,1.215-0.304,2.927-1.104,4.141c-0.166,0.274-0.393,0.505-0.663,0.676
			c-0.704-0.138-1.394-0.138-2.084-0.138c-1.353-1.629-0.262-4.086,1.049-5.77c1.312-1.684,2.913-3.589,2.416-5.646
			c-0.773-3.12-5.135-3.23-8.283-2.623c-1.16-1.891-1.132-4.224-1.698-6.378c-0.566-2.154-2.402-4.459-4.473-4.141
			c-2.071,0.318-3.327,2.595-5.356,3.078c-2.361,0.552-4.404-1.518-6.254-3.092c-1.85-1.574-5.08-2.54-6.35-0.483
			c-0.759,1.201-0.304,2.927-1.104,4.141c-1.367,2.057-4.611,0.787-6.64-0.704c-2.029-1.491-5.287-2.844-6.668-0.773
			c-0.362,0.682-0.627,1.412-0.787,2.167c-0.953,2.761-3.948,4.141-6.267,5.908s-4.155,5.287-2.195,7.441
			c0.966,1.077,2.678,1.477,3.161,2.858c0.594,1.629-1.132,3.216-2.512,4.39c-1.809,2.008-2.342,4.86-1.38,7.385
			c-0.688,0.626-1.502,1.097-2.388,1.38c-2.361,0.552-4.404-1.532-6.254-3.092c-1.85-1.56-5.08-2.54-6.35-0.483
			c-0.759,1.201-0.304,2.927-1.104,4.141c-1.367,2.071-4.611,0.801-6.64-0.69c-2.029-1.491-5.287-2.844-6.668-0.773
			c-0.36,0.678-0.624,1.403-0.787,2.153c-0.953,2.761-3.948,4.141-6.267,5.908c-2.319,1.767-4.155,5.287-2.195,7.454
			c0.925,1.077,2.526,1.518,3.078,2.761c-1.629-0.649-3.506-0.483-4.266,0.732c-0.759,1.215-0.304,2.927-1.104,4.141
			c-1.367,2.071-4.611,0.801-6.64-0.69c-2.029-1.491-5.287-2.844-6.667-0.773c-0.362,0.682-0.627,1.412-0.787,2.167
			c-0.953,2.761-3.948,4.114-6.267,5.895c-2.319,1.781-4.155,5.301-2.195,7.454c0.966,1.063,2.678,1.477,3.161,2.858
			c0.608,1.629-1.118,3.216-2.499,4.39c-2.292,1.933-2.706,7.744,0.318,9.346c1.27,0.663,3.161,1.008,3.438,2.264
			c0.276,1.256-0.994,2.223-1.836,3.189c-0.195,0.25-0.37,0.516-0.523,0.794c-1.596,2.899-0.54,6.542,2.359,8.138
			c0.731,0.331,1.615,0.621,1.891,1.38c0.104,0.567,0.042,1.152-0.179,1.684c-0.29,1.055-0.388,2.154-0.29,3.244
			c0,0.375,0.143,0.736,0.4,1.008c0.277,0.198,0.613,0.296,0.952,0.276c4.362,0.193,6.461-1.353,9.125,2.443
			c0.233,0.382,0.543,0.712,0.911,0.966c0.373,0.186,0.784,0.285,1.201,0.29c2.572,0.213,4.363-1.125,6.564-1.737
			c-0.184,0.918-0.04,1.825,0.622,2.557c0.804,0.891,2.22,1.256,2.63,2.381c0.497,1.461-0.95,2.688-2.089,3.652
			c-1.899,1.622-2.25,6.471,0.263,7.786c1.066,0.555,2.615,0.73,2.922,1.899c0.307,1.169-0.818,1.855-1.461,2.659
			c-1.691,2.18-1.294,5.319,0.886,7.01c0.204,0.158,0.421,0.301,0.647,0.426c0.599,0.292,1.344,0.526,1.563,1.169
			c0.108,0.49,0.057,1.002-0.146,1.461c-0.244,0.874-0.323,1.785-0.234,2.688c-0.006,0.313,0.109,0.617,0.321,0.847
			c0.234,0.166,0.517,0.249,0.804,0.234c3.623,0.161,5.376-1.125,7.596,2.031c0.194,0.318,0.453,0.592,0.76,0.803
			c0.313,0.156,0.658,0.241,1.008,0.248c2.498,0.205,4.12-1.344,6.413-1.636c3.155-0.409,3.827,1.227,6.617,2.542
			c4.382,2.06,6.53,0.789,7.304-2.206c0.079-0.31,0.135-0.625,0.192-0.939c0.332,1.224,1.043,2.356,2.123,3.194
			c0.247,0.192,0.509,0.364,0.783,0.516c0.725,0.354,1.627,0.636,1.892,1.414c0.131,0.593,0.069,1.212-0.177,1.768
			c-0.296,1.057-0.391,2.161-0.283,3.253c-0.008,0.379,0.131,0.747,0.389,1.025c0.283,0.201,0.626,0.301,0.972,0.283
			c4.385,0.194,6.506-1.361,9.194,2.458c0.235,0.385,0.548,0.716,0.919,0.972c0.379,0.189,0.796,0.291,1.22,0.301
			c3.023,0.248,4.986-1.627,7.761-1.98c3.819-0.495,4.632,1.485,8.009,3.076c5.304,2.493,7.903,0.955,8.84-2.67
			c0.263-1.025,0.423-2.073,0.477-3.129c0.389-6.524,6.612-5.498,11.898-6.382c0.253-0.042,0.449-0.122,0.597-0.234
			c0.007,0.019,0.019,0.034,0.025,0.053c0.131,0.593,0.069,1.213-0.177,1.768c-0.296,1.057-0.392,2.16-0.283,3.253
			c-0.008,0.379,0.132,0.747,0.389,1.025c0.283,0.201,0.626,0.301,0.972,0.283c4.385,0.194,6.506-1.361,9.193,2.457
			c0.235,0.385,0.548,0.716,0.919,0.972c0.38,0.189,0.796,0.291,1.22,0.3c3.023,0.247,4.986-1.626,7.762-1.98
			c3.819-0.495,4.632,1.485,8.009,3.076c5.304,2.493,7.903,0.955,8.84-2.67c0.263-1.025,0.423-2.073,0.477-3.129
			c0.389-6.524,6.612-5.498,11.899-6.382c3.71-0.618-4.697-9.066-0.471-13.241c0.56,0.393,1.117,0.958,1.702,1.791
			c0.233,0.382,0.543,0.712,0.911,0.966c0.373,0.186,0.784,0.285,1.201,0.29c2.995,0.249,4.928-1.615,7.689-1.974
			c3.824-0.483,4.611,1.477,7.965,3.051c5.26,2.485,7.813,0.953,8.807-2.637c0.261-1.017,0.419-2.057,0.469-3.106
			c0.386-6.474,6.557-5.439,11.803-6.322c4.1-0.676-6.778-11.044,1.505-14.384c1.605-0.441,3.012-1.414,3.989-2.761
			C257.868,198.702,257.174,196.434,255.42,195.199z M111.452,195.737c0.107,0.396,0.09,0.782-0.011,1.156
			c-0.216-0.384-0.382-0.787-0.511-1.205C111.104,195.704,111.276,195.731,111.452,195.737z"/>
		<path style="fill:#263238;" d="M186.155,191.354l-16.412,12.643l5.629-17.853l10.96-14.096l-1.873-1.562l-10.339,11.27
			l-1.838-17.853h-2.993c0,0,2.459,21.21-1.079,28.977c0,0-12.85,32.692-20.673,39.769c-0.443,0.41-0.829,0.878-1.149,1.39
			c-2.346-6.018-5.396-11.737-9.087-17.037c3.09-7.904,9.719-25.274,11.971-34.568c1.765-7.219,3.089-14.539,3.963-21.919
			l-2.563-0.282c0,0-7.271,34.333-19.288,49.957c-3.56-3.271-7.596-5.983-11.971-8.042c-0.977-4.825-1.39-13.223,1.804-26.331
			l-2.54-0.649c0,0-4.847,11.092-4.422,24.407c-1.808-0.908-3.551-1.941-5.216-3.09c-11.58-8.145-19.725-22.861-19.725-22.861
			l-2.37,2.307c0,0,9.884,21.704,23.658,28.953c13.774,7.249,22.701,24.918,23.413,29.548c0.195,1.321,1.787,11.811-0.419,30.19
			c-4.593-1.96-9.849-2.689-15.991-5.984l-1.584,7.968l15.553,11.129c0.735,44.804-6.428,113.155-6.301,123.241h27.364
			c-0.674-13.913-2.662-87.966-0.103-142.648c0.218-1.344,0.448-2.884,0.666-4.676c2.137-16.773,14.865-39.689,20.92-46.206
			c6.488-6.983,13.699-12.519,13.699-12.519L186.155,191.354z"/>
	</g>
	<g id="freepik--tree-1--inject-2_00000140010237624133589360000012685351957535368346_">
		<path style="fill:#407BFF;" d="M692.239,162.263c-1.889-1.14-4.077-1.689-6.281-1.574c-1.353-1.643-0.262-4.114,1.049-5.784
			c1.311-1.67,2.913-3.575,2.416-5.646c-0.773-3.106-5.135-3.23-8.283-2.623c-1.16-1.877-1.132-4.21-1.698-6.378
			c-0.566-2.167-2.416-4.445-4.473-4.141c-2.057,0.304-3.327,2.581-5.356,3.065c-2.361,0.552-4.404-1.532-6.254-3.092
			c-0.227-0.195-0.467-0.375-0.718-0.538c0.386-6.474,6.543-5.439,11.789-6.322c4.1-0.676-6.764-11.044,1.518-14.384
			c1.605-0.441,3.012-1.414,3.99-2.761c0.858-2.096,0.098-4.506-1.808-5.729c-1.885-1.138-4.068-1.686-6.267-1.574
			c-1.353-1.643-0.262-4.114,1.049-5.784c1.311-1.67,2.899-3.575,2.416-5.646c-0.787-3.106-5.135-3.23-8.283-2.623
			c-1.16-1.877-1.132-4.21-1.698-6.378c-0.566-2.167-2.402-4.445-4.473-4.141c-2.071,0.304-3.327,2.581-5.356,3.064
			c-2.361,0.552-4.404-1.532-6.253-3.092c-1.85-1.56-5.08-2.54-6.35-0.483c-0.759,1.215-0.304,2.927-1.105,4.141
			c-1.367,2.071-4.638,0.801-6.654-0.69c-2.016-1.491-5.273-2.844-6.654-0.773c-0.36,0.678-0.624,1.403-0.787,2.153
			c-0.196,0.534-0.471,1.037-0.814,1.491c-0.4-1.436-0.525-2.996-0.897-4.445c-0.566-2.153-2.402-4.445-4.473-4.141
			c-2.071,0.304-3.327,2.595-5.356,3.065c-2.361,0.566-4.404-1.532-6.253-3.092c-1.85-1.56-5.08-2.54-6.35-0.469
			c-0.759,1.215-0.304,2.927-1.104,4.141c-0.166,0.274-0.393,0.505-0.663,0.677c-0.704-0.138-1.394-0.138-2.084-0.138
			c-1.353-1.629-0.262-4.086,1.049-5.77c1.312-1.684,2.913-3.589,2.416-5.646c-0.773-3.12-5.135-3.23-8.283-2.623
			c-1.16-1.891-1.132-4.224-1.698-6.378c-0.566-2.153-2.402-4.459-4.473-4.141c-2.071,0.318-3.327,2.595-5.356,3.078
			c-2.361,0.552-4.404-1.518-6.254-3.092c-1.85-1.574-5.08-2.54-6.35-0.483c-0.759,1.201-0.304,2.927-1.104,4.141
			c-1.367,2.057-4.611,0.787-6.64-0.704c-2.029-1.491-5.287-2.844-6.668-0.773c-0.362,0.682-0.627,1.412-0.787,2.167
			c-0.953,2.761-3.948,4.141-6.267,5.908c-2.319,1.767-4.155,5.287-2.195,7.441c0.966,1.077,2.678,1.477,3.161,2.857
			c0.594,1.629-1.132,3.216-2.513,4.39c-1.809,2.008-2.342,4.86-1.38,7.385c-0.688,0.626-1.502,1.097-2.388,1.38
			c-2.361,0.552-4.404-1.532-6.253-3.092c-1.85-1.56-5.08-2.54-6.35-0.483c-0.759,1.201-0.304,2.927-1.104,4.141
			c-1.367,2.071-4.611,0.801-6.64-0.69c-2.029-1.491-5.287-2.844-6.668-0.773c-0.36,0.678-0.624,1.403-0.787,2.154
			c-0.952,2.761-3.948,4.141-6.267,5.908c-2.319,1.767-4.155,5.287-2.195,7.454c0.925,1.077,2.526,1.519,3.078,2.761
			c-1.629-0.649-3.506-0.483-4.266,0.732s-0.304,2.927-1.104,4.141c-1.367,2.071-4.611,0.801-6.64-0.69
			c-2.029-1.491-5.287-2.844-6.668-0.773c-0.362,0.682-0.627,1.412-0.787,2.167c-0.953,2.761-3.948,4.114-6.267,5.895
			c-2.319,1.781-4.155,5.301-2.195,7.454c0.966,1.063,2.678,1.477,3.161,2.858c0.608,1.629-1.118,3.216-2.499,4.39
			c-2.292,1.933-2.706,7.744,0.318,9.346c1.27,0.663,3.161,1.008,3.437,2.264c0.276,1.256-0.994,2.223-1.836,3.189
			c-0.195,0.25-0.37,0.516-0.523,0.794c-1.596,2.899-0.54,6.542,2.359,8.138c0.732,0.331,1.615,0.621,1.891,1.38
			c0.104,0.567,0.042,1.152-0.18,1.684c-0.29,1.055-0.388,2.154-0.29,3.244c0,0.375,0.143,0.736,0.4,1.008
			c0.277,0.198,0.613,0.296,0.953,0.276c4.362,0.193,6.461-1.353,9.125,2.443c0.233,0.382,0.543,0.712,0.911,0.966
			c0.373,0.186,0.784,0.285,1.201,0.29c2.572,0.213,4.363-1.125,6.564-1.737c-0.183,0.918-0.04,1.825,0.622,2.557
			c0.804,0.891,2.221,1.256,2.63,2.381c0.497,1.461-0.95,2.688-2.089,3.652c-1.899,1.621-2.25,6.471,0.263,7.786
			c1.066,0.555,2.615,0.73,2.922,1.899c0.307,1.169-0.818,1.855-1.461,2.659c-1.691,2.18-1.294,5.319,0.886,7.01
			c0.204,0.159,0.421,0.301,0.647,0.426c0.599,0.292,1.344,0.526,1.563,1.169c0.108,0.49,0.057,1.002-0.146,1.461
			c-0.244,0.874-0.323,1.785-0.234,2.688c-0.006,0.313,0.109,0.617,0.321,0.847c0.234,0.166,0.517,0.249,0.803,0.234
			c3.623,0.161,5.376-1.125,7.596,2.031c0.194,0.318,0.453,0.592,0.76,0.803c0.313,0.156,0.658,0.241,1.008,0.248
			c2.498,0.205,4.12-1.344,6.413-1.636c3.155-0.409,3.827,1.227,6.617,2.542c4.383,2.06,6.53,0.789,7.304-2.206
			c0.079-0.31,0.135-0.624,0.192-0.939c0.332,1.224,1.044,2.356,2.123,3.193c0.247,0.192,0.509,0.364,0.784,0.516
			c0.725,0.354,1.627,0.636,1.892,1.414c0.131,0.593,0.069,1.212-0.177,1.768c-0.295,1.057-0.391,2.161-0.283,3.253
			c-0.008,0.379,0.131,0.747,0.389,1.025c0.283,0.201,0.626,0.301,0.972,0.283c4.385,0.194,6.506-1.361,9.194,2.458
			c0.235,0.385,0.548,0.716,0.919,0.972c0.38,0.189,0.796,0.291,1.22,0.301c3.023,0.248,4.986-1.627,7.762-1.98
			c3.819-0.495,4.632,1.485,8.009,3.076c5.304,2.493,7.903,0.955,8.84-2.67c0.263-1.025,0.422-2.073,0.477-3.129
			c0.389-6.524,6.612-5.498,11.898-6.382c0.253-0.042,0.449-0.122,0.597-0.234c0.007,0.018,0.019,0.034,0.025,0.053
			c0.131,0.593,0.069,1.213-0.177,1.768c-0.296,1.057-0.392,2.16-0.283,3.253c-0.008,0.379,0.132,0.747,0.389,1.025
			c0.283,0.201,0.626,0.301,0.972,0.283c4.385,0.194,6.506-1.361,9.193,2.457c0.235,0.385,0.548,0.716,0.919,0.972
			c0.38,0.189,0.796,0.291,1.22,0.3c3.023,0.247,4.986-1.626,7.761-1.98c3.819-0.495,4.632,1.485,8.009,3.076
			c5.304,2.493,7.903,0.955,8.84-2.67c0.263-1.025,0.423-2.073,0.477-3.129c0.389-6.524,6.612-5.498,11.899-6.382
			c3.71-0.618-4.697-9.066-0.471-13.24c0.56,0.393,1.117,0.958,1.702,1.791c0.233,0.382,0.543,0.712,0.911,0.966
			c0.373,0.186,0.784,0.285,1.201,0.29c2.995,0.249,4.928-1.615,7.689-1.974c3.824-0.483,4.611,1.477,7.965,3.051
			c5.26,2.485,7.813,0.953,8.807-2.637c0.261-1.017,0.419-2.057,0.469-3.106c0.386-6.474,6.557-5.439,11.803-6.322
			c4.1-0.677-6.778-11.044,1.505-14.384c1.605-0.441,3.012-1.414,3.989-2.761C694.686,165.766,693.993,163.498,692.239,162.263z
			 M548.271,162.801c0.107,0.396,0.09,0.782-0.012,1.156c-0.216-0.384-0.383-0.787-0.511-1.205
			C547.922,162.768,548.095,162.795,548.271,162.801z"/>
		<path style="opacity:0.5;fill:#FFFFFF;" d="M692.239,162.263c-1.889-1.14-4.077-1.689-6.281-1.574
			c-1.353-1.643-0.262-4.114,1.049-5.784c1.311-1.67,2.913-3.575,2.416-5.646c-0.773-3.106-5.135-3.23-8.283-2.623
			c-1.16-1.877-1.132-4.21-1.698-6.378c-0.566-2.167-2.416-4.445-4.473-4.141c-2.057,0.304-3.327,2.581-5.356,3.065
			c-2.361,0.552-4.404-1.532-6.254-3.092c-0.227-0.195-0.467-0.375-0.718-0.538c0.386-6.474,6.543-5.439,11.789-6.322
			c4.1-0.676-6.764-11.044,1.518-14.384c1.605-0.441,3.012-1.414,3.99-2.761c0.858-2.096,0.098-4.506-1.808-5.729
			c-1.885-1.138-4.068-1.686-6.267-1.574c-1.353-1.643-0.262-4.114,1.049-5.784c1.311-1.67,2.899-3.575,2.416-5.646
			c-0.787-3.106-5.135-3.23-8.283-2.623c-1.16-1.877-1.132-4.21-1.698-6.378c-0.566-2.167-2.402-4.445-4.473-4.141
			c-2.071,0.304-3.327,2.581-5.356,3.064c-2.361,0.552-4.404-1.532-6.253-3.092c-1.85-1.56-5.08-2.54-6.35-0.483
			c-0.759,1.215-0.304,2.927-1.105,4.141c-1.367,2.071-4.638,0.801-6.654-0.69c-2.016-1.491-5.273-2.844-6.654-0.773
			c-0.36,0.678-0.624,1.403-0.787,2.153c-0.196,0.534-0.471,1.037-0.814,1.491c-0.4-1.436-0.525-2.996-0.897-4.445
			c-0.566-2.153-2.402-4.445-4.473-4.141c-2.071,0.304-3.327,2.595-5.356,3.065c-2.361,0.566-4.404-1.532-6.253-3.092
			c-1.85-1.56-5.08-2.54-6.35-0.469c-0.759,1.215-0.304,2.927-1.104,4.141c-0.166,0.274-0.393,0.505-0.663,0.677
			c-0.704-0.138-1.394-0.138-2.084-0.138c-1.353-1.629-0.262-4.086,1.049-5.77c1.312-1.684,2.913-3.589,2.416-5.646
			c-0.773-3.12-5.135-3.23-8.283-2.623c-1.16-1.891-1.132-4.224-1.698-6.378c-0.566-2.153-2.402-4.459-4.473-4.141
			c-2.071,0.318-3.327,2.595-5.356,3.078c-2.361,0.552-4.404-1.518-6.254-3.092c-1.85-1.574-5.08-2.54-6.35-0.483
			c-0.759,1.201-0.304,2.927-1.104,4.141c-1.367,2.057-4.611,0.787-6.64-0.704c-2.029-1.491-5.287-2.844-6.668-0.773
			c-0.362,0.682-0.627,1.412-0.787,2.167c-0.953,2.761-3.948,4.141-6.267,5.908c-2.319,1.767-4.155,5.287-2.195,7.441
			c0.966,1.077,2.678,1.477,3.161,2.857c0.594,1.629-1.132,3.216-2.513,4.39c-1.809,2.008-2.342,4.86-1.38,7.385
			c-0.688,0.626-1.502,1.097-2.388,1.38c-2.361,0.552-4.404-1.532-6.253-3.092c-1.85-1.56-5.08-2.54-6.35-0.483
			c-0.759,1.201-0.304,2.927-1.104,4.141c-1.367,2.071-4.611,0.801-6.64-0.69c-2.029-1.491-5.287-2.844-6.668-0.773
			c-0.36,0.678-0.624,1.403-0.787,2.154c-0.952,2.761-3.948,4.141-6.267,5.908c-2.319,1.767-4.155,5.287-2.195,7.454
			c0.925,1.077,2.526,1.519,3.078,2.761c-1.629-0.649-3.506-0.483-4.266,0.732s-0.304,2.927-1.104,4.141
			c-1.367,2.071-4.611,0.801-6.64-0.69c-2.029-1.491-5.287-2.844-6.668-0.773c-0.362,0.682-0.627,1.412-0.787,2.167
			c-0.953,2.761-3.948,4.114-6.267,5.895c-2.319,1.781-4.155,5.301-2.195,7.454c0.966,1.063,2.678,1.477,3.161,2.858
			c0.608,1.629-1.118,3.216-2.499,4.39c-2.292,1.933-2.706,7.744,0.318,9.346c1.27,0.663,3.161,1.008,3.437,2.264
			c0.276,1.256-0.994,2.223-1.836,3.189c-0.195,0.25-0.37,0.516-0.523,0.794c-1.596,2.899-0.54,6.542,2.359,8.138
			c0.732,0.331,1.615,0.621,1.891,1.38c0.104,0.567,0.042,1.152-0.18,1.684c-0.29,1.055-0.388,2.154-0.29,3.244
			c0,0.375,0.143,0.736,0.4,1.008c0.277,0.198,0.613,0.296,0.953,0.276c4.362,0.193,6.461-1.353,9.125,2.443
			c0.233,0.382,0.543,0.712,0.911,0.966c0.373,0.186,0.784,0.285,1.201,0.29c2.572,0.213,4.363-1.125,6.564-1.737
			c-0.183,0.918-0.04,1.825,0.622,2.557c0.804,0.891,2.221,1.256,2.63,2.381c0.497,1.461-0.95,2.688-2.089,3.652
			c-1.899,1.621-2.25,6.471,0.263,7.786c1.066,0.555,2.615,0.73,2.922,1.899c0.307,1.169-0.818,1.855-1.461,2.659
			c-1.691,2.18-1.294,5.319,0.886,7.01c0.204,0.159,0.421,0.301,0.647,0.426c0.599,0.292,1.344,0.526,1.563,1.169
			c0.108,0.49,0.057,1.002-0.146,1.461c-0.244,0.874-0.323,1.785-0.234,2.688c-0.006,0.313,0.109,0.617,0.321,0.847
			c0.234,0.166,0.517,0.249,0.803,0.234c3.623,0.161,5.376-1.125,7.596,2.031c0.194,0.318,0.453,0.592,0.76,0.803
			c0.313,0.156,0.658,0.241,1.008,0.248c2.498,0.205,4.12-1.344,6.413-1.636c3.155-0.409,3.827,1.227,6.617,2.542
			c4.383,2.06,6.53,0.789,7.304-2.206c0.079-0.31,0.135-0.624,0.192-0.939c0.332,1.224,1.044,2.356,2.123,3.193
			c0.247,0.192,0.509,0.364,0.784,0.516c0.725,0.354,1.627,0.636,1.892,1.414c0.131,0.593,0.069,1.212-0.177,1.768
			c-0.295,1.057-0.391,2.161-0.283,3.253c-0.008,0.379,0.131,0.747,0.389,1.025c0.283,0.201,0.626,0.301,0.972,0.283
			c4.385,0.194,6.506-1.361,9.194,2.458c0.235,0.385,0.548,0.716,0.919,0.972c0.38,0.189,0.796,0.291,1.22,0.301
			c3.023,0.248,4.986-1.627,7.762-1.98c3.819-0.495,4.632,1.485,8.009,3.076c5.304,2.493,7.903,0.955,8.84-2.67
			c0.263-1.025,0.422-2.073,0.477-3.129c0.389-6.524,6.612-5.498,11.898-6.382c0.253-0.042,0.449-0.122,0.597-0.234
			c0.007,0.018,0.019,0.034,0.025,0.053c0.131,0.593,0.069,1.213-0.177,1.768c-0.296,1.057-0.392,2.16-0.283,3.253
			c-0.008,0.379,0.132,0.747,0.389,1.025c0.283,0.201,0.626,0.301,0.972,0.283c4.385,0.194,6.506-1.361,9.193,2.457
			c0.235,0.385,0.548,0.716,0.919,0.972c0.38,0.189,0.796,0.291,1.22,0.3c3.023,0.247,4.986-1.626,7.761-1.98
			c3.819-0.495,4.632,1.485,8.009,3.076c5.304,2.493,7.903,0.955,8.84-2.67c0.263-1.025,0.423-2.073,0.477-3.129
			c0.389-6.524,6.612-5.498,11.899-6.382c3.71-0.618-4.697-9.066-0.471-13.24c0.56,0.393,1.117,0.958,1.702,1.791
			c0.233,0.382,0.543,0.712,0.911,0.966c0.373,0.186,0.784,0.285,1.201,0.29c2.995,0.249,4.928-1.615,7.689-1.974
			c3.824-0.483,4.611,1.477,7.965,3.051c5.26,2.485,7.813,0.953,8.807-2.637c0.261-1.017,0.419-2.057,0.469-3.106
			c0.386-6.474,6.557-5.439,11.803-6.322c4.1-0.677-6.778-11.044,1.505-14.384c1.605-0.441,3.012-1.414,3.989-2.761
			C694.686,165.766,693.993,163.498,692.239,162.263z M548.271,162.801c0.107,0.396,0.09,0.782-0.012,1.156
			c-0.216-0.384-0.383-0.787-0.511-1.205C547.922,162.768,548.095,162.795,548.271,162.801z"/>
		<path style="fill:#263238;" d="M622.974,158.418l-16.412,12.643l5.629-17.853l10.96-14.096l-1.873-1.562l-10.339,11.27
			l-1.838-17.853h-2.993c0,0,2.459,21.21-1.079,28.977c0,0-12.85,32.692-20.673,39.769c-0.443,0.41-0.829,0.878-1.149,1.39
			c-2.346-6.018-5.396-11.737-9.087-17.037c3.09-7.904,9.719-25.274,11.971-34.568c1.765-7.219,3.089-14.539,3.963-21.92
			l-2.563-0.282c0,0-7.271,34.333-19.288,49.957c-3.56-3.271-7.596-5.983-11.971-8.042c-0.977-4.825-1.39-13.223,1.804-26.331
			l-2.54-0.649c0,0-4.847,11.092-4.422,24.407c-1.808-0.908-3.551-1.941-5.216-3.09c-11.58-8.145-19.725-22.861-19.725-22.861
			l-2.37,2.307c0,0,9.884,21.704,23.658,28.953c13.774,7.249,22.701,24.918,23.413,29.548c0.195,1.321,1.787,11.811-0.419,30.19
			c-4.593-1.959-9.849-2.689-15.991-5.984l-1.584,7.968l15.553,11.128c0.735,44.804-6.428,147.592-6.301,157.679h27.364
			c-0.674-13.913-2.662-122.404-0.103-177.086c0.218-1.344,0.448-2.884,0.666-4.676c2.137-16.773,14.866-39.689,20.92-46.206
			c6.488-6.983,13.699-12.519,13.699-12.519L622.974,158.418z"/>
	</g>
</g>
<g id="Sun">
	<g id="freepik--Sun--inject-5_00000067219928776979863730000018097890509928341422_">
		<g>
			<g>
				<path style="fill:#407BFF;" d="M403.858,78.506c0,3.074-4.445,5.515-5.204,8.346c-0.759,2.83,1.819,7.266,0.34,9.824
					c-1.478,2.558-6.575,2.51-8.686,4.611c-2.111,2.101-2.013,7.188-4.611,8.686c-2.597,1.498-6.896-1.118-9.824-0.34
					c-2.928,0.778-5.281,5.204-8.345,5.204c-3.064,0-5.515-4.445-8.345-5.204c-2.831-0.759-7.256,1.829-9.824,0.34
					c-2.568-1.488-2.5-6.575-4.611-8.686c-2.111-2.111-7.178-2.004-8.686-4.611c-1.508-2.607,1.118-6.925,0.34-9.843
					c-0.778-2.918-5.204-5.272-5.204-8.346s4.445-5.505,5.204-8.336c0.759-2.83-1.819-7.266-0.34-9.824
					c1.478-2.558,6.575-2.51,8.686-4.62c2.111-2.11,2.013-7.178,4.611-8.686c2.597-1.508,6.896,1.128,9.824,0.341
					c2.928-0.788,5.282-5.194,8.346-5.194c3.064,0,5.515,4.445,8.345,5.194c2.831,0.749,7.256-1.819,9.824-0.341
					c2.568,1.478,2.5,6.576,4.611,8.686c2.111,2.111,7.178,2.014,8.686,4.62c1.508,2.607-1.118,6.896-0.34,9.824
					C399.432,73.078,403.858,75.442,403.858,78.506z"/>
			</g>
			<g style="opacity:0.7;enable-background:new    ;">
				<path style="fill:#FFFFFF;" d="M403.858,78.506c0,3.074-4.445,5.515-5.204,8.346c-0.759,2.83,1.819,7.266,0.34,9.824
					c-1.478,2.558-6.575,2.51-8.686,4.611c-2.111,2.101-2.013,7.188-4.611,8.686c-2.597,1.498-6.896-1.118-9.824-0.34
					c-2.928,0.778-5.281,5.204-8.345,5.204c-3.064,0-5.515-4.445-8.345-5.204c-2.831-0.759-7.256,1.829-9.824,0.34
					c-2.568-1.488-2.5-6.575-4.611-8.686c-2.111-2.111-7.178-2.004-8.686-4.611c-1.508-2.607,1.118-6.925,0.34-9.843
					c-0.778-2.918-5.204-5.272-5.204-8.346s4.445-5.505,5.204-8.336c0.759-2.83-1.819-7.266-0.34-9.824
					c1.478-2.558,6.575-2.51,8.686-4.62c2.111-2.11,2.013-7.178,4.611-8.686c2.597-1.508,6.896,1.128,9.824,0.341
					c2.928-0.788,5.282-5.194,8.346-5.194c3.064,0,5.515,4.445,8.345,5.194c2.831,0.749,7.256-1.819,9.824-0.341
					c2.568,1.478,2.5,6.576,4.611,8.686c2.111,2.111,7.178,2.014,8.686,4.62c1.508,2.607-1.118,6.896-0.34,9.824
					C399.432,73.078,403.858,75.442,403.858,78.506z"/>
			</g>
		</g>
		<path style="fill:#407BFF;" d="M357.592,54.517c13.246-5.487,28.433,0.804,33.92,14.05c5.487,13.246-0.803,28.433-14.05,33.92
			c-13.246,5.487-28.433-0.804-33.92-14.05C338.055,75.19,344.345,60.004,357.592,54.517z"/>
		<path style="opacity:0.3;fill:#FFFFFF;enable-background:new    ;" d="M357.592,54.517c13.246-5.487,28.433,0.804,33.92,14.05
			c5.487,13.246-0.803,28.433-14.05,33.92c-13.246,5.487-28.433-0.804-33.92-14.05C338.055,75.19,344.345,60.004,357.592,54.517z"/>
	</g>
</g>
<g id="Car">
	<g>
		<path style="fill:#407BFF;" d="M469.986,413.784c0,0,116.209-3.595,116.677-3.846c7.351-3.947,3.272-23.474,3.272-23.474
			l-15.584-39.402l-24.994-24.112l-52.046,13.526l-22.888,7.531l-14.59,44.514L469.986,413.784z"/>
		<path style="opacity:0.5;" d="M469.986,413.784c0,0,116.209-3.595,116.677-3.846c7.351-3.947,3.272-23.474,3.272-23.474
			l-15.584-39.402l-24.994-24.112l-52.046,13.526l-22.888,7.531l-14.59,44.514L469.986,413.784z"/>
		<path style="fill:#263238;" d="M377.851,235.968c0,0,17.153-8.741,21.771-9.071c4.618-0.33,170.702-2.639,174.495-1.649
			c3.793,0.99,14.017,6.666,15.502,8.776l-9.405,6.233l-26.714-5.88c0,0-2.803-5.5-7.915-5.665c-5.113-0.165-37.769,0-37.769,0
			v6.167h-18.637v-4.518l-75.702,0.825c0,0-5.278,4.123-5.937,6.927C406.878,240.916,377.851,235.968,377.851,235.968z"/>
		<path style="fill:#407BFF;" d="M120.528,406.261c0,0,115.559,4.119,115.265,3.677c-0.294-0.442,7.351-29.258,7.351-29.258
			l-15.584-39.402l-24.994-24.112l-52.046,13.526l-22.888,7.531l-14.59,44.514L120.528,406.261z"/>
		<path style="opacity:0.5;" d="M120.528,406.261c0,0,115.559,4.119,115.265,3.677c-0.294-0.442,7.351-29.258,7.351-29.258
			l-15.584-39.402l-24.994-24.112l-52.046,13.526l-22.888,7.531l-14.59,44.514L120.528,406.261z"/>
		<path style="fill:#407BFF;" d="M642.28,347.858l-2.531-56.533l-41.767-57.376c0,0-197.02,1.688-245.115,3.797
			c-48.095,2.109-111.378,57.798-111.378,57.798c-53.22,3.841-102.077,10.358-138.787,24.324
			c-11.915,5.253-13.02,8.203-15.758,18.356v62.438c3.942,5.145,23.484,9.276,23.484,9.276l12.31-0.916
			c0.568-18.438,6.713-68.374,56.922-63.9c43.123,3.843,51.346,46.628,52.414,71.818l0,0l243.175,0.529
			c0.569-1.073,0.925-1.758,0.925-1.758s-4.564-76.066,56.897-70.589c43.428,3.87,51.459,47.232,52.434,72.347h4.039l53.256-16.117
			c6.455-1.953,10.87-7.902,10.87-14.647v-30.41L642.28,347.858z"/>
		<path style="fill:#263238;" d="M253.125,301.076c0,0,304.482-3.181,304.771-4.048c0.289-0.867,30.072-36.434,30.072-36.434
			l-17.928-18.795l-211.126,2.211c-8.303,0.118-18.978,2.115-26.97,4.37c-9.342,2.637-21.586,6.895-31.398,13.081
			C287.246,269.847,253.993,288.064,253.125,301.076z"/>
		<path style="fill:#407BFF;" d="M384.006,294.737l3.764-45.826c-14.249-0.749-28.343-0.438-37.074,1.007
			c0,0-19.371,1.484-38.718,12.698c-10.828,6.276-45.451,23.852-42.514,34.265L384.006,294.737z"/>
		<polygon style="fill:#407BFF;" points="401.767,294.587 401.767,248.849 489.721,247.029 500.026,291.886 		"/>
		<polygon style="fill:#407BFF;" points="508.133,291.464 499.246,247.029 567.057,246.489 580.214,261.953 556.642,290.791 		"/>
		<path style="opacity:0.5;fill:#FFFFFF;" d="M384.006,294.737l3.764-45.826c-14.249-0.749-28.343-0.438-37.074,1.007
			c0,0-19.371,1.484-38.718,12.698c-10.828,6.276-45.451,23.852-42.514,34.265L384.006,294.737z"/>
		<polygon style="opacity:0.5;fill:#FFFFFF;" points="401.767,294.587 401.767,248.849 489.721,247.029 500.026,291.886 		"/>
		<polygon style="opacity:0.5;fill:#FFFFFF;" points="508.133,291.464 499.246,247.029 567.057,246.489 580.214,261.953 
			556.642,290.791 		"/>
		<path style="fill:none;stroke:#407BFF;stroke-miterlimit:10;" d="M574.63,358.789c0,0,23.307-5.635,23.563-6.403
			s22.283-30.991,22.283-30.991"/>
		<polygon style="fill:#D7504D;" points="613.817,296.88 620.477,321.394 641.095,321.394 639.749,291.325 627.456,274.438 		"/>
		<path style="fill:none;stroke:#263238;stroke-miterlimit:10;" d="M506.275,294.587c0,0,7.874,14.344,7.874,21.366
			c0,7.022,0,30.33,0,30.33"/>
		<path style="fill:none;stroke:#263238;stroke-miterlimit:10;" d="M390.916,297.916l-7.724,27.792c0,0-1.053,42.817,1.404,54.403
			c2.458,11.586,6.32,18.608,6.32,18.608"/>
		<path style="fill:none;stroke:#263238;stroke-miterlimit:10;" d="M253.921,299.975c0,0-9.06,24.313-9.411,38.357
			c-0.351,14.044,0.891,36.865,4.308,49.153c3.416,12.288,8.332,10.884,11.843,11.235c3.511,0.351,211.006,0,211.006,0"/>
		<polygon style="fill:#407BFF;" points="597.982,233.949 620.477,233.949 620.477,240.256 611.675,252.759 		"/>
		<polygon style="opacity:0.3;" points="584.402,372.476 642.28,347.858 653.671,356.295 583.286,378.14 		"/>
		<path style="opacity:0.3;" d="M232.073,416.929c0,0,13.479-17.316,21.131-17.936c7.652-0.62,218.463,0,218.463,0l-30.436,4.403
			c0,0-176.932-0.193-182.671,4.77c-5.739,4.963-9.974,8.809-9.974,8.809L232.073,416.929z"/>
		<g>
			<ellipse style="fill:#263238;" cx="175.739" cy="398.72" rx="47.69" ry="47.582"/>
			<ellipse style="opacity:0.4;fill:#FFFFFF;enable-background:new    ;" cx="175.739" cy="398.72" rx="29.238" ry="29.172"/>
			<g style="opacity:0.3;">
				<path style="fill:#FFFFFF;" d="M178.075,374.805v14.954c0,1.287-1.045,2.329-2.335,2.329h-0.015
					c-1.289,0-2.335-1.043-2.335-2.329v-14.954c0-1.286,1.045-2.329,2.335-2.329h0.015
					C177.03,372.476,178.075,373.519,178.075,374.805z"/>
			</g>
			<g style="opacity:0.3;">
				<path style="fill:#FFFFFF;" d="M178.075,407.674v14.954c0,1.287-1.045,2.329-2.335,2.329h-0.015
					c-1.289,0-2.335-1.043-2.335-2.329v-14.954c0-1.287,1.045-2.33,2.335-2.33h0.015
					C177.03,405.345,178.075,406.388,178.075,407.674z"/>
			</g>
			<g style="opacity:0.3;">
				<path style="fill:#FFFFFF;" d="M184.656,396.271c-1.115,0.629-2.531,0.238-3.161-0.875l0,0c0,0-0.001-0.001-0.001-0.001
					c-0.648-1.112-0.27-2.538,0.844-3.185l12.984-7.515c0.002-0.001,0.004-0.002,0.006-0.003c1.118-0.641,2.545-0.256,3.187,0.86
					l0,0c0.001,0.002,0.002,0.004,0.003,0.006c0.642,1.116,0.256,2.54-0.862,3.18l-12.969,7.515
					C184.678,396.258,184.667,396.264,184.656,396.271z"/>
			</g>
			<g style="opacity:0.3;">
				<path style="fill:#FFFFFF;" d="M152.95,411.777L152.95,411.777c-0.001-0.002-0.002-0.004-0.003-0.006
					c-0.642-1.116-0.256-2.54,0.862-3.18l12.969-7.515c1.119-0.649,2.554-0.273,3.208,0.842l0,0
					c0.648,1.121,0.264,2.553-0.859,3.201l-12.969,7.515C155.035,413.28,153.599,412.897,152.95,411.777z"/>
			</g>
			<g style="opacity:0.3;">
				<path style="fill:#FFFFFF;" d="M198.513,411.843c-0.645,1.114-2.074,1.495-3.19,0.851l-12.984-7.515
					c-1.117-0.653-1.494-2.085-0.844-3.201l0,0c0,0,0-0.001,0.001-0.001c0.649-1.112,2.079-1.488,3.193-0.841l12.969,7.515
					c0.002,0.001,0.004,0.002,0.006,0.004c1.116,0.644,1.498,2.069,0.853,3.183l0,0
					C198.515,411.839,198.514,411.841,198.513,411.843z"/>
			</g>
			<g style="opacity:0.3;">
				<path style="fill:#FFFFFF;" d="M169.973,395.419c-0.652,1.11-2.082,1.483-3.195,0.833l-12.969-7.515
					c-0.002-0.001-0.004-0.002-0.006-0.003c-1.116-0.644-1.498-2.069-0.853-3.183l0,0c0.649-1.12,2.085-1.503,3.208-0.857
					l12.969,7.515c0.002,0.001,0.004,0.002,0.006,0.004c1.116,0.644,1.498,2.069,0.853,3.183l0,0
					C169.982,395.403,169.977,395.411,169.973,395.419z"/>
			</g>
			<path style="fill:#263238;" d="M175.741,394.794L175.741,394.794c2.171,0,3.932,1.756,3.932,3.923
				c0,2.166-1.76,3.923-3.932,3.923s-3.932-1.756-3.932-3.923C171.809,396.551,173.569,394.794,175.741,394.794z"/>
		</g>
		<g>
			<ellipse style="fill:#263238;" cx="529.378" cy="398.72" rx="47.69" ry="47.582"/>
			<ellipse style="opacity:0.4;fill:#FFFFFF;enable-background:new    ;" cx="529.378" cy="398.72" rx="29.238" ry="29.172"/>
			<g style="opacity:0.3;">
				<path style="fill:#FFFFFF;" d="M531.714,374.805v14.954c0,1.287-1.045,2.329-2.335,2.329h-0.015
					c-1.289,0-2.335-1.043-2.335-2.329v-14.954c0-1.286,1.045-2.329,2.335-2.329h0.015
					C530.669,372.476,531.714,373.519,531.714,374.805z"/>
			</g>
			<g style="opacity:0.3;">
				<path style="fill:#FFFFFF;" d="M531.714,407.674v14.954c0,1.287-1.045,2.329-2.335,2.329h-0.015
					c-1.289,0-2.335-1.043-2.335-2.329v-14.954c0-1.287,1.045-2.33,2.335-2.33h0.015
					C530.669,405.345,531.714,406.388,531.714,407.674z"/>
			</g>
			<g style="opacity:0.3;">
				<path style="fill:#FFFFFF;" d="M538.294,396.271c-1.115,0.629-2.531,0.238-3.161-0.875l0,0c0,0-0.001-0.001-0.001-0.001
					c-0.648-1.112-0.27-2.538,0.844-3.185l12.984-7.515c0.002-0.001,0.004-0.002,0.006-0.003c1.118-0.641,2.545-0.256,3.187,0.86
					l0,0c0.001,0.002,0.002,0.004,0.003,0.006c0.642,1.116,0.256,2.54-0.862,3.18l-12.969,7.515
					C538.316,396.258,538.305,396.264,538.294,396.271z"/>
			</g>
			<g style="opacity:0.3;">
				<path style="fill:#FFFFFF;" d="M506.589,411.777L506.589,411.777c-0.001-0.002-0.002-0.004-0.004-0.006
					c-0.642-1.116-0.256-2.54,0.862-3.18l12.97-7.515c1.119-0.649,2.554-0.273,3.208,0.842l0,0c0.648,1.121,0.264,2.553-0.859,3.201
					l-12.969,7.515C508.674,413.28,507.238,412.897,506.589,411.777z"/>
			</g>
			<g style="opacity:0.3;">
				<path style="fill:#FFFFFF;" d="M552.151,411.843c-0.646,1.114-2.074,1.495-3.19,0.851l-12.984-7.515
					c-1.117-0.653-1.494-2.085-0.844-3.201l0,0c0,0,0-0.001,0.001-0.001c0.649-1.112,2.078-1.488,3.193-0.841l12.969,7.515
					c0.002,0.001,0.004,0.002,0.006,0.004c1.116,0.644,1.498,2.069,0.852,3.183l0,0
					C552.154,411.839,552.152,411.841,552.151,411.843z"/>
			</g>
			<g style="opacity:0.3;">
				<path style="fill:#FFFFFF;" d="M523.611,395.419c-0.652,1.11-2.082,1.483-3.195,0.833l-12.969-7.515
					c-0.002-0.001-0.004-0.002-0.006-0.003c-1.116-0.644-1.498-2.069-0.853-3.183l0,0c0.65-1.12,2.085-1.503,3.208-0.857
					l12.969,7.515c0.002,0.001,0.004,0.002,0.006,0.004c1.116,0.644,1.498,2.069,0.853,3.183l0,0
					C523.62,395.403,523.616,395.411,523.611,395.419z"/>
			</g>
			<path style="fill:#263238;" d="M529.379,394.794L529.379,394.794c2.171,0,3.931,1.756,3.931,3.923
				c0,2.166-1.76,3.923-3.931,3.923c-2.171,0-3.932-1.756-3.932-3.923C525.448,396.551,527.208,394.794,529.379,394.794z"/>
		</g>
		<path style="opacity:0.5;fill:#FFFFFF;" d="M299.148,276.578c0,0,26.723-22.436,55.643-24.665c27.402-2.112,30.56,0.09,30.56,0.09
			l-2.385,20.695L299.148,276.578z"/>
		<polygon style="opacity:0.5;fill:#FFFFFF;" points="403.476,250.997 404.18,270.808 492.602,267.828 488.158,249.816 		"/>
		<polygon style="opacity:0.5;fill:#FFFFFF;" points="501.888,249.816 505.387,265.581 573.443,257.699 565.06,248.913 		"/>
		<path style="fill:#407BFF;" d="M285.597,286.738c-0.127-2.078-1.767-3.729-3.842-3.897c-6.345-0.514-18.689,0.124-17.751,13.064
			c0.956,13.193,13.538,10.983,19.521,9.162c1.84-0.56,3.048-2.312,2.931-4.232L285.597,286.738z"/>
		<path style="fill:#D7504D;" d="M264.004,295.906l14.398,1.043c0,0,0.092,3.12-1.652,3.487c-1.743,0.367-11.768,0-11.768,0
			S264.04,297.882,264.004,295.906z"/>
		<path style="fill:none;stroke:#263238;stroke-miterlimit:10;" d="M285.695,288.353c-0.188-3.082-2.688-5.521-5.775-5.614
			c-6.614-0.199-16.77,1.385-15.916,13.167c0.928,12.807,12.811,11.099,18.98,9.322c2.15-0.619,3.579-2.645,3.443-4.878
			L285.695,288.353z"/>
		<g>
			<ellipse style="opacity:0.3;" cx="361.535" cy="320.435" rx="13.634" ry="6.898"/>
			<rect x="347.603" y="317.818" style="fill:#407BFF;" width="27.863" height="5.235"/>
		</g>
		<g>
			<ellipse style="opacity:0.3;" cx="492.602" cy="320.435" rx="13.634" ry="6.898"/>
			<rect x="478.671" y="317.818" style="fill:#407BFF;" width="27.863" height="5.235"/>
		</g>
		<ellipse style="fill:none;stroke:#263238;stroke-miterlimit:10;" cx="577.066" cy="312.644" rx="10.903" ry="10.306"/>
		<path style="opacity:0.3;" d="M132.183,323.185h15.883c0,0-34.907,27.595-43.197,28.7c-8.29,1.105-12.247-2.014-12.247-2.014
			l-0.674-15.788c0,0,4.556-6.378,11.809-8.149C112.13,323.89,132.183,323.185,132.183,323.185z"/>
		<path style="fill:#FFFFFF;" d="M132.147,326.858l1.724,6.307c0,0-20.711,14.22-29.002,15.325
			c-8.29,1.105-12.287-1.912-12.287-1.912l-0.635-12.495c0,0,5.46-7.976,12.921-8.252
			C112.33,325.555,132.147,326.858,132.147,326.858z"/>
		<path style="opacity:0.3;" d="M251.325,298.253c0,0-3.848,3.948-5.126,4.054c-1.278,0.106-111.388,18.129-111.388,18.129
			s26.163-7.689,47.343-11.777C215.568,302.207,251.325,298.253,251.325,298.253z"/>
		<path style="opacity:0.3;" d="M103.748,360.812c-6.347,0.353-5.492,11.664-5.492,11.664l-11.312,12.94v15.246
			c3.942,5.145,23.484,9.276,23.484,9.276l12.31-0.916c0.299-9.699,2.145-28.112,11.133-42.738l0,0
			C133.87,366.283,110.094,360.46,103.748,360.812z"/>
		<path style="fill:#263238;" d="M86.944,355.699c0,0,7.767-2.04,9.181,4.704c2.003,9.548,5.035,31.751,5.035,31.751
			s-10.07-4.939-14.216-1.176V355.699z"/>
		<path style="opacity:0.5;fill:#FFFFFF;" d="M627.456,277.797c0,0-8.834,16.295-8.104,16.79
			c2.263,1.53,17.579,10.948,17.748,10.368c0.757-2.599,0.5-8.257,0.247-11.708c-0.135-1.841-0.811-3.6-1.934-5.065L627.456,277.797
			z"/>
	</g>
</g>
</svg>
