<?xml version="1.0" encoding="utf-8"?>
<!-- Generator: Adobe Illustrator 27.5.0, SVG Export Plug-In . SVG Version: 6.00 Build 0)  -->
<svg version="1.1" xmlns="http://www.w3.org/2000/svg" xmlns:xlink="http://www.w3.org/1999/xlink" x="0px" y="0px"
	 viewBox="0 0 500 500" style="enable-background:new 0 0 500 500;" xml:space="preserve">
<g id="BACKGROUND">
	<rect style="fill-rule:evenodd;clip-rule:evenodd;fill:#FFFFFF;" width="500" height="500"/>
</g>
<g id="OBJECTS">
	<g>
		<path style="fill-rule:evenodd;clip-rule:evenodd;fill:#E2E7F5;" d="M101.998,394.512c-44.449,0-80.816-36.368-80.816-80.816
			v-0.001c0-44.448,36.367-80.815,80.815-80.815h0c18.794-0.001,34.171-15.377,34.171-34.17l0,0
			c0-18.794-15.377-34.172-34.171-34.172h-4.066c-19.54,0-35.526-15.986-35.526-35.526l0,0c0-19.54,15.987-35.526,35.526-35.526
			h74.451c7.606,0,13.83-6.224,13.83-13.831l0,0c0-7.607-6.224-13.83-13.83-13.83h-9.167c-5.251,0-9.545-4.296-9.545-9.546l0,0
			c0-5.25,4.295-9.546,9.545-9.546h34.357c0,0,13.128,0,25.796,0c12.669,0,14.08,14.967,46.08,14.967c49.469,0,24.734,0,74.203,0
			c6.85,0,12.455,5.605,12.455,12.454v0.001c0,6.85-5.605,12.456-12.455,12.456h-11.963c-9.926,0-18.047,8.122-18.047,18.047v0.001
			c0,9.926,8.121,18.047,18.047,18.047h85.203c25.498,0,46.359,20.862,46.359,46.358l0,0c0,25.497-20.863,46.357-46.359,46.357
			h-5.307c-24.522,0-44.588,20.066-44.588,44.588l0,0c0,24.523,20.066,44.59,44.588,44.59h22.275
			c24.727,0,44.957,20.229,44.957,44.956l0,0c0,24.727-20.23,44.958-44.957,44.958C305.935,394.512,229.924,394.512,101.998,394.512
			L101.998,394.512z M136.428,65.823c5.271,0,9.546-4.274,9.546-9.546c0-5.271-4.274-9.546-9.546-9.546s-9.545,4.274-9.545,9.546
			C126.882,61.55,131.156,65.823,136.428,65.823z"/>
		<g>
			<g>
				<path style="fill-rule:evenodd;clip-rule:evenodd;fill:#FFFFFF;" d="M147.355,102.859h34.506c1.347,0,2.449,1.102,2.449,2.449
					v49.023c0,1.348-1.102,2.45-2.449,2.45h-34.506c-1.348,0-2.45-1.102-2.45-2.45v-49.023
					C144.905,103.962,146.007,102.859,147.355,102.859z"/>
				<path style="fill-rule:evenodd;clip-rule:evenodd;fill:#FFFFFF;" d="M192.996,102.859h34.506c1.348,0,2.45,1.102,2.45,2.449
					v49.023c0,1.348-1.102,2.45-2.45,2.45h-34.506c-1.347,0-2.449-1.102-2.449-2.45v-49.023
					C190.546,103.962,191.648,102.859,192.996,102.859z"/>
				<path style="fill-rule:evenodd;clip-rule:evenodd;fill:#FFFFFF;" d="M147.355,164.529h34.506c1.347,0,2.449,1.102,2.449,2.449
					v49.023c0,1.348-1.102,2.45-2.449,2.45h-34.506c-1.348,0-2.45-1.102-2.45-2.45v-49.023
					C144.905,165.631,146.007,164.529,147.355,164.529z"/>
				<path style="fill-rule:evenodd;clip-rule:evenodd;fill:#FFFFFF;" d="M192.996,164.529h34.506c1.348,0,2.45,1.102,2.45,2.449
					v49.023c0,1.348-1.102,2.45-2.45,2.45h-34.506c-1.347,0-2.449-1.102-2.449-2.45v-49.023
					C190.546,165.631,191.648,164.529,192.996,164.529z"/>
			</g>
			<path style="fill-rule:evenodd;clip-rule:evenodd;fill:#C2C6D5;" d="M137.609,221.987h101.477c1.17,0,2.129,0.957,2.129,2.129
				l0,0c0,1.17-0.958,2.129-2.129,2.129h-6.73v7.694h-88.018v-7.694h-6.729c-1.171,0-2.129-0.958-2.129-2.129l0,0
				C135.48,222.945,136.438,221.987,137.609,221.987z"/>
		</g>
		<g>
			<path style="fill-rule:evenodd;clip-rule:evenodd;fill:#6CB3AD;" d="M105.208,276.457c-32.198,7.21-52.454,39.156-45.245,71.353
				c7.21,32.198,39.156,52.455,71.354,45.244c32.197-7.209,52.455-39.155,45.244-71.353
				C169.353,289.503,137.406,269.247,105.208,276.457z"/>
			<path style="fill-rule:evenodd;clip-rule:evenodd;fill:#86BFBA;" d="M111.972,280.101c-23.563,3.962-38.387,21.515-33.111,39.205
				c5.276,17.691,28.655,28.821,52.218,24.86c23.563-3.962,38.387-21.515,33.111-39.205
				C158.913,287.27,135.534,276.14,111.972,280.101z"/>
			<path style="fill-rule:evenodd;clip-rule:evenodd;fill:#487B70;" d="M91.742,386.625c5.075,0.284,10.245,0.236,15.471-0.163
				c5.696-0.435,11.45-1.284,17.216-2.575c8.578-1.922,16.704-4.706,24.276-8.216c7.425-3.442,14.31-7.581,20.555-12.285
				c1.465-1.103,2.591,0.166,0.889,1.443c-6.31,4.739-13.256,8.907-20.737,12.376c-7.669,3.555-15.91,6.378-24.62,8.328
				c-5.864,1.313-11.698,2.176-17.454,2.616c-5.244,0.4-10.434,0.451-15.535,0.173C88.928,388.166,89.062,386.476,91.742,386.625
				L91.742,386.625z M72.333,297.985c4.162,0.306,8.933,0.247,14.108-0.194c5.653-0.48,11.768-1.416,18.076-2.829
				c8.041-1.8,15.455-4.164,21.77-6.813c5.702-2.393,10.486-5.009,14-7.644c2.254-1.689,3.201-0.296,1.101,1.287
				c-3.64,2.744-8.577,5.455-14.445,7.917c-6.383,2.678-13.895,5.071-22.061,6.899c-6.41,1.435-12.599,2.383-18.301,2.869
				c-5.454,0.464-10.485,0.508-14.86,0.153C69.995,299.492,69.798,297.799,72.333,297.985L72.333,297.985z M62.594,318.991
				c-3.088-0.311-3.123,1.378-0.476,1.652c6.656,0.691,13.989,0.801,21.761,0.282c8.137-0.544,16.764-1.778,25.604-3.759
				c10.667-2.389,20.588-5.624,29.371-9.416c8.803-3.802,16.48-8.171,22.634-12.816c1.145-0.864,0.056-2.16-0.965-1.387
				c-6.049,4.575-13.627,8.888-22.336,12.648c-8.706,3.761-18.526,6.964-29.066,9.324c-8.742,1.957-17.284,3.179-25.353,3.718
				C76.215,319.742,69.083,319.645,62.594,318.991L62.594,318.991z M60.676,342.948c8.007,0.603,16.542,0.588,25.421-0.098
				c9.109-0.702,18.572-2.104,28.189-4.258c11.517-2.579,22.368-6.034,32.279-10.139c9.733-4.032,18.554-8.691,26.205-13.764
				c1.924-1.275,2.866,0.123,0.908,1.421c-7.738,5.128-16.648,9.835-26.472,13.903c-9.991,4.14-20.935,7.622-32.556,10.225
				c-9.716,2.176-19.258,3.592-28.429,4.299c-8.987,0.692-17.625,0.707-25.726,0.094C58.399,344.473,58.487,342.783,60.676,342.948
				L60.676,342.948z M68.915,365.475c-2.135-0.186-2.338,1.512-0.118,1.625c7.854,0.401,16.056,0.808,24.477,0.264
				c8.663-0.585,17.57-1.861,26.581-3.879c11.121-2.489,21.624-5.939,31.315-10.147c9.539-4.143,18.29-9.022,26.064-14.447
				c1.913-1.335,0.667-2.531-0.612-1.634c-7.779,5.467-16.551,10.376-26.121,14.533c-9.595,4.168-19.997,7.583-31.01,10.049
				c-8.913,1.996-17.736,3.259-26.33,3.838C84.811,366.241,76.687,366.158,68.915,365.475z"/>
		</g>
		<g>
			<g>
				<path style="fill-rule:evenodd;clip-rule:evenodd;fill:#203137;" d="M326.612,315.339c-12.801-4.961-16.051,5.834-11.074,14.771
					c4.979,8.938,30.516,38.999,31.848,50.922c0.518,4.62,1.699,4.116,2.711,0.876C355.142,365.746,344.233,322.168,326.612,315.339
					z"/>
				<path style="fill-rule:evenodd;clip-rule:evenodd;fill:#447056;" d="M348.257,384.253c0.369,0.386,0.793,0.084,1.217-0.745
					c1.84-28.441-28.656-64.889-28.754-65.006c-0.166-0.2-0.525-0.265-0.801-0.144c-0.275,0.122-0.365,0.384-0.197,0.584
					C319.819,319.06,350.733,356.003,348.257,384.253z"/>
				<g>
					<path style="fill-rule:evenodd;clip-rule:evenodd;fill:#447056;" d="M353.716,274.388c14.678-9.636,23.855,3.852,21.318,16.864
						c-2.537,13.011-22.697,58.891-19.066,74.972c1.406,6.233-0.385,5.85-3.188,1.81
						C338.802,347.881,333.511,287.653,353.716,274.388z"/>
					<path style="fill-rule:evenodd;clip-rule:evenodd;fill:#203137;" d="M356.274,370.692c-0.314,0.599-1.012,0.301-1.947-0.693
						c-15.297-37.155,8.533-92.668,8.607-92.846c0.129-0.306,0.574-0.478,0.994-0.383c0.42,0.094,0.656,0.419,0.525,0.725
						C364.378,277.673,340.224,333.944,356.274,370.692z"/>
				</g>
				<g>
					<path style="fill-rule:evenodd;clip-rule:evenodd;fill:#B6CF8C;" d="M385.774,305.259c14.223-4.514,16.455,7.198,10.123,16.43
						c-6.33,9.231-37.008,39.748-39.793,52.386c-1.08,4.898-2.283,4.288-2.992,0.77
						C349.577,357.296,366.196,311.472,385.774,305.259z"/>
					<path style="fill-rule:evenodd;clip-rule:evenodd;fill:#739655;" d="M354.806,377.458c-0.438,0.388-0.855,0.041-1.213-0.87
						c1.289-30.451,37.988-67.479,38.105-67.597c0.201-0.205,0.592-0.252,0.871-0.105c0.279,0.146,0.346,0.432,0.145,0.635
						C392.597,309.641,355.396,347.172,354.806,377.458z"/>
				</g>
			</g>
			<g>
				<polygon style="fill-rule:evenodd;clip-rule:evenodd;fill:#3F425E;" points="365.749,365.625 338.425,365.625 331.29,372.063 
					337.118,394.512 352.087,394.512 367.056,394.512 372.882,372.063 				"/>
				<path style="fill-rule:evenodd;clip-rule:evenodd;fill:#3F425E;" d="M372.882,357.271h-41.59c-1.244,0-2.262,1.019-2.262,2.263
					v10.269c0,1.243,1.018,2.261,2.262,2.261h41.59c1.244,0,2.264-1.018,2.264-2.261v-10.269
					C375.146,358.29,374.126,357.271,372.882,357.271z"/>
				<polygon style="fill-rule:evenodd;clip-rule:evenodd;fill:#181C39;" points="331.29,372.063 332.489,376.677 371.685,376.677 
					372.882,372.063 				"/>
			</g>
		</g>
		<path style="fill-rule:evenodd;clip-rule:evenodd;fill:#4F8276;" d="M128.863,453.269h109.923h123.889
			c6.572,0,11.949-5.377,11.949-11.948l0,0c0-6.571-5.377-11.948-11.949-11.948h-13.563c-3.016,0-5.483-2.467-5.483-5.482l0,0
			c0-3.016,2.467-5.482,5.483-5.482h106.246c6.57,0,11.947-5.376,11.947-11.947l0,0c0-6.571-5.377-11.948-11.947-11.948H310.962
			H93.982c-6.571,0-11.948,5.376-11.948,11.948l0,0c0,6.571,5.377,11.947,11.948,11.947h40.7c3.016,0,5.482,2.468,5.482,5.482l0,0
			c0,3.016-2.466,5.482-5.482,5.482h-5.819c-6.571,0-11.948,5.377-11.948,11.948l0,0
			C116.915,447.892,122.291,453.269,128.863,453.269z"/>
		<g>
			<path style="fill-rule:evenodd;clip-rule:evenodd;fill:#BFC3D0;" d="M450.942,137.689c2.639,2.861,4.926,6.053,6.787,9.503
				H347.21c-2.613,0-4.75-2.138-4.75-4.752l0,0c0-2.613,2.137-4.751,4.75-4.751H450.942z"/>
			<path style="fill-rule:evenodd;clip-rule:evenodd;fill:#A97858;" d="M345.659,134.214h128.289c2.678,0,4.869,2.191,4.869,4.87
				l0,0c0,2.678-2.191,4.869-4.869,4.869H345.659c-2.678,0-4.869-2.191-4.869-4.869l0,0
				C340.79,136.405,342.981,134.214,345.659,134.214z"/>
			<path style="fill-rule:evenodd;clip-rule:evenodd;fill:#5B3D30;" d="M355.634,88.409h7.733c1.242,0,2.258,1.016,2.258,2.258
				v41.29c0,1.242-1.016,2.257-2.258,2.257h-7.733c-1.242,0-2.258-1.016-2.258-2.257v-41.29
				C353.376,89.425,354.392,88.409,355.634,88.409z"/>
			<path style="fill-rule:evenodd;clip-rule:evenodd;fill:#CA6D18;" d="M373.071,97.927h-5.189c-1.24,0-2.258,1.016-2.258,2.257
				v31.772c0,1.242,1.018,2.257,2.258,2.257h5.189c1.24,0,2.258-1.016,2.258-2.257v-31.772
				C375.329,98.943,374.312,97.927,373.071,97.927z"/>
			<path style="fill-rule:evenodd;clip-rule:evenodd;fill:#5C8763;" d="M377.585,88.409h7.734c1.242,0,2.258,1.016,2.258,2.258
				v41.29c0,1.242-1.016,2.257-2.258,2.257h-7.734c-1.24,0-2.256-1.016-2.256-2.257v-41.29
				C375.329,89.425,376.345,88.409,377.585,88.409z"/>
			<path style="fill-rule:evenodd;clip-rule:evenodd;fill:#CA6D18;" d="M393.337,99.463l-4.592,2.413
				c-1.1,0.577-1.527,1.949-0.951,3.048l14.775,28.127c0.578,1.1,1.949,1.527,3.049,0.949l4.594-2.413
				c1.1-0.578,1.525-1.95,0.947-3.049l-14.773-28.127C395.808,99.312,394.437,98.885,393.337,99.463z"/>
			<path style="fill-rule:evenodd;clip-rule:evenodd;fill:#796259;" d="M357.187,124.894h4.627c1.242,0,2.258,1.017,2.258,2.258
				v2.274c0,1.242-1.016,2.257-2.258,2.257h-4.627c-1.242,0-2.258-1.016-2.258-2.257v-2.274
				C354.929,125.911,355.944,124.894,357.187,124.894z"/>
			<path style="fill-rule:evenodd;clip-rule:evenodd;fill:#D6871F;" d="M369.104,99.206h2.744c1.242,0,2.258,1.016,2.258,2.257
				v2.274c0,1.242-1.016,2.258-2.258,2.258h-2.744c-1.244,0-2.26-1.017-2.26-2.258v-2.274
				C366.845,100.222,367.86,99.206,369.104,99.206z"/>
			<path style="fill-rule:evenodd;clip-rule:evenodd;fill:#90AE7E;" d="M379.138,124.894h4.629c1.242,0,2.258,1.017,2.258,2.258
				v2.274c0,1.242-1.016,2.257-2.258,2.257h-4.629c-1.24,0-2.256-1.016-2.256-2.257v-2.274
				C376.882,125.911,377.897,124.894,379.138,124.894z"/>
			<path style="fill-rule:evenodd;clip-rule:evenodd;fill:#D6871F;" d="M402.911,126.416l2.438-1.264
				c1.103-0.572,2.473-0.138,3.045,0.965l1.047,2.019c0.572,1.102,0.137,2.472-0.965,3.044l-2.438,1.264
				c-1.103,0.571-2.473,0.138-3.045-0.965l-1.047-2.019C401.374,128.356,401.81,126.987,402.911,126.416z"/>
			<g>
				<path style="fill-rule:evenodd;clip-rule:evenodd;fill:#A97858;" d="M367.694,148.826h5.732c0.41,0,0.746,0.335,0.746,0.746
					v7.405c0,0.41-0.336,0.747-0.746,0.747h-5.732c-0.41,0-0.746-0.336-0.746-0.747v-7.405
					C366.948,149.162,367.284,148.826,367.694,148.826z"/>
				<path style="fill-rule:evenodd;clip-rule:evenodd;fill:#5B3D30;" d="M366.667,144.075h7.787c0.373,0,0.678,0.306,0.678,0.679
					v5.216c0,0.374-0.305,0.679-0.678,0.679h-7.787c-0.373,0-0.678-0.305-0.678-0.679v-5.216
					C365.989,144.38,366.294,144.075,366.667,144.075z"/>
			</g>
			<g>
				<path style="fill-rule:evenodd;clip-rule:evenodd;fill:#A97858;" d="M444.315,148.826h5.732c0.41,0,0.744,0.335,0.744,0.746
					v7.405c0,0.41-0.334,0.747-0.744,0.747h-5.732c-0.41,0-0.746-0.336-0.746-0.747v-7.405
					C443.569,149.162,443.905,148.826,444.315,148.826z"/>
				<path style="fill-rule:evenodd;clip-rule:evenodd;fill:#5B3D30;" d="M443.288,144.075h7.785c0.375,0,0.68,0.306,0.68,0.679
					v5.216c0,0.374-0.305,0.679-0.68,0.679h-7.785c-0.373,0-0.678-0.305-0.678-0.679v-5.216
					C442.61,144.38,442.915,144.075,443.288,144.075z"/>
			</g>
			<g>
				<g>
					<path style="fill-rule:evenodd;clip-rule:evenodd;fill:#447056;" d="M425.556,106.566c-2.613,6.655,10.096,8.464,11.627,4.564
						C438.714,107.231,428.169,99.911,425.556,106.566z"/>
					<path style="fill-rule:evenodd;clip-rule:evenodd;fill:#5C8763;" d="M425.556,106.566c-1.92,4.891,10.502,7.431,11.627,4.564
						C438.308,108.265,427.476,101.674,425.556,106.566z"/>
					<path style="fill-rule:evenodd;clip-rule:evenodd;fill:#447056;" d="M425.556,106.566c-0.783,1.994,11.168,5.733,11.627,4.564
						C437.642,109.962,426.339,104.571,425.556,106.566z"/>
				</g>
				<g>
					<path style="fill-rule:evenodd;clip-rule:evenodd;fill:#5C8763;" d="M466.257,99.003c-4.447-5.597-12.387,4.492-9.779,7.771
						C459.083,110.054,470.706,104.601,466.257,99.003z"/>
					<path style="fill-rule:evenodd;clip-rule:evenodd;fill:#447056;" d="M466.257,99.003c-3.27-4.114-11.695,5.361-9.779,7.771
						C458.394,109.186,469.526,103.117,466.257,99.003z"/>
					<path style="fill-rule:evenodd;clip-rule:evenodd;fill:#5C8763;" d="M466.257,99.003c-1.332-1.678-10.561,6.789-9.779,7.771
						C457.259,107.758,467.589,100.681,466.257,99.003z"/>
				</g>
				<path style="fill-rule:evenodd;clip-rule:evenodd;fill:#447056;" d="M446.214,93.211c-17.478,0-10.24,30.538,0,30.538
					C456.456,123.749,463.692,93.211,446.214,93.211z"/>
				<path style="fill-rule:evenodd;clip-rule:evenodd;fill:#5C8763;" d="M446.214,93.211c-12.846,0-7.527,30.538,0,30.538
					C453.741,123.749,459.062,93.211,446.214,93.211z"/>
				<path style="fill-rule:evenodd;clip-rule:evenodd;fill:#447056;" d="M446.214,93.211c-5.236,0-3.068,30.538,0,30.538
					C449.284,123.749,451.452,93.211,446.214,93.211z"/>
				<path style="fill-rule:evenodd;clip-rule:evenodd;fill:#3F425E;" d="M461.665,121.767h-31.17c0,5.086,2.438,9.603,6.207,12.447
					h18.756C459.228,131.37,461.665,126.853,461.665,121.767z"/>
				<g>
					<path style="fill-rule:evenodd;clip-rule:evenodd;fill:#447056;" d="M435.124,99.227c-0.275-0.147-0.377-0.49-0.23-0.764
						c0.147-0.274,0.49-0.377,0.764-0.229l2.045,1.1c0.275,0.147,0.377,0.489,0.23,0.763c-0.146,0.274-0.488,0.377-0.764,0.229
						L435.124,99.227z"/>
					<path style="fill-rule:evenodd;clip-rule:evenodd;fill:#447056;" d="M455.077,94.954c0.244-0.192,0.598-0.151,0.791,0.092
						c0.191,0.243,0.15,0.597-0.094,0.79l-1.824,1.439c-0.242,0.192-0.596,0.151-0.789-0.092c-0.191-0.244-0.15-0.598,0.094-0.79
						L455.077,94.954z"/>
					<path style="fill-rule:evenodd;clip-rule:evenodd;fill:#447056;" d="M457.106,112.663c0.295,0.096,0.459,0.412,0.363,0.708
						c-0.096,0.296-0.412,0.459-0.709,0.364l-2.209-0.716c-0.297-0.095-0.459-0.412-0.365-0.708
						c0.096-0.296,0.412-0.459,0.709-0.364L457.106,112.663z"/>
					<path style="fill-rule:evenodd;clip-rule:evenodd;fill:#447056;" d="M438.577,115.883c0.279-0.138,0.617-0.023,0.756,0.255
						c0.137,0.279,0.021,0.617-0.256,0.754l-2.082,1.033c-0.279,0.138-0.617,0.024-0.754-0.255
						c-0.137-0.279-0.024-0.617,0.256-0.754L438.577,115.883z"/>
					<path style="fill-rule:evenodd;clip-rule:evenodd;fill:#447056;" d="M446.085,105.302c0.311,0.005,0.559,0.26,0.553,0.571
						c-0.004,0.311-0.26,0.558-0.57,0.554l-1.477-0.025c-0.311-0.005-0.559-0.261-0.553-0.571c0.004-0.311,0.262-0.559,0.57-0.554
						L446.085,105.302z"/>
					<path style="fill-rule:evenodd;clip-rule:evenodd;fill:#447056;" d="M440.323,95.33c0.191,0.245,0.15,0.599-0.094,0.791
						c-0.246,0.193-0.6,0.15-0.793-0.094l-0.912-1.16c-0.191-0.245-0.148-0.6,0.096-0.792c0.244-0.192,0.6-0.15,0.791,0.095
						L440.323,95.33z"/>
					<path style="fill-rule:evenodd;clip-rule:evenodd;fill:#447056;" d="M431.604,104.526c0.018,0.31-0.221,0.576-0.531,0.593
						c-0.311,0.017-0.576-0.221-0.594-0.532l-0.082-1.473c-0.018-0.311,0.221-0.577,0.531-0.594c0.31-0.017,0.576,0.222,0.592,0.532
						L431.604,104.526z"/>
					<path style="fill-rule:evenodd;clip-rule:evenodd;fill:#447056;" d="M428.208,113.366c-0.254,0.178-0.605,0.116-0.783-0.139
						c-0.178-0.254-0.115-0.605,0.141-0.783l1.211-0.844c0.254-0.178,0.603-0.116,0.781,0.139c0.178,0.255,0.117,0.604-0.139,0.782
						L428.208,113.366z"/>
					<path style="fill-rule:evenodd;clip-rule:evenodd;fill:#447056;" d="M466.222,104.28c-0.301-0.085-0.475-0.397-0.389-0.696
						c0.086-0.3,0.396-0.474,0.697-0.388l1.42,0.404c0.299,0.085,0.473,0.397,0.387,0.697c-0.084,0.299-0.396,0.473-0.695,0.388
						L466.222,104.28z"/>
					<path style="fill-rule:evenodd;clip-rule:evenodd;fill:#447056;" d="M460.228,96.882c-0.065-0.305,0.129-0.604,0.434-0.668
						c0.305-0.065,0.603,0.13,0.668,0.435l0.307,1.444c0.064,0.305-0.129,0.604-0.434,0.668c-0.305,0.065-0.603-0.129-0.67-0.434
						L460.228,96.882z"/>
					<path style="fill-rule:evenodd;clip-rule:evenodd;fill:#447056;" d="M460.407,106.74c-0.065-0.305,0.129-0.604,0.434-0.669
						c0.305-0.064,0.604,0.13,0.668,0.434l0.307,1.445c0.064,0.304-0.131,0.604-0.436,0.668c-0.305,0.064-0.603-0.13-0.668-0.435
						L460.407,106.74z"/>
				</g>
				<path style="fill-rule:evenodd;clip-rule:evenodd;fill:#36384E;" d="M457.452,121.767c-0.949,3.273-2.941,6.102-5.594,8.104
					h-10.283h-8.473c-0.215-0.162-0.424-0.329-0.629-0.501c1.06,1.895,2.504,3.544,4.228,4.845h10.68h8.076
					c3.77-2.844,6.207-7.361,6.207-12.447H457.452z"/>
			</g>
		</g>
		<g>
			<g>
				<path style="fill-rule:evenodd;clip-rule:evenodd;fill:#FFFFFF;" d="M82.537,250.889c1.24,0,2.251-1.012,2.251-2.252
					c0-1.24-1.011-2.252-2.251-2.252c-1.24,0-2.252,1.012-2.252,2.252C80.285,249.878,81.297,250.889,82.537,250.889z"/>
				<path style="fill-rule:evenodd;clip-rule:evenodd;fill:#FFFFFF;" d="M91.653,250.889c1.24,0,2.251-1.012,2.251-2.252
					c0-1.24-1.011-2.252-2.251-2.252c-1.24,0-2.252,1.012-2.252,2.252C89.401,249.878,90.413,250.889,91.653,250.889z"/>
				<path style="fill-rule:evenodd;clip-rule:evenodd;fill:#FFFFFF;" d="M100.77,250.889c1.24,0,2.251-1.012,2.251-2.252
					c0-1.24-1.011-2.252-2.251-2.252c-1.24,0-2.252,1.012-2.252,2.252C98.519,249.878,99.53,250.889,100.77,250.889z"/>
				<path style="fill-rule:evenodd;clip-rule:evenodd;fill:#FFFFFF;" d="M109.887,250.889c1.24,0,2.251-1.012,2.251-2.252
					c0-1.24-1.011-2.252-2.251-2.252c-1.24,0-2.252,1.012-2.252,2.252C107.635,249.878,108.647,250.889,109.887,250.889z"/>
				<path style="fill-rule:evenodd;clip-rule:evenodd;fill:#FFFFFF;" d="M128.12,250.889c1.24,0,2.252-1.012,2.252-2.252
					c0-1.24-1.012-2.252-2.252-2.252c-1.24,0-2.252,1.012-2.252,2.252C125.868,249.878,126.88,250.889,128.12,250.889z"/>
				<path style="fill-rule:evenodd;clip-rule:evenodd;fill:#FFFFFF;" d="M137.237,250.889c1.24,0,2.251-1.012,2.251-2.252
					c0-1.24-1.011-2.252-2.251-2.252c-1.24,0-2.251,1.012-2.251,2.252C134.985,249.878,135.997,250.889,137.237,250.889z"/>
				<path style="fill-rule:evenodd;clip-rule:evenodd;fill:#FFFFFF;" d="M146.353,250.889c1.24,0,2.252-1.012,2.252-2.252
					c0-1.24-1.012-2.252-2.252-2.252c-1.24,0-2.251,1.012-2.251,2.252C144.102,249.878,145.113,250.889,146.353,250.889z"/>
				<path style="fill-rule:evenodd;clip-rule:evenodd;fill:#FFFFFF;" d="M73.42,260.006c1.24,0,2.251-1.012,2.251-2.252
					c0-1.24-1.011-2.252-2.251-2.252c-1.24,0-2.251,1.012-2.251,2.252C71.169,258.995,72.18,260.006,73.42,260.006z"/>
				<path style="fill-rule:evenodd;clip-rule:evenodd;fill:#FFFFFF;" d="M91.653,260.006c1.24,0,2.251-1.012,2.251-2.252
					c0-1.24-1.011-2.252-2.251-2.252c-1.24,0-2.252,1.012-2.252,2.252C89.401,258.995,90.413,260.006,91.653,260.006z"/>
				<path style="fill-rule:evenodd;clip-rule:evenodd;fill:#FFFFFF;" d="M109.887,260.006c1.24,0,2.251-1.012,2.251-2.252
					c0-1.24-1.011-2.252-2.251-2.252c-1.24,0-2.252,1.012-2.252,2.252C107.635,258.995,108.647,260.006,109.887,260.006z"/>
				<path style="fill-rule:evenodd;clip-rule:evenodd;fill:#FFFFFF;" d="M119.003,260.006c1.24,0,2.251-1.012,2.251-2.252
					c0-1.24-1.011-2.252-2.251-2.252c-1.24,0-2.252,1.012-2.252,2.252C116.751,258.995,117.763,260.006,119.003,260.006z"/>
				<path style="fill-rule:evenodd;clip-rule:evenodd;fill:#FFFFFF;" d="M128.12,260.006c1.24,0,2.252-1.012,2.252-2.252
					c0-1.24-1.012-2.252-2.252-2.252c-1.24,0-2.252,1.012-2.252,2.252C125.868,258.995,126.88,260.006,128.12,260.006z"/>
				<path style="fill-rule:evenodd;clip-rule:evenodd;fill:#FFFFFF;" d="M137.237,260.006c1.24,0,2.251-1.012,2.251-2.252
					c0-1.24-1.011-2.252-2.251-2.252c-1.24,0-2.251,1.012-2.251,2.252C134.985,258.995,135.997,260.006,137.237,260.006z"/>
				<path style="fill-rule:evenodd;clip-rule:evenodd;fill:#FFFFFF;" d="M91.653,269.123c1.24,0,2.251-1.012,2.251-2.252
					c0-1.24-1.011-2.252-2.251-2.252c-1.24,0-2.252,1.012-2.252,2.252C89.401,268.111,90.413,269.123,91.653,269.123z"/>
				<path style="fill-rule:evenodd;clip-rule:evenodd;fill:#FFFFFF;" d="M100.77,269.123c1.24,0,2.251-1.012,2.251-2.252
					c0-1.24-1.011-2.252-2.251-2.252c-1.24,0-2.252,1.012-2.252,2.252C98.519,268.111,99.53,269.123,100.77,269.123z"/>
				<path style="fill-rule:evenodd;clip-rule:evenodd;fill:#FFFFFF;" d="M109.887,269.123c1.24,0,2.251-1.012,2.251-2.252
					c0-1.24-1.011-2.252-2.251-2.252c-1.24,0-2.252,1.012-2.252,2.252C107.635,268.111,108.647,269.123,109.887,269.123z"/>
				<path style="fill-rule:evenodd;clip-rule:evenodd;fill:#FFFFFF;" d="M119.003,269.123c1.24,0,2.251-1.012,2.251-2.252
					c0-1.24-1.011-2.252-2.251-2.252c-1.24,0-2.252,1.012-2.252,2.252C116.751,268.111,117.763,269.123,119.003,269.123z"/>
				<path style="fill-rule:evenodd;clip-rule:evenodd;fill:#FFFFFF;" d="M128.12,269.123c1.24,0,2.252-1.012,2.252-2.252
					c0-1.24-1.012-2.252-2.252-2.252c-1.24,0-2.252,1.012-2.252,2.252C125.868,268.111,126.88,269.123,128.12,269.123z"/>
				<path style="fill-rule:evenodd;clip-rule:evenodd;fill:#FFFFFF;" d="M146.353,269.123c1.24,0,2.252-1.012,2.252-2.252
					c0-1.24-1.012-2.252-2.252-2.252c-1.24,0-2.251,1.012-2.251,2.252C144.102,268.111,145.113,269.123,146.353,269.123z"/>
				<path style="fill-rule:evenodd;clip-rule:evenodd;fill:#FFFFFF;" d="M155.47,269.123c1.24,0,2.251-1.012,2.251-2.252
					c0-1.24-1.011-2.252-2.251-2.252c-1.24,0-2.252,1.012-2.252,2.252C153.218,268.111,154.23,269.123,155.47,269.123z"/>
			</g>
			<path style="fill-rule:evenodd;clip-rule:evenodd;fill:#FFFFFF;" d="M385.616,179.541c-0.387,0-0.699-0.313-0.699-0.699
				c0-0.385,0.313-0.699,0.699-0.699c0.482,0,0.924-0.136,1.271-0.402c0.324-0.25,0.576-0.624,0.709-1.118
				c0.215-0.806,0.645-1.432,1.209-1.866c0.598-0.458,1.334-0.692,2.119-0.692c0.785,0,1.521,0.234,2.117,0.692
				c0.564,0.434,0.996,1.06,1.211,1.866c0.133,0.494,0.383,0.868,0.709,1.118c0.346,0.267,0.789,0.402,1.271,0.402
				c0.48,0,0.924-0.136,1.271-0.402c0.324-0.25,0.576-0.624,0.707-1.118c0.217-0.806,0.646-1.432,1.211-1.866
				c0.598-0.458,1.334-0.692,2.119-0.692c0.785,0,1.521,0.234,2.117,0.692c0.565,0.434,0.996,1.06,1.211,1.866
				c0.133,0.494,0.383,0.868,0.709,1.118c0.346,0.267,0.789,0.402,1.271,0.402c0.48,0,0.924-0.136,1.272-0.402
				c0.324-0.25,0.576-0.624,0.707-1.118c0.217-0.806,0.646-1.432,1.213-1.866c0.596-0.458,1.332-0.692,2.117-0.692
				c0.785,0,1.522,0.234,2.117,0.692c0.566,0.434,0.996,1.06,1.211,1.866c0.133,0.494,0.383,0.868,0.709,1.118
				c0.346,0.267,0.789,0.402,1.271,0.402c0.482,0,0.924-0.136,1.272-0.402c0.324-0.25,0.576-0.624,0.707-1.118
				c0.217-0.806,0.646-1.432,1.213-1.866c0.596-0.458,1.332-0.692,2.117-0.692c0.785,0,1.521,0.234,2.117,0.692
				c0.565,0.434,0.994,1.06,1.211,1.866c0.133,0.494,0.383,0.868,0.707,1.118c0.348,0.267,0.791,0.402,1.273,0.402
				c0.482,0,0.924-0.136,1.271-0.402c0.324-0.25,0.576-0.624,0.709-1.118c0.215-0.806,0.645-1.432,1.209-1.866
				c0.598-0.458,1.334-0.692,2.119-0.692c0.785,0,1.522,0.234,2.117,0.692c0.564,0.434,0.994,1.06,1.211,1.866
				c0.133,0.494,0.383,0.868,0.709,1.118c0.346,0.267,0.789,0.402,1.271,0.402c0.385,0,0.697,0.314,0.697,0.699
				c0,0.386-0.313,0.699-0.697,0.699c-0.785,0-1.521-0.234-2.119-0.692c-0.565-0.434-0.994-1.059-1.209-1.865
				c-0.133-0.495-0.385-0.868-0.709-1.117c-0.348-0.267-0.789-0.403-1.272-0.403s-0.926,0.137-1.273,0.403
				c-0.324,0.25-0.574,0.623-0.707,1.117c-0.217,0.806-0.646,1.432-1.211,1.865c-0.596,0.458-1.332,0.692-2.117,0.692
				c-0.785,0-1.522-0.234-2.119-0.692c-0.564-0.434-0.994-1.059-1.211-1.865c-0.131-0.495-0.383-0.868-0.707-1.117
				c-0.348-0.267-0.789-0.403-1.271-0.403c-0.482,0-0.924,0.137-1.272,0.403c-0.326,0.25-0.576,0.623-0.709,1.117
				c-0.217,0.806-0.646,1.431-1.211,1.865c-0.596,0.458-1.332,0.692-2.117,0.692c-0.785,0-1.521-0.234-2.119-0.692
				c-0.565-0.434-0.994-1.059-1.209-1.865c-0.133-0.495-0.385-0.868-0.709-1.117c-0.348-0.267-0.789-0.403-1.272-0.403
				c-0.482,0-0.926,0.137-1.271,0.403c-0.326,0.25-0.576,0.623-0.709,1.117c-0.217,0.806-0.647,1.431-1.211,1.865
				c-0.596,0.458-1.332,0.692-2.117,0.692c-0.785,0-1.521-0.234-2.119-0.692c-0.564-0.434-0.994-1.059-1.209-1.865
				c-0.133-0.495-0.385-0.868-0.709-1.117c-0.348-0.267-0.789-0.403-1.271-0.403c-0.482,0-0.926,0.137-1.271,0.403
				c-0.326,0.25-0.576,0.623-0.709,1.117c-0.217,0.806-0.646,1.431-1.211,1.865c-0.596,0.458-1.332,0.692-2.117,0.692
				c-0.785,0-1.521-0.234-2.119-0.692c-0.564-0.434-0.994-1.059-1.209-1.865c-0.133-0.495-0.385-0.868-0.709-1.117
				c-0.348-0.267-0.789-0.403-1.271-0.403c-0.482,0-0.926,0.137-1.271,0.403c-0.326,0.25-0.576,0.623-0.709,1.117
				c-0.217,0.806-0.645,1.431-1.211,1.865C387.138,179.306,386.399,179.541,385.616,179.541z"/>
			<path style="fill-rule:evenodd;clip-rule:evenodd;fill:#FFFFFF;" d="M280.874,136.85c-0.385,0-0.697-0.313-0.697-0.699
				c0-0.386,0.313-0.699,0.697-0.699c0.482,0,0.926-0.136,1.272-0.403c0.326-0.25,0.576-0.623,0.709-1.118
				c0.217-0.806,0.645-1.432,1.211-1.865c0.596-0.458,1.332-0.692,2.117-0.692c0.785,0,1.522,0.234,2.117,0.692
				c0.566,0.433,0.996,1.059,1.211,1.865c0.133,0.495,0.385,0.868,0.709,1.118c0.348,0.267,0.789,0.403,1.272,0.403
				c0.482,0,0.926-0.136,1.271-0.403c0.326-0.25,0.576-0.623,0.709-1.118c0.217-0.806,0.645-1.432,1.211-1.865
				c0.596-0.458,1.332-0.692,2.117-0.692c0.785,0,1.521,0.234,2.117,0.692c0.566,0.433,0.996,1.059,1.211,1.865
				c0.133,0.495,0.385,0.868,0.709,1.118c0.348,0.267,0.789,0.403,1.271,0.403c0.482,0,0.926-0.136,1.271-0.403
				c0.324-0.25,0.576-0.623,0.709-1.118c0.215-0.806,0.645-1.432,1.211-1.865c0.596-0.458,1.332-0.692,2.117-0.692
				c0.785,0,1.521,0.234,2.117,0.692c0.566,0.433,0.996,1.059,1.211,1.865c0.133,0.495,0.385,0.868,0.709,1.118
				c0.346,0.267,0.789,0.403,1.271,0.403c0.483,0,0.926-0.136,1.272-0.403c0.324-0.25,0.576-0.623,0.709-1.118
				c0.215-0.806,0.647-1.432,1.211-1.865c0.596-0.458,1.332-0.692,2.117-0.692c0.785,0,1.522,0.234,2.119,0.692
				c0.564,0.433,0.994,1.059,1.209,1.865c0.133,0.495,0.385,0.868,0.709,1.118c0.346,0.267,0.789,0.403,1.272,0.403
				s0.924-0.136,1.271-0.403c0.326-0.25,0.576-0.623,0.709-1.118c0.215-0.806,0.646-1.432,1.211-1.865
				c0.596-0.458,1.332-0.692,2.117-0.692c0.785,0,1.521,0.234,2.119,0.692c0.563,0.433,0.994,1.059,1.209,1.865
				c0.133,0.495,0.385,0.868,0.709,1.118c0.348,0.267,0.789,0.403,1.272,0.403c0.385,0,0.699,0.313,0.699,0.699
				c0,0.385-0.314,0.699-0.699,0.699c-0.785,0-1.522-0.234-2.117-0.692c-0.566-0.434-0.996-1.059-1.211-1.866
				c-0.133-0.494-0.385-0.868-0.709-1.117c-0.346-0.267-0.789-0.403-1.271-0.403c-0.482,0-0.924,0.137-1.272,0.403
				c-0.324,0.249-0.576,0.623-0.709,1.117c-0.215,0.807-0.645,1.432-1.211,1.866c-0.596,0.458-1.332,0.692-2.117,0.692
				c-0.785,0-1.522-0.234-2.119-0.692c-0.565-0.434-0.994-1.059-1.209-1.866c-0.133-0.494-0.383-0.868-0.709-1.117
				c-0.346-0.267-0.789-0.403-1.272-0.403c-0.482,0-0.924,0.137-1.271,0.403c-0.326,0.249-0.576,0.623-0.709,1.117
				c-0.215,0.807-0.647,1.432-1.211,1.866c-0.596,0.458-1.332,0.692-2.117,0.692c-0.785,0-1.521-0.234-2.117-0.692
				c-0.564-0.434-0.996-1.059-1.211-1.866c-0.133-0.494-0.383-0.868-0.709-1.117c-0.348-0.267-0.789-0.403-1.271-0.403
				c-0.482,0-0.924,0.137-1.271,0.403c-0.326,0.249-0.576,0.623-0.709,1.117c-0.217,0.807-0.646,1.432-1.209,1.866
				c-0.598,0.458-1.334,0.692-2.119,0.692c-0.785,0-1.521-0.234-2.117-0.692c-0.565-0.434-0.994-1.059-1.211-1.866
				c-0.133-0.494-0.383-0.868-0.709-1.117c-0.348-0.267-0.789-0.403-1.271-0.403c-0.482,0-0.924,0.137-1.271,0.403
				c-0.324,0.249-0.576,0.623-0.709,1.117c-0.215,0.807-0.645,1.432-1.209,1.866c-0.598,0.458-1.334,0.692-2.119,0.692
				c-0.785,0-1.522-0.234-2.117-0.692c-0.564-0.434-0.994-1.059-1.211-1.866c-0.133-0.494-0.383-0.868-0.709-1.117
				c-0.346-0.267-0.789-0.403-1.272-0.403c-0.482,0-0.926,0.137-1.271,0.403c-0.324,0.249-0.576,0.623-0.709,1.117
				c-0.215,0.807-0.645,1.432-1.209,1.866C282.396,136.616,281.659,136.85,280.874,136.85z"/>
			<path style="fill-rule:evenodd;clip-rule:evenodd;fill:#FFFFFF;" d="M301.005,77.336c0.779,0,1.483,0.316,1.994,0.826
				c0.51,0.511,0.826,1.215,0.826,1.994c0,0.779-0.316,1.483-0.826,1.994c-0.512,0.51-1.215,0.826-1.994,0.826
				s-1.484-0.316-1.994-0.826c-0.51-0.511-0.826-1.215-0.826-1.994c0-0.779,0.316-1.483,0.826-1.994
				C299.521,77.651,300.226,77.336,301.005,77.336z"/>
			<path style="fill-rule:evenodd;clip-rule:evenodd;fill:#FFFFFF;" d="M100.457,128.465c0.778,0,1.484,0.316,1.994,0.826
				c0.51,0.51,0.826,1.215,0.826,1.994c0,0.779-0.316,1.484-0.826,1.994c-0.51,0.511-1.216,0.826-1.994,0.826
				c-0.778,0-1.484-0.315-1.994-0.826c-0.511-0.51-0.826-1.215-0.826-1.994c0-0.778,0.315-1.483,0.826-1.994
				C98.973,128.781,99.679,128.465,100.457,128.465z"/>
		</g>
		<g>
			<path style="fill-rule:evenodd;clip-rule:evenodd;fill:#2E1700;" d="M352.46,218.04c-20.301,20.302-19.006,54.427-19.006,54.427
				s-52.697-5.184-65.225-40.172c-12.527-34.989-8.207-42.332-8.207-42.332l40.172-18.575L352.46,218.04z"/>
			<path style="fill-rule:evenodd;clip-rule:evenodd;fill:#E4AE91;" d="M248.789,234.478c-5.715-4.536,7.757-16.136,3.453-23.171
				c-3.144-5.139-5.849-11.095-8.454-18.516c-5.702-16.252-10.336-39.258-15.019-73.901l18.542-2.492
				c4.506,33.354,8.874,55.226,14.139,70.237c4.801,13.683,10.305,21.281,17.482,26.979L248.789,234.478z"/>
			<path style="fill-rule:evenodd;clip-rule:evenodd;fill:#626261;" d="M269.534,88.559L269.534,88.559
				c2.184,0,3.971,1.787,3.971,3.971v13.846c0,2.184-1.787,3.971-3.971,3.971l0,0c-2.184,0-3.971-1.787-3.971-3.971V92.53
				C265.564,90.346,267.351,88.559,269.534,88.559z"/>
			<path style="fill-rule:evenodd;clip-rule:evenodd;fill:#626261;" d="M205.25,88.559L205.25,88.559
				c2.185,0,3.971,1.787,3.971,3.971v13.846c0,2.184-1.787,3.971-3.971,3.971h0c-2.184,0-3.97-1.787-3.97-3.971V92.53
				C201.279,90.346,203.066,88.559,205.25,88.559z"/>
			<path style="fill-rule:evenodd;clip-rule:evenodd;fill:#E4AE91;" d="M224.749,110.745c-0.41-3.703-0.961-7.303-1.096-10.008
				c-0.139-2.775,20.879-7.629,23.524,3.087c0,0,1.736-1.542,3.643-2.642c12.018-6.924-2.211,13.487-3.024,14.8
				c-4.237,6.831-13.281,8.763-18.039,4.208C226.899,117.455,225.19,114.731,224.749,110.745z"/>
			<path style="fill-rule:evenodd;clip-rule:evenodd;fill:#B77A65;" d="M224.7,110.313c-0.403-3.549-0.918-6.977-1.048-9.576
				c-0.024-0.483,0.595-1.03,1.645-1.546c4.508-0.354,10.34-0.74,16.174-1.103c2.767,0.944,4.961,2.725,5.705,5.736
				c0,0,4.094-5.018,6-6.116c6.555-3.776,2.943,4.053,0.318,9.006L224.7,110.313z"/>
			<path style="fill-rule:evenodd;clip-rule:evenodd;fill:#E4AE91;" d="M291.272,234.287c1.978,7.025,3.853,18.194,6.092,31.525
				c4.295,25.584,9.98,59.451,19.723,83.467l-17.369,7.035c-10.484-25.845-16.373-60.925-20.822-87.424
				c-2.143-12.768-3.938-23.465-5.652-29.546L291.272,234.287z"/>
			<polygon style="fill-rule:evenodd;clip-rule:evenodd;fill:#3F425E;" points="237.307,287.392 306.216,407.465 285.878,419.1 
				216.97,299.027 			"/>
			<path style="fill-rule:evenodd;clip-rule:evenodd;fill:#3F425E;" d="M212.476,309.092c17.635,0,32.019-14.383,32.019-32.018
				c0-17.635-14.384-32.018-32.019-32.018c-17.635,0-32.018,14.383-32.018,32.018C180.458,294.71,194.841,309.092,212.476,309.092z"
				/>
			<path style="fill-rule:evenodd;clip-rule:evenodd;fill:#3F425E;" d="M205.996,269.472c-6.504,23.62-8.754,47.901-8.656,72.447
				c0.099,24.68,2.643,50.102,5.649,75.487l-23.269,2.747c-3.052-25.77-5.635-51.794-5.741-78.143
				c-0.105-26.482,2.36-52.813,9.48-78.677L205.996,269.472z"/>
			<path style="fill-rule:evenodd;clip-rule:evenodd;fill:#CA6D18;" d="M248.852,298.128c0.266-0.065,12.083-13.4,23.584-26.67
				c10.818-12.484,21.357-24.91,21.736-26.175c10.381-34.732-22.736-43.825-22.736-40.204c0,1.462-2.477,16.441-16.371,15.249
				c-1.971-0.169,0.508-3.001-1.613-7.307c-11.997,13.629-64.116,37.775-64.134,38.447
				C184.164,279.274,235.747,301.328,248.852,298.128z"/>
			<path style="fill-rule:evenodd;clip-rule:evenodd;fill:#A95D16;" d="M254.374,217.215c0.025-1.143-0.117-2.563-0.922-4.195
				c-11.997,13.629-64.116,37.775-64.134,38.447c-2.019,10.893,4.669,20.9,14.338,28.856c-3.652-8.335-5.106-16.806,0.323-21.732
				C216.534,247.199,246.725,227.968,254.374,217.215z"/>
			<path style="fill-rule:evenodd;clip-rule:evenodd;fill:#C98E77;" d="M292.952,236.588c-0.146,0.201-17.666,11.237-19.832-2.107
				c-1.695-10.456,5.17-20.104,5.17-20.104L292.952,236.588z"/>
			<path style="fill-rule:evenodd;clip-rule:evenodd;fill:#381C0A;" d="M356.771,210.245c7.355,19.287-12.602,28.224-27.566,29.208
				c-14.967,0.984-14.967,0.984-14.967,0.984L356.771,210.245z"/>
			<path style="fill-rule:evenodd;clip-rule:evenodd;fill:#E4AE91;" d="M354.991,217.107c-9.668,9.779-18.734,19.041-25.998,23.967
				c-2.938,1.992-5.727,3.689-8.41,5.162c-17.949,9.847-41.121-12.486-43.531-32.514c-0.805-6.674,1.563-16.926,1.383-22.783
				c0,0-4.293-12.512,2.779-19.518c7.076-7.006,9.645,2.333,9.645,2.333s11.91-9.747,29.586-15.027
				C344.298,151.601,363.185,208.819,354.991,217.107z"/>
			<path style="fill-rule:evenodd;clip-rule:evenodd;fill:#B77A65;" d="M354.991,217.107c-1.397,1.412-2.779,2.813-4.147,4.191
				c-12.063-3.954-31.932-32.154-37.664-43.159c0,0-16.889,22.205-30.982,22.916c-14.096,0.71,35.324-31.263,35.324-31.263
				s6.867-4.921,7.891-3.923c4.445,4.335,10.393,21.823,13.779,25.963c2.834,3.463,16.023,9.545,19.23,17.434
				c0.315,0.773-2.545,5.438-2.377,6.164C355.765,216.108,355.415,216.677,354.991,217.107z"/>
			<path style="fill-rule:evenodd;clip-rule:evenodd;fill:#381C0A;" d="M315.29,197.513c-1.734-1.749-4.963-1.359-7.211,0.872
				c-2.25,2.231-2.666,5.457-0.932,7.206c1.736,1.749,4.965,1.358,7.213-0.872C316.61,202.487,317.026,199.261,315.29,197.513z"/>
			<path style="fill-rule:evenodd;clip-rule:evenodd;fill:#FFFFFF;" d="M313.267,197.963c-0.504-0.508-1.324-0.512-1.832-0.007
				c-0.508,0.503-0.512,1.323-0.008,1.831c0.504,0.507,1.324,0.511,1.832,0.007C313.767,199.29,313.771,198.47,313.267,197.963z"/>
			<path style="fill-rule:evenodd;clip-rule:evenodd;fill:#381C0A;" d="M335.169,219.456c-1.736-1.749-4.965-1.358-7.213,0.872
				c-2.248,2.231-2.666,5.457-0.93,7.206c1.734,1.749,4.963,1.358,7.211-0.873C336.487,224.43,336.903,221.204,335.169,219.456z"/>
			<path style="fill-rule:evenodd;clip-rule:evenodd;fill:#FFFFFF;" d="M333.144,219.906c-0.502-0.508-1.324-0.511-1.83-0.007
				c-0.508,0.503-0.512,1.324-0.008,1.831s1.324,0.511,1.832,0.007C333.644,221.234,333.647,220.413,333.144,219.906z"/>
			<path style="fill-rule:evenodd;clip-rule:evenodd;fill:#381C0A;" d="M341.739,221.766l-7.578-9.951
				c3.098-1.373,6.4,0.362,7.754,2.725C344.013,218.2,343.032,223.465,341.739,221.766z"/>
			<path style="fill-rule:evenodd;clip-rule:evenodd;fill:#381C0A;" d="M313.185,189.294l9.021,8.614
				C326.009,188.482,312.218,188.371,313.185,189.294z"/>
			<path style="fill-rule:evenodd;clip-rule:evenodd;fill:#B77A65;" d="M286.513,174.514c-1.65-1.636-4.145-0.276-5.574,3.037
				c-1.428,3.313-1.25,7.325,0.399,8.96c1.65,1.636,4.145,0.276,5.574-3.036C288.341,180.163,288.161,176.15,286.513,174.514z"/>
			<path style="fill-rule:evenodd;clip-rule:evenodd;fill:#381C0A;" d="M314.966,178.929c1.293-3.658,6.543-9.346,6.543-9.346
				s-5.066,1.37-8.99,5.574c-0.129-0.083-0.189-0.103-0.189-0.103s-13.74,24.254-28.742,26.93
				c-15.002,2.677-18.773,12.104-18.773,12.104c-1.119-0.496-0.178-10.941,6.262-16.552c10.035-8.743,28.512-16.312,16.555-28.398
				c0,0,17.498-17.944,26.008-18.674c8.51-0.729,10.885,3.482,10.885,3.482c39.355-7.294,60.834,46.839,32.682,71.645
				c-3.041,2.682,0.266-7.354-3.483-6.441c-0.783,0.19,4.109-9.183,3.565-8.471c-1.199,1.564-6.555,6.039-7.438,5.505
				C336.003,207.788,318.8,184.639,314.966,178.929z"/>
			<path style="fill-rule:evenodd;clip-rule:evenodd;fill:#513124;" d="M324.171,153.47c0.246,0.288,0.352,0.476,0.352,0.476
				c2.016-0.374,3.978-0.578,5.895-0.642c1.963,3.958,6.273,11.049,15.258,20.501c7.977,8.392,17.076,12.21,23.553,13.946
				c0.996,5.32,1.076,10.808,0.111,16.112c-2.102-0.958-4.623-2.111-7.656-3.5C345.13,192.776,327.3,167.939,324.171,153.47z"/>
			<rect x="215.675" y="94.752" style="fill-rule:evenodd;clip-rule:evenodd;fill:#4B4A49;" width="48.398" height="9.401"/>
			<path style="fill-rule:evenodd;clip-rule:evenodd;fill:#575756;" d="M210.834,82.947L210.834,82.947
				c3.309,0,6.017,2.707,6.017,6.016v20.98c0,3.309-2.707,6.016-6.016,6.016h-0.001c-3.309,0-6.016-2.707-6.016-6.016v-20.98
				C204.818,85.654,207.525,82.947,210.834,82.947z"/>
			<path style="fill-rule:evenodd;clip-rule:evenodd;fill:#575756;" d="M264.321,82.947h0.002c3.309,0,6.016,2.707,6.016,6.016
				v20.98c0,3.309-2.707,6.016-6.016,6.016h-0.002c-3.309,0-6.016-2.707-6.016-6.016v-20.98
				C258.306,85.654,261.013,82.947,264.321,82.947z"/>
			<path style="fill-rule:evenodd;clip-rule:evenodd;fill:#E4AE91;" d="M228.87,100.916c-0.001-0.004-0.002-0.007-0.003-0.01
				C228.869,100.907,228.87,100.91,228.87,100.916L228.87,100.916z M235.137,101.938c1.857,7.454,6.948,3.482,6.826,0.51
				c0,0,2.271,4.242,5.389,2.316c0.458-0.283,0.746-0.819,0.91-1.535c0.475-2.088,0.03-10.628-2.087-12.393
				c-1.093-0.911-2.211-1.028-3.407-0.399c-2.163,1.137-2.158,1.439-2.158,1.439s-2.136-2.348-4.596-0.853
				c-2.46,1.496-1.467,1.278-1.467,1.278s-2.412-2.259-4.215-1.313c-1.803,0.948-1.67,1.491-1.67,1.491
				c-3.797-2.748-6.278,0.122-5.645,5.019c0.023,0.182,0.048,0.36,0.073,0.537c0.018,0.121,0.035,0.241,0.053,0.359
				c1.249,8.18,5.69,2.781,5.727,2.52C229.908,107.13,234.402,106.554,235.137,101.938z"/>
			<path style="fill-rule:evenodd;clip-rule:evenodd;fill:#381C0A;" d="M300.251,213.983c0,8.668,7.23,13.968,12.143,15.808
				c4.674,1.75,8.012,0.554,4.219,2.973C303.284,241.268,287.517,230.056,300.251,213.983z"/>
			<path style="fill-rule:evenodd;clip-rule:evenodd;fill:#CE617F;" d="M304.073,235.352c-4.695-1.042-8.19-4.485-8.496-9.375
				c1.932-0.082,4.098,0.725,5.854,2.365C303.603,230.37,304.546,233.111,304.073,235.352z"/>
			<path style="fill-rule:evenodd;clip-rule:evenodd;fill:#FFFFFF;" d="M300.251,213.983c0,8.668,7.23,13.968,12.143,15.808
				c4.674,1.75,8.012,0.554,4.219,2.973c-0.217,0.139-0.434,0.27-0.652,0.398c-7.59,1.046-16.074-6.341-18.834-14.247
				C297.874,217.337,298.9,215.689,300.251,213.983z"/>
			<path style="fill-rule:evenodd;clip-rule:evenodd;fill:#B77A65;" d="M315.634,222.016c-2.533,1.616-6.002-2.034-4.426-4.574
				C311.286,217.314,315.722,221.96,315.634,222.016z"/>
			<g>
				<path style="fill-rule:evenodd;clip-rule:evenodd;fill:#E4AE91;" d="M303.987,377.262c3.629,7.054,5.709,0.829,5.58,0.804
					c1.395,2.935,2.789,4.659,4.33,4.974c1.76,0.359,3.557-1.089,3.047-4.138c1.877,3.809,4.537,4.654,6.82,2.07
					c0.83-0.936-0.615-4.595-1.15-5.505c0,0,3.211,7.212,6.801,4.055c1.637-1.44-3.35-10.406-5.393-14.347
					c-1.189-2.294-1.924-4.758-1.924-4.758s4.555,1.304,7.822,0.859c1.463-0.2,2.395-1.638,2.943-2.542
					c0.924-1.523-3.582-2.138-6.59-4.693c-3.441-2.925-5.969-6.112-10.461-6.581c-12.105-1.263-16.598,4.174-16.752,11.873
					C298.95,364.889,301.2,371.846,303.987,377.262z"/>
				<path style="fill-rule:evenodd;clip-rule:evenodd;fill:#B77A65;" d="M322.354,360.847c0.193-0.269,0.133-0.645-0.135-0.839
					c-0.27-0.194-0.646-0.134-0.84,0.136c-0.107,0.149-0.232,0.302-0.375,0.454c-1.469,1.586-4.609,3.299-7.939,4.234
					c-3.273,0.919-6.693,1.077-8.771-0.415c-0.152-0.109-0.299-0.227-0.434-0.352c-0.244-0.225-0.623-0.208-0.848,0.036
					c-0.225,0.244-0.209,0.624,0.035,0.848c0.174,0.161,0.356,0.309,0.541,0.443c2.422,1.735,6.219,1.603,9.805,0.597
					c3.527-0.991,6.889-2.842,8.494-4.574C322.063,361.224,322.222,361.034,322.354,360.847z"/>
				<path style="fill-rule:evenodd;clip-rule:evenodd;fill:#B77A65;" d="M323.073,367.302c0.215-0.253,0.184-0.633-0.068-0.848
					c-0.254-0.215-0.633-0.185-0.848,0.069c-1.766,2.071-4.311,4.005-7.432,4.865c-2.488,0.687-5.353,0.689-8.5-0.467
					c-0.313-0.116-0.658,0.044-0.775,0.355c-0.115,0.311,0.045,0.658,0.355,0.774c3.408,1.25,6.525,1.244,9.24,0.496
					C318.429,371.616,321.173,369.532,323.073,367.302z"/>
				<path style="fill-rule:evenodd;clip-rule:evenodd;fill:#B77A65;" d="M323.093,378.394c0.141,0.302,0.5,0.432,0.799,0.29
					c0.303-0.141,0.432-0.499,0.291-0.8l-3.682-7.865c-0.141-0.301-0.498-0.431-0.801-0.289c-0.301,0.141-0.43,0.499-0.289,0.8
					L323.093,378.394z"/>
				<path style="fill-rule:evenodd;clip-rule:evenodd;fill:#B77A65;" d="M317.028,380.571c0.111,0.313,0.457,0.477,0.771,0.364
					c0.313-0.112,0.475-0.457,0.363-0.77l-2.924-8.22c-0.111-0.314-0.455-0.477-0.77-0.364c-0.313,0.111-0.475,0.457-0.363,0.771
					L317.028,380.571z"/>
				<path style="fill-rule:evenodd;clip-rule:evenodd;fill:#B77A65;" d="M309.47,378.723c0.051,0.329,0.359,0.554,0.688,0.504
					c0.328-0.052,0.553-0.359,0.502-0.688l-0.984-6.43c-0.051-0.328-0.359-0.553-0.688-0.502c-0.328,0.051-0.553,0.358-0.502,0.687
					L309.47,378.723z"/>
			</g>
			<path style="fill-rule:evenodd;clip-rule:evenodd;fill:#B77A65;" d="M227.972,92.658c-0.008-0.322,0.248-0.59,0.57-0.598
				c0.322-0.008,0.591,0.247,0.598,0.57l0.248,9.246c0.008,0.322-0.248,0.59-0.57,0.598c-0.323,0.007-0.591-0.248-0.598-0.57
				L227.972,92.658z"/>
			<path style="fill-rule:evenodd;clip-rule:evenodd;fill:#B77A65;" d="M233.683,92.201c-0.029-0.322,0.207-0.605,0.529-0.635
				c0.321-0.028,0.605,0.208,0.635,0.529l1.116,12.287c0.029,0.321-0.207,0.605-0.528,0.634c-0.321,0.029-0.605-0.208-0.635-0.529
				L233.683,92.201z"/>
			<path style="fill-rule:evenodd;clip-rule:evenodd;fill:#B77A65;" d="M240.137,92.212c-0.035-0.321,0.196-0.611,0.517-0.646
				c0.321-0.035,0.611,0.197,0.645,0.518l1.242,10.921c0.034,0.321-0.197,0.611-0.518,0.646c-0.321,0.036-0.611-0.196-0.646-0.517
				L240.137,92.212z"/>
			<path style="fill-rule:evenodd;clip-rule:evenodd;fill:#E4AE91;" d="M182.201,414.648c1.508,0.005,20.413,0.245,20.699,0.629
				c3.032,4.067,6.712,13.501,1.319,14.05c-7.07,0.721-38.379,2.353-46.13,0.518c-7.188-1.702-4.749-9.645,1.439-9.987
				c2.41-0.134,5.227-0.218,7.585-0.719C173.85,417.71,179.052,414.636,182.201,414.648z"/>
			<path style="fill-rule:evenodd;clip-rule:evenodd;fill:#B77A65;" d="M169.299,421.434c0.31-0.092,0.636,0.084,0.729,0.394
				c0.092,0.311-0.084,0.637-0.394,0.729c-1.026,0.309-1.844,0.181-2.699,0.045c-0.753-0.118-1.542-0.243-2.518,0.009
				c-1.414,0.364-2.351,1.049-2.826,1.852c-0.28,0.475-0.4,0.996-0.357,1.516c0.042,0.526,0.25,1.059,0.621,1.549
				c0.722,0.952,2.047,1.735,3.965,2.034c0.319,0.049,0.537,0.347,0.488,0.666c-0.049,0.318-0.348,0.537-0.666,0.488
				c-2.246-0.35-3.83-1.309-4.72-2.483c-0.508-0.67-0.795-1.414-0.855-2.162c-0.061-0.758,0.111-1.515,0.518-2.203
				c0.623-1.054,1.802-1.938,3.545-2.388c1.208-0.311,2.117-0.168,2.984-0.031C167.833,421.56,168.52,421.668,169.299,421.434z"/>
			<path style="fill-rule:evenodd;clip-rule:evenodd;fill:#EABA4E;" d="M235.541,227.701c-0.643,0.073-1.223-0.389-1.296-1.031
				c-0.073-0.642,0.389-1.223,1.031-1.296l1.592-0.188c6.046-0.714,9.574-1.131,11.357-0.239c2.311,1.155,1.871,3.46-0.439,8.08
				c-1.236,2.473-1.269,3.549-0.662,3.853c1.238,0.619,4.361-0.152,7.169-0.846c0.619-0.153,1.225-0.302,1.871-0.449
				c3.441-0.782,4.799-0.588,5.164,1.023c0.19,0.832-0.148,1.835-0.641,3.305c-0.228,0.676-0.496,1.472-0.781,2.469
				c-0.195,0.684-0.395,1.312-0.584,1.908c-0.523,1.655-0.961,3.037-0.775,3.597c0.152,0.459,1.414,0.327,4.953-0.854
				c4.918-1.64,7.428-2.223,8.793-0.939c1.371,1.291,0.957,3.832,0.108,8.521c-0.387,2.144-0.197,2.954,0.313,3.046
				c1.012,0.184,3.037-0.752,5.109-1.711c3.457-1.599,7.027-3.25,8.957-0.942c0.414,0.496,0.35,1.234-0.147,1.648
				c-0.496,0.415-1.234,0.35-1.65-0.146c-0.779-0.934-3.523,0.336-6.18,1.563c-2.408,1.114-4.76,2.201-6.502,1.886
				c-1.91-0.346-2.895-1.914-2.199-5.757c0.703-3.875,1.063-5.957,0.588-6.404c-0.48-0.451-2.438,0.112-6.455,1.451
				c-5.199,1.734-7.277,1.249-7.904-0.631c-0.43-1.289,0.111-2.993,0.758-5.034c0.188-0.598,0.389-1.229,0.564-1.845
				c0.27-0.944,0.566-1.823,0.816-2.57c0.371-1.102,0.623-1.854,0.58-2.05c-0.035-0.151-0.6,0.342-2.371,0.745
				c-0.529,0.12-1.172,0.279-1.826,0.44c-3.201,0.791-6.758,1.669-8.773,0.663c-1.859-0.929-2.391-2.968-0.381-6.986
				c1.582-3.166,2.118-4.629,1.482-4.947c-1.146-0.573-4.421-0.186-10.037,0.477L235.541,227.701z"/>
			<path style="fill-rule:evenodd;clip-rule:evenodd;fill:#E4AE91;" d="M302.525,405.736c-1.303,0.759-17.557,10.419-17.611,10.895
				c-0.998,8.504,3.861,12.223,10.922,9.861c0.897-0.299,28.225-14.467,29.631-15.464c2.34-1.66,0.996-2.825,2.188-3.69
				c6.986-5.067,2.642-11.224-2.889-8.427c-2.152,1.09-4.635,2.425-6.928,3.171C311.288,404.212,305.247,404.152,302.525,405.736z"
				/>
			<path style="fill-rule:evenodd;clip-rule:evenodd;fill:#B77A65;" d="M317.358,406.302c-0.314,0.074-0.629-0.122-0.701-0.438
				c-0.074-0.315,0.121-0.629,0.438-0.703c0.787-0.184,1.328-0.622,1.895-1.08c0.682-0.553,1.397-1.131,2.604-1.467
				c1.732-0.483,3.195-0.305,4.262,0.295c0.695,0.393,1.225,0.964,1.551,1.652c0.322,0.678,0.445,1.464,0.342,2.297
				c-0.184,1.464-1.076,3.086-2.848,4.512c-0.25,0.202-0.619,0.163-0.82-0.09c-0.203-0.251-0.164-0.619,0.088-0.821
				c1.512-1.218,2.268-2.558,2.416-3.742c0.078-0.611-0.01-1.178-0.236-1.656c-0.223-0.467-0.584-0.858-1.064-1.129
				c-0.814-0.458-1.969-0.583-3.377-0.19c-0.965,0.268-1.586,0.771-2.18,1.25C319.05,405.536,318.407,406.056,317.358,406.302z"/>
			<path style="fill-rule:evenodd;clip-rule:evenodd;fill:#333448;" d="M296.214,409.5c-16.818-22.613-47.782-69.821-69.479-103.749
				c-1.535,0.765-3.14,1.41-4.803,1.923l62.914,109.628c0.018-0.221,0.039-0.444,0.066-0.671
				C284.948,416.336,291.161,412.54,296.214,409.5z"/>
		</g>
		<g>
			<path style="fill-rule:evenodd;clip-rule:evenodd;fill:#181C39;" d="M374.667,411.118l85.063-0.79
				c7.213-0.066,6.256-4.568,3.666-6.41c-2.203-1.565-11.387-8.93-13.66-8.93h-64.059c-2.758,0-12.842,8.561-14.9,10.079
				C368.011,407.11,368.802,411.172,374.667,411.118z"/>
			<path style="fill-rule:evenodd;clip-rule:evenodd;fill:#363854;" d="M460.116,404.992c-0.033-0.023-0.063-0.047-0.09-0.066
				c-1.705-1.229-10.705-8.192-11.668-8.192h-61.174c-1.27,0-10.871,7.824-12.484,9.03c0.424,0.024,0.816,0.029,1.035,0.026
				l83.4-0.765C459.347,405.024,459.712,405.015,460.116,404.992z"/>
			<path style="fill-rule:evenodd;clip-rule:evenodd;fill:#181C39;" d="M427.853,404.331c-0.006-0.008-0.014-0.016-0.022-0.021
				l-1.377-1.289c-0.262-0.245-1.176-1.313-1.477-1.313h-14.961c-0.369,0-0.539,0.426-0.816,0.696l-2.236,2.173
				c0.104,0.007,0.199,0.009,0.252,0.008l20.398-0.242C427.665,404.34,427.755,404.337,427.853,404.331z"/>
			<path style="fill-rule:evenodd;clip-rule:evenodd;fill:#3F425E;" d="M382.759,339.699h69.035c2.736,0,5.125,2.243,4.977,4.975
				l-2.49,45.34c-0.148,2.73-2.238,4.975-4.975,4.975h-64.059c-2.734,0-4.826-2.243-4.975-4.975l-2.488-45.34
				C377.636,341.941,380.024,339.699,382.759,339.699z"/>
			<path style="fill-rule:evenodd;clip-rule:evenodd;fill:#A1BCAE;" d="M382.86,346.368l2.281,41.554
				c0.154,2.812,2.924,2.092,6.293,2.092h51.975c2.711,0,5.861,0.506,6.002-2.041c0.742-13.527,1.484-27.057,2.227-40.584
				c0.188-3.398-0.221-2.715-3.777-2.715c-21.348,0-39.947,0-61.295,0C384.444,344.673,382.747,344.295,382.86,346.368z"/>
			<path style="fill-rule:evenodd;clip-rule:evenodd;fill:#181C39;" d="M417.276,343.678c0.791,0,1.434-0.643,1.434-1.434
				c0-0.79-0.643-1.434-1.434-1.434c-0.789,0-1.434,0.643-1.434,1.434C415.843,343.035,416.487,343.678,417.276,343.678z"/>
			<path style="fill-rule:evenodd;clip-rule:evenodd;fill:#FFFFFF;" d="M447.86,354.534c0.318,0,1.477-0.065,2.215-0.063
				c0.131-2.383,0.262-4.766,0.393-7.147c0.014-0.261,0.065-1.108,0.016-1.528c-0.602-0.045-2.234,0.053-2.623,0.053
				c-20.432,0-40.863,0-61.295,0c-0.379,0-2.162-0.094-2.512,0.065c-0.031,0.1-0.027,0.31-0.022,0.391l0.449,8.223
				c0.662-0.048,1.793,0.008,2.084,0.008C406.997,354.534,427.429,354.534,447.86,354.534L447.86,354.534z M442.103,348.968
				c0.658,0,1.189,0.532,1.189,1.189c0,0.656-0.531,1.189-1.189,1.189c-0.656,0-1.19-0.533-1.19-1.189
				C440.913,349.5,441.446,348.968,442.103,348.968L442.103,348.968z M437.347,348.968c0.656,0,1.188,0.532,1.188,1.189
				c0,0.656-0.531,1.189-1.188,1.189c-0.658,0-1.189-0.533-1.189-1.189C436.157,349.5,436.688,348.968,437.347,348.968
				L437.347,348.968z M432.589,348.968c0.656,0,1.19,0.532,1.19,1.189c0,0.656-0.533,1.189-1.19,1.189
				c-0.656,0-1.189-0.533-1.189-1.189C431.399,349.5,431.933,348.968,432.589,348.968z"/>
			<path style="fill-rule:evenodd;clip-rule:evenodd;fill:#FFFFFF;" d="M446.983,358.931c0.324,0,0.588,0.263,0.588,0.586
				c0,0.323-0.264,0.586-0.588,0.586H426.3c-0.322,0-0.586-0.263-0.586-0.586c0-0.323,0.264-0.586,0.586-0.586H446.983z"/>
			<path style="fill-rule:evenodd;clip-rule:evenodd;fill:#FFFFFF;" d="M446.597,363.688c0.324,0,0.586,0.263,0.586,0.587
				c0,0.323-0.262,0.586-0.586,0.586h-20.684c-0.322,0-0.586-0.263-0.586-0.586c0-0.324,0.264-0.587,0.586-0.587H446.597z"/>
			<path style="fill-rule:evenodd;clip-rule:evenodd;fill:#FFFFFF;" d="M446.21,368.445c0.324,0,0.586,0.263,0.586,0.587
				c0,0.323-0.262,0.586-0.586,0.586h-20.684c-0.324,0-0.586-0.263-0.586-0.586c0-0.324,0.262-0.587,0.586-0.587H446.21z"/>
			<path style="fill-rule:evenodd;clip-rule:evenodd;fill:#FFFFFF;" d="M445.823,373.203c0.324,0,0.588,0.263,0.588,0.586
				c0,0.324-0.264,0.587-0.588,0.587H425.14c-0.322,0-0.586-0.263-0.586-0.587c0-0.323,0.264-0.586,0.586-0.586H445.823z"/>
			<path style="fill-rule:evenodd;clip-rule:evenodd;fill:#FFFFFF;" d="M445.437,377.96c0.324,0,0.586,0.263,0.586,0.587
				c0,0.324-0.262,0.587-0.586,0.587h-20.684c-0.322,0-0.586-0.263-0.586-0.587c0-0.324,0.264-0.587,0.586-0.587H445.437z"/>
			<path style="fill-rule:evenodd;clip-rule:evenodd;fill:#FFFFFF;" d="M445.05,382.717c0.324,0,0.586,0.263,0.586,0.586
				c0,0.324-0.262,0.587-0.586,0.587h-20.684c-0.324,0-0.586-0.263-0.586-0.587c0-0.323,0.262-0.586,0.586-0.586H445.05z"/>
			<path style="fill-rule:evenodd;clip-rule:evenodd;fill:#FFFFFF;" d="M400.573,358.497c0.008-0.006,0.016-0.009,0.025-0.009
				c0.008,0,0.016,0.001,0.021,0.004c0.014-0.02,0.047-0.05,0.119-0.088c0.092-0.049,0.207,0.013,0.273,0.059
				c0.006-0.008,0.016-0.013,0.027-0.014c0.018-0.002,0.035,0.007,0.045,0.021c0.018-0.015,0.049-0.035,0.096-0.063
				c0.156-0.094,0.295,0.007,0.342,0.05c0.006-0.004,0.012-0.007,0.021-0.008c0.004-0.001,0.01,0,0.016,0.001
				c0.021-0.017,0.063-0.045,0.146-0.089c0.094-0.049,0.182-0.04,0.266,0.031c0.061,0.049,0.102,0.166,0.131,0.305h0.814v-0.451
				c0-0.258,0.211-0.468,0.469-0.468l0,0c0.248,0,0.455,0.197,0.467,0.442c0.141,0.029,0.248,0.154,0.248,0.304v1.078
				c0,0.149-0.107,0.273-0.248,0.303c-0.012,0.246-0.219,0.442-0.467,0.442l0,0c-0.258,0-0.469-0.21-0.469-0.468v-0.451h-0.273
				c-0.027,0.056-0.055,0.111-0.082,0.163l-0.004,0.006l-0.006,0.013l-0.01,0.018c-0.17,0.321-0.414,0.674-0.443,0.721
				c-0.012,0.02-0.023,0.036-0.035,0.053c0.35,2.586,0.69,4.282,1.1,5.448c0.02,0.061,0.041,0.12,0.063,0.178l1.158-0.535
				c0.008-0.28,0.08-0.594,0.316-0.827c0.225-0.221,0.391-0.233,0.508-0.169l-0.008-0.009c0,0,1.361-1.396,2.023-1.453
				c0.523-0.045,0.75,0.149,0.82,0.233l0.004,0.002v0.002l0.004,0.003v0.001l0.002,0.004l0.004,0.004l0,0l0.002,0.003v0.002
				l0.002,0.001l0.002,0.002v0.001l0.002,0.002v0.001l0.002,0.002v0.001v0.001h0.002v0.002v0.001h0.002l0,0v0.001v0.001l0,0v0.001
				l0,0c0.047-0.009,0.094-0.017,0.141-0.022h0.004l0.002-0.001l0.008-0.001c0.035-0.005,0.072-0.009,0.108-0.013h0.008l0.006-0.001
				l0.022-0.002h0.008l0.008-0.001l0.07-0.005l0.006-0.001h0.008l0.008-0.001l0.049-0.002h0.006c1.606-0.054,2.75,1.233,3.022,2.682
				l0.004,0.02l0.004,0.02l0.008,0.039l0.002,0.02l0.004,0.02l0.002,0.019l0.004,0.02l0.006,0.059l0.004,0.02l0.002,0.02l0.002,0.02
				l0.008,0.078l0.002,0.021l0.002,0.02c0.004,0.065,0.008,0.131,0.01,0.197v0.02v0.02v0.02v0.079v0.02l-0.002,0.02l-0.004,0.079
				v0.02l-0.002,0.02l-0.006,0.078l-0.002,0.021l-0.002,0.02l-0.002,0.018l-0.01,0.079l-0.002,0.02l-0.002,0.018l-0.004,0.02
				l-0.01,0.059l-0.002,0.02l-0.004,0.018c-0.115,0.631-0.418,1.227-0.945,1.692c-0.031,0.028-0.055,0.038-0.07,0.034
				c-0.246,0.436-0.742,0.728-1.277,0.892c-0.553,1.356-0.5,2.724-0.5,2.724s-1.475-0.146-2.865-0.849l0.055,0.331
				c0.326,1.943,0.756,4.502,1.48,6.362c0.322,0.053,0.514,0.288,0.77,0.507c0.234,0.198,0.586,0.246,0.514,0.365
				c-0.043,0.07-0.115,0.182-0.228,0.197c-0.211,0.028-0.492-0.036-0.582-0.059c0,0.009-0.002,0.018-0.008,0.025l-0.006,0.009
				c0.021,0.066,0.07,0.201,0.135,0.329c0.16,0.306,0.549,1.004,0.42,1.116c-0.156,0.138-0.303,0.021-0.402-0.106
				c0,0.018-0.01,0.033-0.027,0.041l-0.004,0.002c0.018,0.074,0.022,0.145-0.006,0.177c-0.143,0.163-0.309,0.15-0.441-0.02
				c-0.006,0.007-0.014,0.013-0.023,0.016c-0.023,0.009-0.051-0.004-0.059-0.028l-0.004-0.006c-0.018,0.151-0.131,0.221-0.24,0.198
				c-0.103-0.021-0.199-0.123-0.293-0.297c-0.023,0.004-0.049-0.013-0.053-0.039l-0.002-0.015c-0.039,0.102-0.189,0.355-0.424-0.1
				c-0.217-0.421-0.393-0.963-0.383-1.395c0-0.098,0.012-0.191,0.033-0.278c-0.807-2.008-1.26-4.715-1.605-6.764l-0.053-0.32
				l-0.449,0.52c-0.895,1.032-1.815,2.07-1.836,2.076c-0.107,0.025-0.246,0.03-0.41,0.015l4.762,8.298
				c0.246-0.064,0.621-0.09,1.02-0.219c0.178-0.059,0.371-0.163,0.539-0.248c0.432-0.217,0.77,0.262,0.225,0.656
				c-0.092,0.068,0.012,0.158-0.17,0.288c-0.109,0.077-2.236,1.18-2.307,1.203c-0.535,0.179-0.908-0.09-0.855-0.715l-4.898-8.536
				c-0.232,0.072-0.48,0.111-0.736,0.111c-0.371,0-0.725-0.082-1.041-0.228c-0.102,0.921-0.141,1.85-0.137,2.783
				c0.008,1.866,0.193,3.787,0.42,5.707c0.006,0.001,0.012,0.003,0.012,0.004c0.236,0.316,0.523,1.051,0.103,1.094
				c-0.551,0.057-2.988,0.184-3.592,0.041c-0.559-0.133-0.369-0.751,0.111-0.777c0.188-0.011,0.408-0.018,0.592-0.056
				c0.379-0.081,0.697-0.229,0.936-0.304c-0.217-1.882-0.395-3.78-0.402-5.702c-0.006-1.746,0.131-3.484,0.51-5.198
				c0.018-0.316,0.094-0.617,0.219-0.892l0.01-0.035l0.008,0.002c0.108-0.229,0.25-0.439,0.422-0.623c0-0.101,0.008-0.2,0.027-0.303
				c0.002-0.053,3.969-1.891,4.961-2.957c-0.01-0.059-0.029-0.116-0.063-0.17c-0.244-0.399-0.455-0.863-0.658-1.441
				c-0.441-1.261-0.803-3.045-1.164-5.727c-0.18-0.188-0.287-0.386-0.318-0.661l-0.004-0.033v-0.008l-0.002-0.005v-0.008v-0.006
				l-0.002-0.008v-0.005l-0.002-0.009v-0.013v-0.004l-0.002-0.01v-0.004l-0.002-0.01v-0.003v-0.011l-0.002-0.002v-0.011
				l-0.002-0.002l-0.002-0.012v-0.002v-0.011v-0.001l-0.002-0.013l0,0l-0.002-0.013l0,0l-0.002-0.013v-0.001v-0.002l-0.002-0.022
				l-0.002-0.002v-0.011v-0.002l-0.002-0.011v-0.003l-0.002-0.009v-0.004v-0.009l-0.002-0.004v-0.009l-0.002-0.004v-0.009v-0.004
				l-0.002-0.008v-0.006l-0.002-0.007v-0.006l-0.002-0.007v-0.005v-0.007v-0.006l-0.002-0.006v-0.007l-0.002-0.006v-0.007v-0.005
				l-0.002-0.008v-0.005l-0.002-0.008v-0.003l-0.002-0.009v-0.004v-0.01v-0.002l-0.002-0.01v-0.002l-0.002-0.01v-0.002v-0.011
				l-0.002-0.001v-0.011v-0.001l-0.002-0.011v-0.001v-0.009h-0.553v0.451c0,0.258-0.211,0.468-0.469,0.468l0,0
				c-0.248,0-0.453-0.193-0.467-0.438c-0.156-0.017-0.277-0.149-0.277-0.308v-1.078c0-0.159,0.121-0.291,0.277-0.308
				c0.014-0.244,0.219-0.438,0.467-0.438l0,0c0.258,0,0.469,0.21,0.469,0.468v0.451h0.478
				C400.202,358.468,400.358,358.361,400.573,358.497L400.573,358.497z M405.446,364.832l0.004,0.015h0.002L405.446,364.832z"/>
		</g>
	</g>
</g>
</svg>
